/* XPM */
static char *s189772745713394276_p3862_i149_w7501674576962[] = {
/* columns rows colors chars-per-pixel */
"70 70 169 2 ",
"   c #145E53",
".  c #156056",
"X  c #15655B",
"o  c #1C6459",
"O  c #236359",
"+  c #2D665D",
"@  c #32675F",
"#  c #166C61",
"$  c #13737A",
"%  c #19747C",
"&  c #197978",
"*  c #2F6B63",
"=  c #3A6A62",
"-  c #2B7066",
";  c #23747B",
":  c #2C757B",
">  c #2F797F",
",  c #297572",
"<  c #33757A",
"1  c #3D7A7F",
"2  c #446B65",
"3  c #4B6D68",
"4  c #556B6B",
"5  c #586E6A",
"6  c #53716C",
"7  c #59736F",
"8  c #447377",
"9  c #417378",
"0  c #4E7578",
"q  c #5C7374",
"w  c #5D7B7E",
"e  c #55787B",
"r  c #696969",
"t  c #617474",
"y  c #6B7474",
"u  c #687B7C",
"i  c #747474",
"p  c #737C7B",
"a  c #7E7E7E",
"s  c #31857D",
"d  c #6C817E",
"f  c #197F81",
"g  c #1D8E84",
"h  c #158889",
"j  c #1B8F8A",
"k  c #18958F",
"l  c #1B8B92",
"z  c #1C919A",
"x  c #1B9A9F",
"c  c #1C9492",
"v  c #288D82",
"b  c #32868D",
"n  c #348484",
"m  c #23928E",
"M  c #1CA092",
"N  c #19A19D",
"B  c #1DAD9E",
"V  c #20A99A",
"C  c #3EAF9F",
"Z  c #1B9CA0",
"A  c #1CA4A4",
"S  c #1AAAA7",
"D  c #1CADA9",
"F  c #1DB4AD",
"G  c #1FB9AF",
"H  c #1FBDB1",
"J  c #2BAFAE",
"K  c #2DAEA2",
"L  c #24B3AD",
"P  c #2AB7AC",
"I  c #37BAA9",
"U  c #39BDAD",
"Y  c #2EB6B4",
"T  c #28BDB5",
"R  c #488884",
"E  c #57888C",
"W  c #568F90",
"Q  c #50989D",
"!  c #489889",
"~  c #7A8584",
"^  c #5EA0A5",
"/  c #52BCBA",
"(  c #45BAB8",
")  c #60ABAC",
"_  c #63B8B5",
"`  c #72B7B6",
"'  c #79B7BA",
"]  c #20C5B5",
"[  c #24C5BF",
"{  c #28CCBC",
"}  c #27C9BA",
"|  c #3AC8B7",
" . c #31CABF",
".. c #3ECBB9",
"X. c #3EC2BA",
"o. c #2CD0BF",
"O. c #40CDBF",
"+. c #4BC8BF",
"@. c #51C3BD",
"#. c #6EC3B3",
"$. c #65CBBA",
"%. c #32CBC0",
"&. c #3BDECC",
"*. c #3AD7C9",
"=. c #2CE0D8",
"-. c #35E4D9",
";. c #51CBC1",
":. c #47D6C6",
">. c #4AD6C6",
",. c #5FD7CB",
"<. c #54DBCA",
"1. c #6ADDCF",
"2. c #42E1D0",
"3. c #46E9D6",
"4. c #4AEDD9",
"5. c #53EEDA",
"6. c #58EFDC",
"7. c #51E4D3",
"8. c #5DF0DD",
"9. c #6CE3D3",
"0. c #72E7D5",
"q. c #7FEDDB",
"w. c #66F2DE",
"e. c #6CF3DF",
"r. c #74F3E1",
"t. c #7BF3E3",
"y. c #828282",
"u. c #808887",
"i. c #838A89",
"p. c #8E8E8E",
"a. c #85B7BB",
"s. c #8DBBBF",
"d. c #90C3C5",
"f. c #80D6C5",
"g. c #B0D0D3",
"h. c #BCD7D9",
"j. c #A5C7CA",
"k. c #8BE1D9",
"l. c #89EDDC",
"z. c #83E8DC",
"x. c #93EADE",
"c. c #91ECE1",
"v. c #84F4E5",
"b. c #8BF5E6",
"n. c #99FAE7",
"m. c #93F6E8",
"M. c #9FFBE8",
"N. c #9CF6EA",
"B. c #B5E8E1",
"V. c #B3E6E0",
"C. c #A2F6EC",
"Z. c #A8F6ED",
"A. c #A1FBE8",
"S. c #AAFBEB",
"D. c #B3F7EF",
"F. c #B2FBED",
"G. c #BCFCEE",
"H. c #B8F8F0",
"J. c #D9E8EA",
"K. c #D3E8E8",
"L. c #C5FAF3",
"P. c #CDFCF4",
"I. c #D4FFF5",
"U. c #DAFFF7",
"Y. c #DFFEF8",
"T. c #E6FEFA",
"R. c #E8FFFA",
"E. c #F5FFFD",
"W. c #FEFFFF",
/* pixels */
"a a a i i i i i i i i i i i i i i i i i i a y.a a a p.p.p.p.p.p.p.p.p.a r r r r p.p.p.p.p.p.a a a i i i i i i i i i i i i i i i i i i i y.a ",
"y.a a i i i i i i i i i i i i i i i i i i i a a a y.p.p.p.p.p.p.p.p.p.a r r r r p.p.p.p.p.y.a a a i i i i i i i i i i i i i i i i i i i y.a ",
"y.a y.a a a a y.p.p.y.p.p.p.y.y.i.i.p.p.p.p.y.p.p.p.p.p.p.p.p.p.p.p.p.y.i i i r p.p.p.p.p.p.p.p.p.p.p.p.p.y.r r r r i a a a i a a a a a i a ",
"a a a a a a a y.p.p.p.p.p.p.p.p.p.p.p.p.p.p.p.p.p.p.p.p.p.p.p.p.p.p.p.p.i i i i p.p.p.p.p.p.p.p.p.p.p.p.p.p.r r r r i a a a a a a a a a i i ",
"a a y.a a a a i.p.p.p.p.p.p.p.p.p.p.p.p.p.p.p.p.p.p.p.p.p.p.p.p.p.p.p.a i i i i p.p.p.p.p.p.p.p.p.p.p.p.p.p.r r r r i a a a a y.y.a a a i i ",
"y.a a a a y.a i.p.p.p.p.p.p.p.p.p.p.p.p.p.p.p.p.p.p.p.p.p.p.p.p.p.p.p.a i i i i p.p.p.p.p.p.p.p.p.p.p.p.p.p.r r r r i a y.a a a a a a a i i ",
"a y.a a a a a y.p.p.p.p.p.p.p.p.p.i.p.p.p.p.p.p.p.p.p.p.p.p.p.p.p.p.p.a a i i i p.p.p.p.p.p.p.p.p.p.p.p.p.p.r r r r i y.y.y.y.a a a a a a i ",
"a a a r r r r r i a i i i a i i a r r r r i i i a i i i a i i i i a i y.p.p.p.p.i i i i a y.y.y.a a y.a a y.a a a a y.p.p.p.p.y.y.a a a a a ",
"a a a r r r r i i i i i i i i i i r r r r r i i i i i i i i i i i i i y.p.p.p.p.a i i i a a a a a y.a y.a a a a a a p.p.p.p.p.y.a y.a y.a a ",
"a a a r r r r r i i i i i i i i i r r r r r i i i i i i i i i i i i i y.p.p.p.p.i i i i i a a y.a a a a y.a a a a a y.p.p.p.p.y.a a a a y.a ",
"a y.a r r r r r i i i i i i i i i r r r r i i i i i i i i i i i i i i y.p.p.p.p.i i i i i y.a a a a a a a a a a a a p.p.p.p.p.p.a a a a a a ",
"a a a i i i i i i a i i a i a i i i r i i r i r i i i a i i a y.a a a p.p.y.p.p.a i i a i a a i a a i a a a a i a i a y.y.p.y.a a i a a a a ",
"a a a p.p.p.p.p.a a a a a a a a y.a a a a i r r r r i a a a y.p.p.p.p.y.y.a a a a a a a a i i i i i i i i i i i i i i i i i i i i i i a a a ",
"y.a y.p.p.p.p.p.a y.a y.a a y.a a a a y.a r r r r r a a a a y.p.p.p.p.y.y.a a a a a a y.a i i i i i i i i i i i i i i i i i i i i i i i a a ",
"a y.a p.p.p.p.p.y.a a a a a a a a a a a a i r r r r a a w : : : 1 < f < : : : : f w a a a i i i i i i i i i i i i i i i i i i i i i i i a y.",
"a a y.p.p.p.p.p.a a a y.a a y.a a a a a a i r r r r a a w $ $ $ $ $ % % $ $ $ $ % q a a a i i i i i i i i i i i i i i i i i i i i i i i a a ",
"a a y.p.p.p.p.p.p.p.p.p.a a i i i a i i i i i i r i i i e $ $ $ $ $ $ $ $ $ $ $ $ 0 i i a i.i.p.y.p.p.y.p.p.p.i.p.y.p.p.p.y.p.y.p.y.p.y.r i ",
"a y.y.p.p.p.p.p.p.p.p.p.a i i i i i i i i i i i i q 8 8 E a.a.a.a.a.a.a.a.a.` ` ` W 8 9 u p.p.p.p.p.p.p.p.p.p.p.p.p.p.p.p.p.p.p.p.p.p.p.r r ",
"a a a p.p.p.p.p.p.p.p.p.i i i i i i i i i i i i i 8 $ $ ^ W.W.W.W.W.W.W.W.W.U.I.I.) $ $ 1 p.p.p.p.p.p.p.p.p.p.p.p.p.p.p.p.p.p.p.p.p.p.p.r r ",
"a y.a p.p.p.p.p.p.p.p.p.a i i i i i i i i i i i i < $ $ ^ W.W.W.W.W.W.W.W.W.T.I.I.) $ $ 1 p.p.p.p.p.p.p.p.p.p.p.p.p.p.p.p.p.p.p.p.p.p.p.r r ",
"a y.a p.p.p.p.p.p.p.p.p.a i i i i i i i i i t q q E Q Q ' P.I.P.P.I.I.T.T.T.U.I.I._ h h n d d ~ p.p.p.p.p.p.p.p.p.p.p.p.p.p.p.p.p.p.p.y.r r ",
"i i i i a i i a a y.a a a a y.a y.a y.y.a a < $ $ s.W.W.L.4.4.4.3.4.4.m.A.A.L.I.I.1.] ] M . . + y.y.a a y.a i i i i i i a i i r r r r r y.a ",
"i i i i i i i i a a a a y.a y.a a a a a a a < $ $ s.W.W.L.4.3.4.4.3.5.n.M.A.P.I.I.1.] ] M . . + a a a a a a i i i i i i i i i r r r r r a a ",
"i i i i i i i i a y.a y.a a a a a y.a p p y E f b d.T.T.H.5.6.6.6.6.6.A.S.S.L.P.P.9.{ } V # X - p a i a a a i i i i i i i i i i r r r r a a ",
"i i i i i i i i y.a y.a y.a a a a a a f $ $ j.W.W.C.4.4.w.A.A.A.A.A.S.P.I.I.S.A.A.e.4.4.&.] ] B     O p y.a i i i i i i i i i r r r r r a y.",
"y.a y.y.y.y.y.a a a a a a a a y.a y.a ; $ $ g.W.W.C.4.4.w.A.A.A.A.A.A.P.I.U.S.A.A.e.4.4.&.] ] B       p a y.y.y.a a y.y.y.y.y.a a a i i i i ",
"p.p.p.p.p.p.p.p.a y.y.a y.a a y.a a a ; $ $ g.W.W.C.4.4.w.A.A.C.A.M.A.I.I.I.S.A.A.e.4.4.&.] ] B     O i a y.p.p.p.p.p.p.p.p.p.p.p.p.p.p.r r ",
"p.p.p.p.p.p.p.y.a a a a a a a a a a a ; $ $ g.W.W.C.4.4.v.E.E.R.I.I.I.E.W.W.U.I.P.v.4.4.4.3.3...    O a a y.p.p.p.p.p.p.p.p.p.p.p.p.p.p.r r ",
"p.p.p.p.p.p.p.p.a y.y.a a a a a a a a ; $ $ g.W.W.C.4.4.v.W.W.W.I.I.I.W.W.W.U.I.I.v.4.4.4.4.4...    O p a y.p.p.p.p.p.p.p.p.p.p.p.p.p.p.r r ",
"p.p.p.p.p.p.p.p.a a a a a y.a a y.a a ; $ $ g.W.W.C.4.4.v.W.W.W.I.I.U.W.W.W.T.I.I.t.4.4.4.4.4...    O p a a p.p.p.p.p.p.p.p.p.p.p.p.p.p.r r ",
"p.y.y.y.p.y.y.y.a a a a a i i y f < < j.g.h.k.t.t.Z.P.P.D.t.v.t.r.r.r.F.G.G.F.S.F.1.T T } { o.] k k l * @ @ t a a a i a a i y.y.y.y.y.y.a a ",
"a a a a a a a a y.a a y.i i i y ; % f J.W.W.c.4.4.Z.W.W.L.3.3.4.4.4.5.n.A.A.A.A.A.@.S S F ] ] T S S x X     4 i i i i i i i i a a a a a a a ",
"a y.a y.a a a a y.a y.a i i i t $ $ % J.W.W.b.4.4.Z.W.W.L.4.4.4.4.4.4.n.A.A.A.A.A.+.S S G ] ] H S S N X     5 i i i i i i i i a y.a a a a a ",
"a a a a a y.a y.a a a y.a i i t % $ % J.W.W.v.4.4.N.R.R.F.4.4.5.t.t.t.M.A.A.A.A.A.@.x x S ] ] G S S N X     5 i i i i i i i i a y.y.a y.a y.",
"a a a y.y.y.p.y.y.y.y.y.i i r t $ $ % J.W.W.b.3.4.m.I.I.S.4.4.6.M.A.A.A.A.A.A.A.A./ z z A ] ] T S S N X     t d a a i a a a i a y.y.y.p.y.y.",
"a y.y.p.p.p.p.p.p.p.p.p.r r r 4 $ $ % J.W.W.v.4.4.m.I.I.S.4.4.6.M.M.A.A.A.A.A.A.M./ z z A ] ] ] S S N X     d p.p.p.p.p.p.p.p.p.p.p.p.p.p.p.",
"a a a p.p.p.p.p.p.p.p.p.i r r 4 $ $ % J.W.W.D.b.b.c.x.x.l.e.e.r.A.A.A.A.A.A.b.t.v.( z z N G H F S S N X     d p.p.p.p.p.p.p.p.p.p.p.p.p.p.p.",
"a y.y.p.p.p.p.p.p.p.p.p.i r r 4 % $ % J.W.W.W.W.W.k.] ] >.A.M.A.A.A.A.A.A.A.8.4.4.Y z z x S S S S S N X     d p.p.p.p.p.p.p.p.p.p.p.p.p.p.p.",
"y.a a p.p.p.p.p.p.p.p.p.i r r 4 $ $ % J.W.W.W.W.W.k.] ] :.A.A.A.A.A.A.A.A.A.8.4.4.Y z z x S S S S S N X     d p.p.p.p.p.p.p.p.p.p.p.p.p.p.p.",
"a a a y.a y.y.y.y.y.y.y.i r i 7 $ $ % K.E.W.T.Y.Y.z.{ { :.l.l.l.l.l.l.l.l.l.7.2.2.Y x x A F F S S S x X   . t a y.y.a y.y.y.y.p.p.p.p.p.y.p.",
"a a a i i i i i i i i i i i i t $ $ % V.I.I.t.4.4.4.4.4.*.S S S S S S S S S S S S G ] ] ] ] ] G z z l X   o 5 i i i i i i i i p.p.p.p.p.y.a ",
"a y.y.i i i i i i i i i i i i t $ $ % V.I.I.t.4.4.4.4.4.*.S S S S S S S S S S S S G ] ] ] ] ] G z z l X     5 i i i i i i i i y.p.p.p.p.a y.",
"a y.a i i i i i i i i i i i i t % $ % V.I.I.r.4.4.4.4.4.*.S S S S S S S S S S S S G ] ] ] ] ] L z l g .     5 i i i i i i i i y.p.p.p.p.y.y.",
"a a a i i i i i i a i i i i i i i i y + . o U 4.4. .S S L ] ] ] ] ] ] ] ] ] ] ] ] G S S G ] ] B . . o i i i i a a i i i i i i p.p.p.p.p.a a ",
"a a a a a a a y.p.p.p.p.i i i i i i i O     U 4.4. .S S F ] ] ] ] ] ] ] ] ] ] ] ] F S S F ] ] B     O u.p.p.p.p.p.p.y.a a a a y.y.y.y.y.a a ",
"a y.a a a a y.y.p.p.p.p.a i i i i i i O     U 4.4. .S S F ] ] ] ] ] ] ] ] ] ] ] ] F S S F ] } K     O i.p.p.p.p.p.p.p.a a a a a a a a a a a ",
"y.a y.a y.a y.y.p.p.p.p.i i i i i i y O     P -.=.[ S S F ] ] ] ] ] ] ] ] ] ] ] ] G S S | z.q.$.    O i.p.p.p.p.p.p.y.y.a y.y.a a y.y.a a a ",
"a a a a a a y.y.p.p.p.p.a i i i i i i O   . L =.=.[ S S F ] ] ] ] ] ] ] ] ] ] ] ] F S S +.A.A.$.  . O i.p.p.p.p.p.p.p.a a a a a a a a a a y.",
"a i i a y.a a y.p.y.p.p.a i i a i i i O     G =.=.[ S S F ] ] ] ] ] ] ] ] ] ] ] ] G S D +.A.F.f.  . o ~ p.p.y.p.y.p.p.y.y.y.y.y.p.y.y.y.i a ",
"r r r a a a a y.a y.a a a a a a a i i r 3 5 s s g k x x L &.&.&.&.&.&.0.0.0.0.0.0.O.H L K ! ! s 7 7 q a a a y.a a a p.p.p.p.p.p.p.p.p.p.r r ",
"r r r a a a a a a a a a a a a a a i i i i i @   . & z z J 4.4.4.4.4.5.n.A.A.A.A.A.<.] ] M .   + a a d y.y.a a y.a a y.p.p.p.p.p.p.p.p.p.r r ",
"r r r a y.a a a a y.a y.a y.a a a i i i i a @ o . & z z J 4.4.4.4.4.4.n.A.M.A.A.A.<.] ] M     + y.a y.a a a a a y.a y.p.p.p.p.p.p.p.p.y.r r ",
"r r r a a a a a a a a a y.a a a y.i i i i d 5 = @ , s $ k I I I | I I #.#.#.#.#.#.C M M s = = 6 a a a a a a y.a a a y.p.p.p.p.p.p.p.p.p.r r ",
"i i a i i a a i a i a i i a a i i i i i i i i i i 2       .                 .           2 i p i i a a i a i i i i i a a y.y.a y.a a a a a a ",
"y.a y.i i i i i i i i i i i i i i i i i i i i i i 2 .                   .     .         @ i i i i i i i i i i i i i i i i i i i i i i i a a ",
"a a a i i i i i i i i i i i i i i i i i i i i i i 3 O O o O o O O O o o + O O + O O + O 3 i i i i i i i i i i i i i i i i i i i i i i i a a ",
"y.a y.i i i i i i i i i i i i i i i i i i i i i i i i i i i i i r i i a p.p.p.p.p.p.p.p.y.i i i i i i i i i i i i i i i i i i i i i i i a y.",
"a a a i a i i i i i i i i i i i i i i i i i i i i i i i i i i i i i i y.p.p.p.p.y.p.p.p.y.i i r i i i i i i i i i i i i i i i i a y.a i a y.",
"a a a p.p.p.p.p.i i i i p.p.p.p.p.r r r r i a a a a a y.a a a i i i i i i i i i i i i i i r r r r i i i i i a a y.y.a y.a a y.p.p.p.p.p.p.p.",
"y.a y.p.p.p.p.y.i i i i i.p.p.p.y.r r r r i a a y.a a a a a a i i i i i i i i i i i i i i r r r r i i i i i a a a a a a a a a p.p.p.p.p.p.p.",
"a y.a p.p.p.p.y.i i i i i.p.p.p.y.r r r r i a y.a y.a a a a a i i i i i i i i i i i i i r r r r r i i i i i a y.a a a a a a y.p.p.p.p.p.p.p.",
"a a y.p.p.p.p.p.i i i i p.p.p.p.p.r r r r i a y.a a a a a a a i i i i i i i i i i i i i i r r r r r i i i i a a y.a y.a a a y.y.p.p.p.p.p.p.",
"a a a y.p.y.p.y.a i a i y.y.y.y.y.r i r r i a i i a a i a a i i i i i i a d i i a a i a i a a a a a a y.y.y.a a a a a i i a a a y.y.y.y.p.y.",
"a y.a y.a a a a a a a a a i i i i i i i i i i i i i i i i i i i i i i a a a a a a a a a y.p.p.p.p.p.p.p.p.p.y.a y.a a i i i i i i i i i a y.",
"y.a y.a a y.a a a a a a a i i i i i i i i i i i i i i i i i i i i i i a a a y.a a a a a y.p.p.p.p.p.p.p.p.p.y.a a a a i i i i i i i i i a y.",
"a a a a a a y.a y.a y.a i i i i i i i i i i i i i i i i i i i i i i i i a a a a a y.a y.y.p.p.p.p.p.p.p.p.p.y.y.a a a i i i i i i i i i a a ",
"y.y.a y.a a a a y.a a a i i i i i i i i i i i i i i i i i i i i i i i a a a a a a a a a y.p.p.p.p.p.p.p.p.p.a a a a a i i i i i i i i i a a ",
"i i i i i a i i i i i i i i i i i r r r r i p.p.p.y.p.p.p.y.y.a a a a a y.a y.a y.a a y.y.y.y.y.p.a a a a a i i i i i i i i i i a a a a a a ",
"i i i i i i i i i i i i i i i i i r r r r i p.p.p.p.p.p.p.p.p.a a a a a a y.a y.a a a y.a a a a a i i i i i i i i i i i i i i a a y.a y.a a ",
"i i i i i i i i i i i i i i i i i r r r r a p.p.p.p.p.p.p.p.p.y.y.a a y.a a a y.y.a a a y.a a a a i i i i i i i i i i i i i i a a a a a y.a "
};
