/* XPM */
static char *result[] = {
/* columns rows colors chars-per-pixel */
"70 70 206 2 ",
"   c #0D0E0E",
".  c #0E110F",
"X  c #0D0E10",
"o  c #0E1110",
"O  c #111512",
"+  c #141B14",
"@  c #181B17",
"#  c #1A1D1B",
"$  c #162215",
"%  c #182516",
"&  c #1B2D16",
"*  c #1C211C",
"=  c #1C2C19",
"-  c #1D3117",
";  c #1D321A",
":  c #22351D",
">  c #223A1B",
",  c #203517",
"<  c #1F2120",
"1  c #253622",
"2  c #293522",
"3  c #273923",
"4  c #2A3C26",
"5  c #2D3D2A",
"6  c #323334",
"7  c #2C5D1E",
"8  c #2E641F",
"9  c #264322",
"0  c #2B4424",
"q  c #2B4B23",
"w  c #2F4B2A",
"e  c #2E4529",
"r  c #304D27",
"t  c #31452A",
"y  c #324C2B",
"u  c #2E5323",
"i  c #2E5D22",
"p  c #305526",
"a  c #315B26",
"s  c #33532C",
"d  c #365A2C",
"f  c #3A5C2E",
"g  c #354533",
"h  c #394736",
"j  c #364A31",
"k  c #394C36",
"l  c #3D4B3B",
"z  c #375232",
"x  c #395433",
"c  c #3B5B33",
"v  c #3C543A",
"b  c #3F5D39",
"n  c #2F6421",
"m  c #316524",
"M  c #336A24",
"N  c #366129",
"B  c #3B652D",
"V  c #366A2A",
"C  c #3B6C2D",
"Z  c #3D722D",
"A  c #3E6334",
"S  c #3E6C31",
"D  c #3F6538",
"F  c #3F7133",
"G  c #405D35",
"H  c #425C3C",
"J  c #40513F",
"K  c #40752F",
"L  c #44792F",
"P  c #416535",
"I  c #426C36",
"U  c #42623C",
"Y  c #456B3A",
"T  c #496E3D",
"R  c #48653F",
"E  c #437334",
"W  c #457B34",
"Q  c #4A7C36",
"!  c #467339",
"~  c #49733C",
"^  c #477939",
"/  c #4D7B3D",
"(  c #507D3D",
")  c #3F5944",
"_  c #484A49",
"`  c #455443",
"'  c #4A5546",
"]  c #435D43",
"[  c #495C46",
"{  c #4C534C",
"}  c #4E5C4C",
"|  c #565857",
" . c #456143",
".. c #496443",
"X. c #4C6C43",
"o. c #4D644A",
"O. c #4E6C49",
"+. c #466846",
"@. c #546E4C",
"#. c #52664F",
"$. c #4D7343",
"%. c #4D7A41",
"&. c #4E7349",
"*. c #537644",
"=. c #537C45",
"-. c #53734B",
";. c #5A774E",
":. c #547B4A",
">. c #5A7D4D",
",. c #546E51",
"<. c #5B645A",
"1. c #5C6E5D",
"2. c #566752",
"3. c #5A7554",
"4. c #577E50",
"5. c #5C7C53",
"6. c #5D745A",
"7. c #5E7B5A",
"8. c #557452",
"9. c #627D55",
"0. c #61765C",
"q. c #627B5B",
"w. c #5E7460",
"e. c #696969",
"r. c #646963",
"t. c #647363",
"y. c #647A62",
"u. c #6A7D64",
"i. c #6C736B",
"p. c #6D7C6C",
"a. c #677967",
"s. c #717C6E",
"d. c #6D7870",
"f. c #747474",
"g. c #747B74",
"h. c #787C77",
"j. c #7E7E7E",
"k. c #777F7E",
"l. c #4B8237",
"z. c #52853F",
"x. c #50923F",
"c. c #4F8341",
"v. c #558443",
"b. c #55834A",
"n. c #5A844D",
"m. c #578B48",
"M. c #5D894E",
"N. c #558844",
"B. c #5C974A",
"V. c #5C8253",
"C. c #5E815B",
"Z. c #5C8A51",
"A. c #628456",
"S. c #628A54",
"D. c #64835B",
"F. c #668A5A",
"G. c #698D5D",
"H. c #69855F",
"J. c #669858",
"K. c #609A4C",
"L. c #65A154",
"P. c #648361",
"I. c #6A8264",
"U. c #6C8B62",
"Y. c #6D836A",
"T. c #6E8A6C",
"R. c #72846C",
"E. c #738B6C",
"W. c #708767",
"Q. c #6D9464",
"!. c #73966A",
"~. c #758374",
"^. c #758B73",
"/. c #7B827C",
"(. c #7C8B7B",
"). c #788578",
"_. c #769174",
"`. c #6EA160",
"'. c #77A36C",
"]. c #79A26D",
"[. c #7EBF6B",
"{. c #7DA171",
"}. c #80837F",
"|. c #82997C",
" X c #82A87A",
".X c #7F8284",
"XX c #7E8784",
"oX c #828282",
"OX c #858A85",
"+X c #858A88",
"@X c #8E8E8E",
"#X c #8E918C",
"$X c #859782",
"%X c #90938F",
"&X c #919291",
"*X c #939893",
"=X c #8DA887",
"-X c #91AB8A",
";X c #99A09A",
":X c #92C284",
">X c #9CE88A",
",X c #A1F68A",
"<X c #BCD6BF",
"1X c #C0CCC3",
"2X c #C9DACE",
"3X c #D3E3D4",
/* pixels */
"j.j.j.f.f.f.f.f.f.f.f.f.f.f.f.f.f.f.f.f.f.f.j.j.j.j.@X@X@X@X@X#X#X@X#Xk.i.i.e.e.+X@X@X@X@Xj.j.j.j.h.f.f.f.f.f.f.f.f.f.f.f.f.f.f.f.f.f.f.j.oX",
"j.oXj.f.f.f.f.f.f.f.f.f.f.f.f.f.f.f.f.f.f.j.OX}.R.0.I.R.Y.~.XXXX@X+XXXU.D.C.7.8.] ] D.#X@Xj.j.j.oXf.f.f.f.f.f.f.f.f.f.f.f.f.f.f.f.f.f.f.j.j.",
"j.j.j.j.j.j.j.oXOX@X+X+XoX+XoX@X@X+XOX@X+X@Xs.u.I 8 m Y F 6.a.Y.XXXXY.V.n.>.>.$.x x $.U.@X@XOX@X@X@XOX+X@XoXe.e.e.e.f.j.j.j.f.j.j.j.j.j.j.f.",
"oXj.oXj.j.j.j.oX@X@X@X@X&X@X@X@X@X@X@X@X@X&XR.u.I 8 m I F 7.w.w.XXk.Y.b.n.:.:.-.o.#.>.*.>.@X@X@X@X@X@X@X@X@Xe.e.e.e.f.j.j.j.j.j.j.j.j.j.f.f.",
"j.j.j.oXj.j.j.OX@X&X@X&X&X&X@X&X@X@X@X@X&X%XO.D E ! E C Z ~ :.&.H G T z.v.~ ~ 5.oXoX0.>.T |.@X@X@X@X@X&X@X@Xe.e.e.e.f.j.j.j.oXj.j.oXj.j.f.f.",
"j.j.j.j.oXj.j.OX@X@X@X@X@X@X&X@X@X@X@X&X@X&XD i I %./ Z Z ^ %.$.G x T z.z.~ ~ 5..XoX1.5.;.#X@X@X@X@X@X@X@X@Xe.e.e.e.f.j.j.j.j.j.j.j.j.j.f.f.",
"oXj.oXj.j.j.j.oX@X@X&X@X@X@X@X@X@X@X@X@X+X#XY a A I S N d $.:.:.G x c f f x x #.OXoX0.>.D.%X@X@X@X@X@X@X@X@Xe.e.e.e.f.oXoXoXoXoXj.oXoXj.f.f.",
"j.j.j.e.e.e.e.e.f.f.f.f.f.f.f.f.f.e.e.e.e.h./ Z u > , 2 3 O.P.C.H G w = & 2 4 ' +XOX).9.9.OXoXoXoXj.oXj.j.j.j.j.j.h.oX@X@X@X@XoXj.j.j.j.j.oX",
"j.j.j.e.e.e.e.e.f.f.f.f.f.f.f.f.f.e.e.e.r.f./ Z q , , 2 2 o.P.D.H P e = = 3 3 ' +X+X).>.@.}.}.j.j.j.oXj.j.j.j.j.j.j.oX&X&X&X@XoXj.j.j.j.j.oX",
"j.oXj.e.e.e.e.e.f.f.f.f.f.f.f.f.f.e.e.e.r.f.%.W 7 = , $ $ b >.:.P A 0 O O = = g D.9.Y.:.-.}.oXj.oXj.j.j.oXj.j.j.j.j.oX@X&X@X&XoXoXj.oXj.j.j.",
"oXj.j.e.e.e.e.e.f.f.f.f.f.f.f.f.f.e.r.e.e.f.>.Q r & = .   s ( Q I B 9     $ $ e >.:.U.M.}.}.j.oXj.j.j.j.j.j.j.j.j.j.oX&X@X@X@XoXj.j.oXj.j.j.",
"j.j.j.f.f.f.f.f.f.j.f.j.j.f.f.f.f.f.e.f.e.f.b.Q r = =     y ( / C B 9 . o % % t =.b.U.S.}.oXj.h.j.j.j.f.j.j.j.f.j.j.j.oXoXoX@XoXf.j.j.j.oXj.",
"j.j.j.@X@X&X@X@Xj.j.j.j.j.j.j.oXj.oXj.oX.Xg.D.n.$.P Y 3.7.z ; - , , ` ~.d.x x P ( / D.G.|.h.f.f.f.f.f.f.f.f.f.f.f.f.f.f.f.f.f.f.f.f.f.f.j.j.",
"oXj.j.&X@X@X@X@XoXj.oXj.j.j.j.j.j.j.j.j..Xf.y.7.*.! ~ D.D.z - & ; ; ` ).Y.x s D z./ D.H.U.h.f.f.f.f.f.f.f.f.f.f.f.f.f.f.f.f.f.f.f.f.f.f.oXj.",
"j.j.oX@X@X@X@X@Xj.j.oXj.oXj.j.oXj.j.j.j.j.f.I.D.*.Y T 3.3.t & % = * h 1.1.D A $.>.4.P.G.G.h.f.f.f.f.f.f.f.f.f.f.f.f.f.f.f.f.f.f.f.f.f.f.j.j.",
"j.oXj.@X@X@X@X@Xj.j.j.j.j.j.j.j.j.j..Xj.j.f.R.u.@.G b 3 2 @     X X $ ; > c.c.V.).~.W.q.U.h.f.f.f.f.f.f.f.f.f.f.f.f.f.f.f.f.f.f.f.f.f.f.oXj.",
"oXj.j.@X@X@X&X@X@X@X@X@Xj.f.f.f.f.j.f.f.f.f.j.i.@.G G 3 2 @   X X X $ ; ; z.z.V.).).W.9.W.@X+X+XoX@X@XoX@XoX@XoX@XoX@XoX@X@XoX@X@X@XoXoXf.e.",
"j.j.oX@X@X&X@X@X@X&X@X@Xj.f.f.f.f.f.f.f.f.f.}.h.6.H ] $ @ o     X . . O % ~ ^ X...o.0.0.R.&X@X@X@X@X@X@X@X&X@X@X@X&X&X@X@X@X@X@X&X@X@X@Xe.e.",
"oXj.oX@X@X&X@X&X&X@X@X@Xj.f.f.f.f.f.f.f.f.f.}._.q.[  .O . o       X .   O ! ! Y c c 0.;.}.%X@X&X@X@X@X@X&X@X@X@X@X@X@X@X@X@X@X@X@X@X@XoXe.e.",
"j.j.j.@X@X@X@X@X@X@X@X@Xf.f.f.f.f.f.f.f.f.g.(.E.q.o. .+ . o + @ # @ O . O Y I Y P P q.>.}.%X&X@X&X@X@X@X@X&X@X@X&X@X&X@X@X@X@X@X@X@X@X@Xe.e.",
"j.j.j.@X@X@X@X@X@X@X@X@Xj.f.f.f.h.f.f.f.f.f.D.z.b.M.b.= % x 3.7.y.y.J = - s s D / / A.E.W.@X@X@X@X@X@X@X@X@X@X@X@X@X@X@X@X@X@X@X@X@X@XoXe.e.",
"f.f.f.f.f.f.f.f.oXj.j.j.j.j.oXj.oXj.oXj.}.h.H.z.N.n.M.= % v q.q.p.Y.[ - ; s s S ( *.A.E.~.oXj.}.oXj.j.oXj.j.f.f.f.f.f.f.f.f.f.e.e.e.e.e.j.j.",
"f.f.f.f.f.f.f.j.j.j.j.j.oXj.oXj.j.j.j.j.j.j.R.W.b.V.v.s e v ,.Y.s.,.k 0 w A D $.=.=.V.A.~.j.j.j.j.j.oXj.j.j.f.f.f.f.f.f.f.f.f.e.e.e.e.e.j.oX",
"f.f.f.f.f.f.f.f.oXj.j.oXj.j.j.j.oXj.j.j.j.h.f.j.n.>.^ E D j [ )./.J q f ~ ~ :.:.n.V.5.n.s.j.oXj.j.j.j.j.oXj.f.f.f.f.f.f.f.f.f.e.e.e.e.e.j.j.",
"f.f.f.f.f.f.f.f.oXj.oXj.j.j.j.j.j.oXj.j.j.j.f.j.[ H T ! P v  ..X}.v 0 s P Y >.5.4.:.-.5.g./.j.oXj.oXj.oXj.j.f.f.f.f.f.f.f.f.f.e.e.e.e.e.j.oX",
"oXoXoXj.oXoXoXj.j.j.j.j.oXj.j.oXj.j.j.j.j.h.f.f.2 : Y ~ D c o.+XOXl 2 0 y j I.E.-.p A 7.h.}.j.j.j.j.j.j.j.oXoXoXoXoXoXoXoXoXoXj.j.j.f.f.f.f.",
"@X@X@X@X@X@X@X@Xj.oXoXj.j.j.j.oXj.j.oXj.j.j.f.f.2 1 P ~ Y c o.OXOXl 3 4 t y I.T.@.u A 3./.j.j.j.j.oXj.j.oXoX@X@X@X@X@X@X@X@X@X@X@X@X@X@Xe.e.",
"@X@X@X@X@X@X@XoXj.j.j.j.oXj.j.j.j.oXj.j.j.j.f.f.4 : ` [ R ! ~ =.*.N 7 u s s b ) o.3.5.O.h./.j.oXj.j.j.oXj.j.&X@X@X@X@X@X@X@X@X@X@X@X@X@Xe.e.",
"&X@X@X@X@X@X@X@Xj.oXj.oXj.j.j.j.oXj.oXj.j.h.f.f.5 : ` {  .^ W L F m 8 n a u 9 9 } R.R.O.j.j.j.j.j.j.j.j.j.oX@X@X@X@X@X@X&X@X@X&X@X@X@X@Xe.e.",
"@X@X@X@X@X@X@X@Xj.j.j.j.oXj.j.oXj.j.j.oXj.j.f.f.! B h g k N B K Z V V N N a q 9 H 0.u.;.j.j.oXj.oXj.j.oXoXoX@X@X@X@X@X@X@X&X&X@X@X@X@X@Xe.e.",
"oXoXoXoXoXoXoXoXj.j.j.j.f.f.f.f.f.f.h.f.f.f.f.f.z.l.e 4 0 q p C Z F ! F M M n n q : j 0.f.f.f.f.j.f.f.f.f.f.f.j.j.f.f.j.j.f.j.j.oXoXoXoXj.j.",
"oXoXj.oXoXoXj.j.j.oXj.oXj.f.f.f.f.f.f.f.f.f.f.f.N.l.y 5 0 q p B C F F S M m n n q , j | e.f.f.f.f.f.f.f.f.f.f.f.f.f.f.f.f.f.f.j.j.j.j.j.j.j.",
"j.j.j.j.j.j.j.j.j.j.j.j.f.f.f.f.f.f.f.f.f.f.f.f.-.$.] v j q q q q n n n n n V Z s j k x e.g.f.f.f.f.f.f.f.f.f.f.f.f.f.f.f.f.f.j.j.oXj.oXj.j.",
"oXj.oXj.j.oXj.oXj.oXj.oXf.f.f.f.f.f.f.f.f.f.f.f.-.$.) v z 0 0 9 9 i 8 n n M V Z c k k c i.f.f.f.f.f.f.f.f.f.f.f.f.f.f.f.f.f.f.j.oXoXj.j.j.j.",
"j.j.j.oXoXoXoXoXoXoXoXoXf.f.e.f.f.f.j.j.h.f.f.f.$.T 3.3.O.A A U  .m i 7 8 n F C P H H / h.j.f.j.h.h.f.j.j.f.f.j.j.f.j.f.j.f.f.oXoXoXoXoXoXoX",
"j.j.oX&X@X@X&X@X&X@X@X@Xf.e.e.e.e.@X@X@X@XoXf.f.~ Y 9.P.V.E / 7.V.N 7 7 8 n S S $.5.:.=.#X%X@X%X@X@X@X@X@X@X&X&X@X@X@X&X@X&X@X&X@X@X&X@X@X@X",
"oXj.oX@X@X&X@X@X@X@X@X&Xf.e.e.e.f.@X@X@X@XoXf.f.;./ O.O.X.S ~ 7.V.B i n 7 n S S *.V.:.M.@X@X&X@X@X@X@X@X&X@X@X@X@X@X@X&X@X@X@X&X@X@X@X@X@X@X",
"j.j.j.@X@X@X@X&X@X&X@X@Xe.e.e.e.e.@X&X@X@XoXf.f.9.9.f r r s c b.>.Q L B r s ' ' -.>.-.F.#X@X@X@X@X&X&X@X@X&X&X@X&X&X@X@X&X@X@X@X&X@X&X@X&X@X",
"j.j.oX@X@X&X@X@X@X@X@X&Xf.e.e.e.e.@X@X&X@XoXf.f.9.;.G r q s c >.n.Q L B w s ' ' @.5.*.V.#X@X&X&X@X@X@X@X@X@X@X@X@X&X@X@X@X@X@X&X@X@X@X@X@X@X",
"j.j.j.oXj.oXj.oXoXj.oXj.f.f.e.f.f.j.j.oXj.h.f.f.| { i.).~.H.D.A.A./ W E D D ' ' ..T X.>.OXOXoXOX+XoXoXj.oXoXoXj.oXoXj.oXoXj.j.@X@X&X@X@XoX@X",
"oXj.j.f.f.f.f.f.f.f.f.f.f.f.f.f.f.f.f.f.f.f.f.f.| { d.XX^.I.U.D.D./ W ~ $.T ` ) s p f ;./.j.j.j.oXj.f.f.f.f.f.f.f.f.f.f.f.f.f.oX@X@X&X@XoXj.",
"j.j.j.f.f.f.f.f.f.f.f.f.f.f.f.f.f.f.f.f.f.f.f.f.{ ` v b X.b.n.D.D.b.%./ ~ T [ [ z q s [ j.j.j.}.j.f.f.f.f.f.f.f.f.f.f.f.f.f.f.@X@X@X@X@XoXj.",
"oXj.oXf.f.f.f.f.f.f.f.f.f.f.f.f.f.f.f.f.f.f.f.f.} ` y w d Q z.D.D.V.V.*.T X.u.u.G q r [ }.j.j.j.j.f.f.f.f.f.f.f.f.f.f.f.f.f.f.oX@X@X@X@Xj.j.",
"j.j.j.f.f.f.f.f.f.f.f.f.f.f.f.f.f.f.f.f.f.f.f.f.3.o.s q p K ! A.D.V.V.:.Y X.u.P.G q r 5.}.j.oXj.oXf.f.f.f.f.f.f.f.f.f.f.f.f.f.oX@X@X@X@XoXj.",
"j.oXj.j.j.j.j.oX@X@X@X@Xf.f.f.f.f.f.f.f.f.j.@X@XH.>.c q q 9 s q.q.V.>.X.f c 7.C.X.G G S.}.@X@X@X@X@X@X@X@X@X@X@X@X@XoXj.oXj.j.oXoXoXoXoXj.j.",
"j.j.j.oXoXj.oXoX@X@X@X@Xj.f.f.f.f.f.f.f.f.oX@X@X5.*.d q q 9 w D.D.7.9.T d c V.C.*.Y Y b.j.@X@X%X@X@X@X@X&X@X@X@X@X@X@Xj.oXj.j.j.j.j.j.j.j.j.",
"j.oXj.j.j.j.j.oX@X&X@X@Xf.f.f.f.f.f.f.f.f.oX@X@XR p B C A ` ` { o.0.I.-.c c O.&.! Y ~ b.=X*X%X@X&X@X@X@X@X@X@X&X@X@XoXoXoXj.j.j.j.oXj.j.j.j.",
"j.j.j.j.oXoXoXoX@X&X@X@Xj.f.f.f.f.f.f.f.f.oX@X&XX.d B C A ` ` ` ' t.s.0.b D x x S Z / b.-X$X%X%X@X@X&X@X&X@X@X@X@X@X@Xj.j.j.j.oXj.j.oXj.oXj.",
"f.f.f.oXj.j.j.oX@X@X@X@Xf.f.j.f.f.f.f.f.f.j.@X@XD.*.~ E ~ 1.2.g g 3.I.3.+.D x x S Z %.=.F.@XOX@X@X@X@XoX@X@X@X@XoX@X@Xj.oX@Xj.oXoXoXoXoXj.f.",
"e.e.e.oXoXj.oXj.j.j.j.oXj.j.j.oXj.f.f.f.f.h.j.j.H.:.^ E %.I.6.1 1 $.m.b.l./ c f 3.D.I.-.n.}.j.oXj.oXj.j.j.j.j.j.j.j.oX@X@X@X@X@X@X@X&X@Xe.e.",
"e.e.e.j.j.j.j.j.j.j.j.j.j.oXj.oXj.f.f.f.f.f.j.*X XZ.F.F.Q.T.U.U x &.m.m.b.c.A c 3.q.I.p.9./.j.j.oXj.j.oXj.j.j.oXj.j.oX@X@X&X@X@X@X@X@X@Xe.e.",
"e.e.e.j.j.oXj.oXj.j.j.j.j.j.j.j.j.f.f.f.f.k.+X1X3X Xn.F.'.].].!. X_.T.G.!.!.Q.Q.Q.Q.^./.>.}.j.j.j.j.j.j.oXj.j.j.j.j.@X@X@X@X@X&X@X@X@X@Xe.e.",
"e.e.e.j.j.j.oXj.oXoXoXoXj.oXoXoXj.f.f.f.f.;X2X<X>X,X[.B.B. X=X Xp.~.!.Z.n.J.`.{.{.].E./.;./.j.j.j.j.oXoXj.j.oXj.j.j.oX@X@X@X@X@X@X@X@X@Xe.e.",
"f.f.j.f.j.f.f.f.f.f.f.f.f.f.f.f.f.f.f.f.f./ / c.N.B.Z.%.U.$X=X(.$X!.L.L.K.B.J.-X-X!.n.5.A.f.f.j.j.f.f.f.j.f.f.f.f.f.j.j.j.j.j.j.j.j.j.f.f.j.",
"j.oXj.f.f.f.f.f.f.f.f.f.f.f.f.f.f.f.f.f.f.Z 8 M M V v v t.k.y.8 M V Z F U +.Y.$X|.>.*.:.M.h.f.f.f.f.f.f.f.f.f.f.f.f.f.f.f.f.f.f.f.f.f.j.oXj.",
"j.j.j.f.f.f.f.f.f.f.f.f.f.f.f.f.f.f.f.f.f.F 8 M M V v v t./.y.8 8 M M V l v t.h.).b.:.>.S.f.f.f.f.f.f.f.f.f.f.f.f.f.f.f.f.f.f.f.f.f.f.f.j.j.",
"j.j.oXf.f.f.f.f.f.f.f.f.f.f.f.f.f.f.f.f.f.D 8 n n m U H a.oXa.8 8 M M V v v t./.g.5.=.>.A.h.f.f.f.f.f.f.f.f.f.f.f.f.f.f.f.f.f.f.f.f.f.f.oXj.",
"j.oXj.f.f.f.f.f.f.f.f.f.f.f.f.f.f.f.f.f.f.A 8 8 n m H U a.oXa.8 8 8 m m D b d..Xj.;.x j A.f.f.f.f.f.f.f.f.f.f.f.f.f.f.f.f.f.f.f.j.f.f.f.j.oX",
"oXj.j.@X@X&X@XoXf.f.f.f.@X@X@X&X@Xe.r.e.r.P a @.I.q.~ ! 7.p.7.8 8 m m n U b p..X}.9.4 < A.e.e.e.e.f.f.f.f.f.j.oXoXoXj.oXj.j.oX@X@X@X@X@X@X@X",
"j.j.oX@X&X@X@X@Xf.f.f.f.@X&X@X@XoXe.e.e.e.U i ,.^.Y.( ( / %.! a i 7.Y.P.~ / 5.q.u.W.e = u.e.e.e.e.f.f.f.f.f.j.j.j.j.j.j.j.j.j.@X@X&X@X&X&X@X",
"oXj.j.@X@X@X@XoXf.f.f.f.oX@X@X@X@Xe.e.e.e.n.^ O.6.w.=.z./ %.^ a a w.~.Y.l.( / %.=.W.s : e.e.e.e.e.f.f.f.f.f.j.j.oXj.j.oXj.j.j.@X&X@X&X@X@X@X",
"j.j.oX@X@X@X@X@Xf.f.f.f.@X@X@X@XOXe.r.e.e.F.m.&.] ] =.=.*.*.*.c.c.&.1.w.( ( / %.=.S.9.<.f.e.e.e.e.e.f.f.f.f.j.oXj.j.j.j.j.j.j.@X&X&X@X@X&X@X",
"j.j.j.@X@XoX@XoXf.f.j.j.oXoXoXoXj.f.d.e.i.8.~ D v ) =.:.:.*.*.m.m.+.] ] >.v.=.*.;.A.f.j.f.j.j.f.j.j.j.j.j.oXoXj.j.j.j.f.f.j.f.oXoXoXoXoX@XoX",
"j.j.j.j.j.j.j.j.j.oXj.oXf.f.f.f.f.f.f.f.f.l ; % + * 0 y y y c ^ / ] )  .=.v.*.*.;.9.j.j.oX@X@X@X@X@X@X@X@X@XoXj.j.oXj.f.f.f.f.f.f.f.f.f.j.j.",
"oXj.j.j.j.j.j.j.oXj.j.j.j.f.f.f.f.f.f.f.f.6 < @   . = = + . O - - O . + > e 9 e H 9.^.j.oX&X@X&X@X@X&X@X@X@XoXj.j.j.j.f.f.f.f.f.f.f.f.f.j.j.",
"j.j.oXj.j.oXj.oXj.j.j.oXf.f.f.f.f.f.f.f.f.6 O @ $ $ + $ + O + & - O   O & - O   < 9.~.j.oX&X@X@X&X@X@X@X&X@XoXj.j.oXj.f.f.f.f.f.f.f.f.f.j.j.",
"oXoXj.oXj.j.j.j.oXj.j.j.f.f.f.f.f.f.f.f.f.6 X @ - &     $ & % . O $ $ @ $ % O . # 9.}.j.oX&X@X&X@X@X@X@X@X@XoXj.oXj.f.f.f.f.f.f.f.f.f.f.j.oX",
"f.f.f.f.f.f.j.f.f.f.f.f.f.f.f.f.f.e.e.e.e.e.e._ J 5 * @ $ - % . X % - % .   % - - u.}.j.j.oXoXoXoXj.j.f.f.j.f.f.f.f.f.f.f.f.f.f.j.j.j.j.j.j.",
"f.f.f.f.f.f.f.f.f.f.f.f.f.f.f.f.f.e.e.e.e.f.@X@X&X@XOXoXh.g.r.{ _ J h 5 < @ * = : f.}.j.j.j.j.oXj.h.f.f.f.f.f.f.f.f.f.f.f.f.f.j.j.j.j.j.j.j.",
"f.f.f.f.f.f.f.f.f.f.f.f.f.f.f.f.f.e.e.e.e.j.@X@X@X@X@X@X%X@X@XoXj.j.j.oXf.e.r.<.<.j.j.j.j.j.j.}.j.f.f.f.f.f.f.f.f.f.f.f.f.f.f.j.oXj.oXj.j.oX"
};
