/* XPM */
static char *nl1674743339[] = {
/* columns rows colors chars-per-pixel */
"70 70 235 2 ",
"   c #010201",
".  c #050B04",
"X  c #0B0E0B",
"o  c #081606",
"O  c #0C1B0A",
"+  c #0A1609",
"@  c #141813",
"#  c #101A0F",
"$  c #0D240A",
"%  c #072006",
"&  c #112C0D",
"*  c #10210E",
"=  c #13340E",
"-  c #13390F",
";  c #152B13",
":  c #163B11",
">  c #193B14",
",  c #1A3416",
"<  c #21391D",
"1  c #273D25",
"2  c #353635",
"3  c #035103",
"4  c #0E540C",
"5  c #1B4216",
"6  c #1D4419",
"7  c #184B15",
"8  c #195517",
"9  c #10550F",
"0  c #214C1C",
"q  c #22431E",
"w  c #24541E",
"e  c #235B1D",
"r  c #027902",
"t  c #097808",
"y  c #117B0E",
"u  c #137B12",
"i  c #187616",
"p  c #0D6B0C",
"a  c #25641D",
"s  c #28661F",
"d  c #21761F",
"f  c #244522",
"g  c #244B23",
"h  c #294A26",
"j  c #2C462A",
"k  c #2C4B2B",
"l  c #284224",
"z  c #314D2E",
"x  c #295126",
"c  c #275B21",
"v  c #2B5B24",
"b  c #2F5B29",
"n  c #2B5427",
"m  c #32542D",
"M  c #325C2C",
"N  c #334331",
"B  c #334E32",
"V  c #3A4938",
"C  c #355332",
"Z  c #365C32",
"A  c #395D33",
"S  c #3E563C",
"D  c #3D5C39",
"F  c #395635",
"G  c #2C6325",
"H  c #296825",
"J  c #33642C",
"K  c #326A2B",
"L  c #38632F",
"P  c #2B7525",
"I  c #2B7826",
"U  c #327C2C",
"Y  c #34762C",
"T  c #366132",
"R  c #3B6335",
"E  c #3B6B35",
"W  c #3F633B",
"Q  c #3D6C3B",
"!  c #376F32",
"~  c #3C7334",
"^  c #3E743A",
"/  c #3A7A34",
"(  c #41593E",
")  c #43643D",
"_  c #43693D",
"`  c #406C37",
"'  c #427B3C",
"]  c #40743C",
"[  c #425A41",
"{  c #4B5C49",
"}  c #485447",
"|  c #4D524C",
" . c #466442",
".. c #4A6545",
"X. c #456B41",
"o. c #4C6946",
"O. c #4D644A",
"+. c #4D6949",
"@. c #51644E",
"#. c #526A4E",
"$. c #457443",
"%. c #4A7C43",
"&. c #4A7746",
"*. c #527C4C",
"=. c #546552",
"-. c #566A52",
";. c #5B645A",
":. c #5D6C5B",
">. c #596A56",
",. c #587654",
"<. c #616B5E",
"1. c #61755D",
"2. c #656664",
"3. c #646A64",
"4. c #696969",
"5. c #696B67",
"6. c #6D726C",
"7. c #697967",
"8. c #747474",
"9. c #757A74",
"0. c #7E7E7E",
"q. c #787C77",
"w. c #70706F",
"e. c #178214",
"r. c #24861E",
"t. c #07A307",
"y. c #13A412",
"u. c #2B8624",
"i. c #34832B",
"p. c #378C2D",
"a. c #39922B",
"s. c #3C8434",
"d. c #3A8B33",
"f. c #30992C",
"g. c #3BA834",
"h. c #44843B",
"j. c #45893A",
"k. c #4A953F",
"l. c #46973A",
"z. c #45AB39",
"x. c #49B93A",
"c. c #4AC03A",
"v. c #4B8443",
"b. c #458C41",
"n. c #4C8C43",
"m. c #4B8646",
"M. c #53834C",
"N. c #548C4C",
"B. c #528948",
"V. c #4D9442",
"C. c #4E9846",
"Z. c #519346",
"A. c #54934B",
"S. c #549D4C",
"D. c #599D4C",
"F. c #539847",
"G. c #5A8354",
"H. c #598C53",
"J. c #5D8C59",
"K. c #5A8657",
"L. c #5C9453",
"P. c #5E9C59",
"I. c #5A9854",
"U. c #63885D",
"Y. c #62935B",
"T. c #639A5C",
"R. c #649A5A",
"E. c #57A84C",
"W. c #4DB747",
"Q. c #5BBB4E",
"!. c #54B647",
"~. c #5AA654",
"^. c #58B951",
"/. c #62A65D",
"(. c #66B958",
"). c #6A8A66",
"_. c #6B9B63",
"`. c #6A9765",
"'. c #72946D",
"]. c #739A6C",
"[. c #748C72",
"{. c #7E827D",
"}. c #778676",
"|. c #759371",
" X c #789473",
".X c #7C9B78",
"XX c #708E6C",
"oX c #6BA665",
"OX c #73A76C",
"+X c #75BA69",
"@X c #7AA776",
"#X c #7BB772",
"$X c #6EB964",
"%X c #5AC24A",
"&X c #68C558",
"*X c #70CC5E",
"=X c #69D258",
"-X c #76C867",
";X c #75D365",
":X c #7CC673",
">X c #6EC262",
",X c #82967E",
"<X c #81AF7C",
"1X c #89CC7E",
"2X c #85CA7B",
"3X c #81D271",
"4X c #828282",
"5X c #858B84",
"6X c #8E8E8E",
"7X c #8D918C",
"8X c #889886",
"9X c #969895",
"0X c #89A887",
"qX c #91A68D",
"wX c #8AB384",
"eX c #91B78B",
"rX c #97AD95",
"tX c #A2B49F",
"yX c #A4B0A3",
"uX c #8BC882",
"iX c #94CA8A",
"pX c #8BD182",
"aX c #93D288",
"sX c #9BC993",
"dX c #9AD192",
"fX c #A3CC9B",
"gX c #A3D19B",
"hX c #A9C8A5",
"jX c #ACD5A5",
"kX c #B6CBB4",
"lX c #B9D7B3",
"zX c #B2D3AC",
"xX c #C3D9BF",
"cX c #C8CEC6",
"vX c #CCD8CB",
/* pixels */
"0.0.0.8.8.8.8.8.8.8.8.8.8.8.8.8.8.8.8.8.8.8.0.0.0.0.6X6X6X6X9X6X6X6X6Xq.4.4.4.4.6X6X6X6X6X0.0.0.0.q.8.8.8.8.8.8.8.8.8.8.8.8.8.8.8.8.8.8.0.0.",
"0.4X0.8.8.8.8.8.8.8.8.8.8.8.8.8.8.8.8.8.8.0.0.0.4X0.6X6X6X6X6X6X6X7X].U.3.4.4.4.6X6X6X9X6X0.0.0.0.8.8.8.8.q.8.8.8.8.8.8.8.w.8.8.8.8.8.8.4X0.",
"0.0.0.0.0.0.0.4X4X6X4X6X4X6X4X6X4X6X6X6X4X6X6X6X6X6X6X6X6X6X6X6X[.V.g.z.$X|.6.w.6X6X6X6X6X6X6X6X6X6X4X6X4X4Xw.4.4.4.8.0.0.0.0.0.0.0.0.0.8.8.",
"0.0.4X0.0.0.4X4X6X6X6X6X6X6X6X6X6X6X6X6X6X6X6X6X6X6X6X6X6X6XOX!.z.a.d.C.+XsXfX8X6X6X9X6X6X6X6X6X6X6X6X6X6X6X4.4.4.4.8.0.0.0.0.0.0.0.0.0.8.8.",
"4X0.0.0.4X0.0.5X6X6X6X6X6X6X6X6X6X6X6X6X6X6X6X6X6X6X6X7X@X$X&Xc.%Xg.z.E.-X2XaXdXsXrX7X6X6X6X6X6X6X6X6X6X6X6X4.4.4.4.8.0.0.0.0.0.0.4X0.0.8.8.",
"0.0.0.0.0.0.0.5X6X6X6X6X6X6X6X6X6X6X6X6X6X6X6X6X6X6X[.E.W.W.!.Q.%XE.C.S.$X=X=X;XdXhXsX X7X6X6X7X6X6X6X6X6X6X4.4.2.4.8.0.0.0.0.0.0.0.0.0.8.8.",
"4X0.0.0.0.0.0.4X6X6X6X6X6X6X6X6X6X5X6X5X6X6X6X6XrX0Xb.b.W.x.!.uX#XI.~.&X*X*X&X;X>X/.Z.A.wXtX9X6X6X6X6X6X6X6X4.4.4.4.8.4X4X4X4X0.0.4X4X0.8.8.",
"0.0.4X4.4.4.4.4.8.8.0.8.8.8.8.0.8.w.4.w.4.6.)./.uXfXsX:XQ.-XsXzXzXgX-X%XQ.(.#XhXhX/.@XzXlXdX+X].0.0.4X0.0.0.0.0.0.0.4X6X6X6X6X4X0.0.0.0.0.4X",
"4X0.0.4.2.4.4.w.8.8.8.8.8.8.8.8.8.4.2.4.2.w.`.^.^.&X:XW.y.W.#X~.OXhX:X^./.iXlXvXjX3XaXgX_.S.E.' 4.0.0.0.0.0.0.0.0.0.4X6X6X6X6X6X0.0.4X0.4X0.",
"0.0.0.4.4.4.4.4.8.8.8.8.8.8.8.8.8.4.4.4.4.6.|.b.r.f.t.t.t.z.W.#XxXvXhXeXcXcXdX:X;X*X=X=XE.E J M 3.0.0.0.0.0.0.0.0.0.6X6X6X6X6X4X0.0.0.0.0.0.",
"0.0.4X4.2.4.4.4.8.8.8.8.8.8.8.8.8.4.4.4.4.3.^ s.e.u.f.f.y.^.jXcXkXeX`.@XkXsX-X-X&X(.E.s.h J A -.9.{.0.0.0.0.0.0.0.0.4X6X6X6X6X4X0.4X0.4X0.0.",
"4X0.0.8.8.8.8.8.0.8.8.0.0.8.8.8.9.w.w.w.w.3.P U d.i.s.[.@XcXvX0XP.J.J.0XcXkX$X/.E.I 9 0 k M ..6.9.0.0.0.0.0.0.0.0.0.0.4X4X4X6X0.0.8.0.0.4X0.",
"0.0.4X6X6X6X6X6X0.0.0.0.0.0.0.0.4X0.0.4X0.7.i.U b.i.d.).8X9X_.L.0XhX<XJ.`.P.I.m.3 3 4 M =.R  .5.w.8.8.8.8.8.8.8.8.8.8.8.8.8.8.8.8.8.8.8.0.0.",
"0.0.0.6X6X6X6X6X0.4X0.4X0.0.0.4X0.0.0.0.0.7.p.d c I i.C.J.{.T./.@XeXoXA.N.$.X. .3 3 3 T @.C S 2.w.8.8.8.8.8.8.8.8.8.8.8.8.8.8.8.8.8.8.8.0.0.",
"0.0.4X6X6X6X6X6X0.4X0.0.0.0.0.0.4X0.0.0.0.7.d.H > f M A.v.E F.D.I.$.^ / T T  .O.3 3 3 h j k S 2.w.8.8.8.8.8.8.8.8.8.8.8.8.8.8.8.8.8.8.8.0.0.",
"0.4X0.6X6X6X6X6X0.0.0.0.4X0.4X0.0.0.0.0.{.9.p.H : , B `.N.E C.k.m.&.Q K H k { ;.3 9 4 q N { 3.4.w.8.8.8.8.8.w.8.8.8.8.8.8.8.8.8.8.8.8.8.0.0.",
"0.4X4X6X6X6X6X6X6X6X6X6X0.8.8.8.8.8.8.0.8.8.N.K : . ; R.K._ J h.j.[.}.R m f { =.8 9 8 ( @.:.<.-.9.5X6X4X6X6X5X6X4X6X6X6X4X6X4X6X6X4X6X4Xw.w.",
"0.0.4X6X6X6X6X6X6X9X6X6X8.8.8.8.8.8.8.8.8.8.`.N.J # # k.b.^ q > m [.9X .C { =.O.8 L 3.<.-.o.) o.}.6X6X6X6X6X6X6X6X6X6X6X6X6X6X6X6X6X6X6X4.4.",
"0.0.0.6X6X6X6X9X6X6X6X6X0.8.8.8.8.8.8.8.8.9.'.N.h.`._ h.j.i.& & l 6.9X[ S 4.=.R H X.5.#.` R ) #.4X6X6X6X6X6X6X6X6X6X6X6X6X6X6X6X6X6X6X6X4.4.",
"4X0.0.6X6X6X6X6X6X6X6X6X0.8.8.8.8.8.8.8.8.9.|.K.' H.U.5 e P o . , 7.9XS [ 4._ K G ..5.o.E R ) :.4X6X6X6X6X6X6X6X6X6X6X6X6X6X6X6X6X6X6X6X4.4.",
"0.0.0.6X6X6X6X6X6X6X6X6X0.8.8.8.8.8.8.8.8.q.,XK.Q j F = : : } @ & E XX` ) 4._ L A ..4.O.T T ) <.{.6X6X6X6X6X6X6X6X6X6X6X6X6X6X6X6X6X6X4Xw.4.",
"8.8.8.8.8.8.8.0.0.4X0.0.0.4X4X0.4X0.0.,X0.{.0XXX$.1 <   o & }.}.x ~ A.~ ` 4.#.` A O.w.o.T -.3.2.8.{.0.4X0.0.8.8.8.8.8.8.8.8.8.w.4.4.2.4.0.0.",
"8.8.8.8.8.8.8.8.0.0.0.0.0.0.0.0.0.0.0.0.0.}.T.).&.+ #       F ).J h.k.J A 4...M A @.5.) Z 4.4.} 6.0.{.0.0.0.8.8.8.8.8.8.8.8.8.4.4.2.4.4.0.0.",
"8.8.8.8.8.8.8.8.0.4X0.0.4X0.4X0.0.4X0.0.0.}.k.S.H.+         = 0 j.j.l.v A 3.S g A F B m Z 3.=.k 3.0.0.0.4X0.8.8.8.8.8.8.8.8.8.4.4.4.4.4.0.0.",
"8.8.8.8.8.8.8.8.4X0.0.0.0.0.4X0.0.4X0.0.0.0.7.L.D., * #     + q l._.'.J ) 3.( S k j B D Z 3.;.;.0.0.4X0.0.0.8.8.8.8.8.8.8.8.8.w.4.4.4.4.0.0.",
"4X4X4X0.4X4X0.0.4X0.0.4X0.4X0.0.0.0.4X0.0.8.8.8.).< < R.( @   # k._.8X) D 3.=...k [ ;.O.T 6.0.0.0.0.0.0.0.0.4X4X0.0.4X4X4X4X0.0.8.0.0.8.8.8.",
"6X6X6X6X6X6X6X6X0.0.0.0.0.0.0.0.0.0.0.0.0.0.8.8.8.l q R.].[.< * h.' *.M F 2.;.O. .>.:.D b q.{.0.0.0.0.0.4X4X9X6X6X6X6X6X6X6X6X6X6X6X6X6X4.4.",
"6X6X6X6X6X6X6X6X4X0.0.4X0.0.4X0.0.4X0.0.0.0.8.8.8.j l %.H. Xq 5 Y ] E x C ;.@.X.+. .b v n q.0.0.0.0.4X0.0.0.6X6X6X6X6X6X6X6X6X6X6X6X6X6X4.4.",
"6X6X6X6X6X6X6X4X0.0.0.0.0.4X0.4X0.4X0.4X0.0.8.8.8.M h =.&.] #.x H s.h.v J @.O.R O.W v M C 8.0.0.0.0.0.4X0.4X6X6X6X6X6X6X6X6X6X6X6X6X6X6X4.4.",
"6X9X6X6X6X6X6X6X4X0.4X0.0.0.0.4X0.0.4X4X0.8.8.8.8.l.s.} ' l.k.U.x / k.K J G.E v  .[ >.[ Z 0.4X0.4X0.0.0.0.0.6X6X6X6X6X6X6X9X6X6X6X6X6X6X4.4.",
"4X4X4X4X4X4X4X4X0.0.4X0.0.8.8.8.8.8.8.8.8.8.8.8.8.k.j.j m U a.u.p H ~ M.Y.h.` A k S ;.S k w.8.8.8.8.8.0.8.8.0.8.0.0.0.8.8.0.0.0.4X4X4X4X0.0.",
"4X0.0.0.4X4X4X0.0.0.0.0.8.8.8.8.8.8.8.8.8.8.8.8.8.M.h.B w e I r.r i H K.).H ) o.g B B k k 6.8.8.8.8.8.8.8.8.8.8.8.8.8.8.8.8.8.0.0.0.0.0.0.0.",
"0.4X0.0.0.0.0.0.0.0.4X0.8.8.8.8.8.8.8.8.8.8.8.8.8.M.v.o.T e I u.I d K w R &._ ..h f k z k 6.8.8.8.8.8.8.8.8.8.8.8.8.8.8.8.8.8.0.0.4X0.0.4X0.",
"0.0.0.4X0.4X0.4X4X0.0.0.8.8.8.8.8.8.8.8.8.8.8.8.8.h.v.,.T w v P d.r.i 8 T @X,...h C >.S h 6.8.8.8.8.8.8.8.8.8.w.8.8.w.8.8.8.w.0.4X4X0.0.0.0.",
"0.4X0.4X4X4X4X4X4X4X4X4X8.8.w.8.w.8.0.0.q.8.8.8.8.v.j.|.G.H c w t u e.i H U.,...g F >.k ; w.9.0.q.0.9.0.0.0.8.0.8.0.0.0.8.0.8.4X4X4X4X4X4X4X",
"0.0.4X6X6X6X9X6X6X6X6X6X8.4.4.4.w.6X6X6X6X4X8.8.8.R.H.U.L.d.m.K r r r i i f D ..0 h < = ; 5X6X6X6X6X6X6X6X6X6X6X6X6X6X6X6X6X6X6X6X6X6X6X6X6X",
"0.0.0.6X6X6X6X6X6X6X6X6X8.4.2.2.w.6X6X6X6X4X8.8.8.).H.b ~ i.I.Z.p r r I H h A F 5 > : q F 6X6X6X6X6X6X9X6X6X6X9X6X6X6X6X9X6X6X6X6X6X6X6X6X6X",
"0.4X4X6X6X6X6X6X6X6X6X6X8.2.4.4.w.6X6X6X6X4X8.8.8.;.:.X.G G H.N.p t r u.U D k l 5 0 w L ) 6X6X6X6X6X6X6X6X6X6X6X9X6X6X6X6X6X6X6X6X6X9X6X6X6X",
"4X0.0.6X6X6X6X6X6X6X6X9X8.4.4.4.w.6X6X6X6X4X8.8.8.;.3.8X).] N.F.r.y t u.s.X.k l e e e R ) 5X6X6X6X6X6X6X6X6X6X6X6X6X6X6X6X6X6X6X9X6X6X6X6X6X",
"0.0.0.4X4X0.4X4X4X0.4X4X8.w.w.w.8.0.0.4X0.q.8.8.8.O.=. X0X.X_.L.p.P a U s.I.L q s M ..( D ,X4X4X4X4X4X4X4X4X4X0.4X4X4X0.4X4X4X6X6X6X6X6X4X6X",
"0.0.0.8.8.8.8.8.8.8.8.8.8.8.8.8.8.8.8.8.8.8.8.8.8.#. .G ' ].].R.a.U v +.#.R.T g b ) @.) G q.,X0.0.0.8.8.8.8.8.8.8.8.8.8.8.8.8.4X6X6X6X6X4X0.",
"4X0.0.8.8.8.8.8.8.8.8.8.8.8.8.8.8.8.8.8.8.8.w.8.8.U.*.e I l._.R.a.j.' @.,.R.R 0 b M k e s 9.0.0.0.8.8.8.8.8.8.8.8.8.8.8.8.8.8.6X6X6X6X6X0.4X",
"0.0.4X8.8.8.8.8.8.8.8.8.8.8.8.8.8.8.8.8.8.8.8.8.8.H.N.8 s p.R._.L.j.j.@.+.N.R g ) F q w 0 8.0.4X0.8.8.8.8.8.8.8.8.8.8.8.8.8.8.4X6X6X6X6X4X0.",
"0.0.0.8.8.8.8.8.8.8.8.8.8.8.8.8.8.8.8.8.8.8.8.8.q.K / a e 8 Y.`.R.Z.j.-...e v v ) C ; : 5 7.4X4X0.0.8.8.8.8.8.8.8.8.8.8.8.8.8.4X6X6X6X6X0.0.",
"4X0.0.0.0.0.0.4X6X6X6X6X8.8.8.8.8.8.8.8.8.4X6X6X6XE H I K x H.`.R.n.h.|.K.v v g V 1 ; l R R.wXqX6X6X6X6X6X6X6X6X6X6X4X0.4X0.0.4X4X4X4X4X0.0.",
"0.0.0.4X4X0.4X4X6X6X6X6X0.8.8.8.8.8.8.8.8.4X6X6X6XY.v.i.^ O.,.Y.R.' ~ `.).v 0 > N j e R X.P.uXaXeX9X6X6X6X6X6X6X6X6X6X0.4X0.0.0.0.0.0.0.0.0.",
"0.0.0.0.0.0.0.4X6X9X6X6X0.8.8.8.8.w.8.8.8.4X6X6X7XP.A.p.' -.O.:.].h.K H.N.G 6 , M J s M x D.:X1XaX:X2X5X9X6X6X6X6X6X4X4X4X0.0.0.0.4X4X0.0.0.",
"4X0.0.4X0.4X4X4X6X6X6X6X8.8.8.8.8.8.8.8.8.4X9XyX_.S.oXV.A. X[ #.8X1.Q N.N.h.n h L G e 0 0 Q.1XuXpXoXM.7.6X6X6X6X6X6X6X0.0.0.0.4X0.0.0.0.0.4X",
"8.8.8.4X4X0.0.4X6X4X6X6X8.8.8.0.8.8.8.8.8.}.yXvXtX/.iXpX#X@Xz m _.K.$.E ' h.b k J G w w w iXzXwXG.) ) 1.6X6X5X6X4X6X6X4X4X4X4X4X6X4X4X4X0.8.",
"4.4.4.0.0.0.0.4X0.4X0.0.0.4X0.0.0.8.q.9XhX'.`.+XE.C.$XpXaX1XP.T D.C.j.E ! i.Q X.H e 6 e G <X&.e T ) w W 0.0.0.0.0.0.4X9X6X6X6X9X6X6X6X6X4.4.",
"4.4.4.0.0.0.0.4X0.0.0.0.0.0.4X0.0.8.*.~.iX:X=X;X&X%X:X2X1XpX:X~.S.E.l.~ ^ j.` O.e w 6 ` XX) M v  .O.7 W 0.4X4X0.0.0.4X6X6X6X6X6X6X6X6X4X4.4.",
"4.4.4.0.4X0.0.0.4X0.0.4X0.4X0.0.{.8.$.r e.g.%X^.(.:XgXgXeXxXcX@X#XiX+X%.$._.,.>.v v L [.8X( m M .. .9 W 0.0.0.0.0.4X4X6X6X6X9X6X6X6X6X6X4.4.",
"4.2.4.0.0.0.4X0.0.0.4X4X0.0.0.4X0.8.$.r e.i W `.gXgXlX@XU.].#Xb.Z.2XaXaX#X_.1.#.).Y.] }.9Xm z R Z g 9 _ 0.0.4X0.0.0.4X6X6X6X6X6X6X6X6X6X4.4.",
"8.8.0.8.0.8.8.8.8.0.8.8.8.0.8.8.8.8.$.r t u W 7.qX/.jXjX>X-X-X^.&X:X2X2X3XoXL.n.[._.l.R.8X( O.#.F x 7 S 0.9.8.8.8.0.8.0.0.0.0.0.0.0.0.0.8.0.",
"4X4X0.8.8.8.8.8.8.8.8.8.8.8.8.8.8.8.#.t t u Q ).8Xu e.z.%X&X%X%X-XfXiX#XG._ B.D.&.M.l.V.A.:.:.o.T H 6 [ 8.8.8.8.8.8.8.8.8.8.8.8.8.8.8.8.4X0.",
"0.0.0.8.8.8.8.8.8.8.8.8.8.8.8.8.8.8.,.P ).n.] ).9Xe.r e.I A.#XdXgXeX&.R ) D 6 v D %.F.Z.Z.:.#.G H K D :.8.8.8.8.8.8.8.8.8.w.8.8.8.8.8.8.0.0.",
"0.0.4X8.8.8.8.8.8.8.8.8.8.8.8.8.8.8.7.s.XX Xk.Y.7Xu r y P ) 5XeXG.M e ) ) 7 - = . , j.A.N.3.=.b G T  .:.8.8.8.8.8.8.8.8.8.8.8.8.8.8.8.8.0.4X",
"4X0.4X8.8.8.8.8.8.8.8.8.8.8.8.8.8.w.).E.M.U.k.k.I.i r t d ) ,X}.Z v M @.) 7 % o . o > h ' 3.@.b b b  .-.8.8.8.8.8.8.8.8.8.8.8.8.8.8.8.0.0.4X",
"0.0.4X6X6X6X6X6X8.8.8.8.6X6X6X6X6X4.{ E $.$.Z.Z.Z.I P b.I Q 7X,Xk M A ..m 4 $   = $ & o   ;.@.M b v W >.8.8.0.0.4X0.0.4X0.0.4X6X6X9X6X6X6X6X",
"0.0.4X6X6X6X6X4X8.8.8.8.6X6X6X6X5X5.} : O j b.A.N.s.~ .X`.b.,X5Xk F ) m g 9 } } l $   o . } F ) M A 3.8.8.8.0.4X0.4X0.0.0.0.0.6X6X6X6X6X6X6X",
"4X0.0.6X6X6X6X4X8.8.8.8.4X6X6X6X6X4.2 @ . . 5 ! B.S.A.).`.l.L.).{ >.#.n c 5 =.8.4.} X $ = ; 1  .O.4.8.8.8.8.0.0.0.0.0.0.0.0.0.6X6X6X6X6X6X6X",
"0.0.4X6X6X6X6X6X8.8.8.8.6X6X6X6X5X4.V   $ o = O o E A.X.v.k.k.B.<.#.R K G g :.8.8.8.w.| > ; } 4.4.8.8.8.8.8.0.0.4X0.4X0.0.0.0.6X6X6X9X6X6X6X",
"0.0.0.6X4X6X6X4X0.8.0.8.4X4X4X4X0.w.;.2 , = . o   = 6 1 ' F.N.N.3.) G K T  .5.q.0.q.0.q.8.8.0.9.0.4X0.4X4X4X0.0.0.0.0.0.0.8.8.4X4X4X4X4X6X6X",
"0.0.0.0.0.0.0.0.0.4X0.0.0.8.8.8.8.8.8.8.<.N . O = $ &   & ~ B.H.3. .G b T o.6.0.0.0.0.4X4X6X6X6X6X6X6X6X6X6X4X4X0.0.8.8.8.8.8.8.8.8.8.8.0.0.",
"0.4X0.4X0.4X0.0.0.4X0.4X8.8.8.8.8.8.8.8.8.8.4.2 ;   . o o - + C 2.( b b M R 7.0.0.0.4X0.4X6X6X6X6X6X6X6X6X6X4X0.0.0.0.8.8.8.8.8.8.8.8.8.0.0.",
"0.0.0.0.0.0.0.0.0.0.0.0.8.8.8.8.8.8.8.8.8.8.8.8.2.2 X ; $ $ . @ <. .R v G o.9.0.0.0.0.0.4X6X6X9X6X6X6X6X6X6X4X0.0.0.0.8.8.8.8.8.8.8.8.8.0.0.",
"0.4X4X4X4X4X4X0.4X0.0.0.0.8.8.8.8.8.8.8.8.8.8.8.8.8.;.N $   $ @ N m ) Z >.q.0.0.0.4X0.4X5X6X6X6X6X6X6X6X6X6X4X0.4X4X8.8.8.8.8.8.8.8.8.8.0.0.",
"8.8.8.8.8.8.8.8.8.8.8.8.8.8.8.8.8.4.4.4.4.8.6X6X6X4X6X6Xq.2 , = $ B 7.0.4X{.0.4X0.0.0.0.4X4X4X4X4X0.0.0.q.0.8.8.8.8.8.8.8.8.8.8.0.0.0.0.4X0.",
"8.8.8.8.8.8.8.8.8.8.8.8.8.8.8.8.8.4.4.2.4.8.6X6X6X6X6X6X6X6X9.[ | q.4X4X0.4X0.4X0.0.0.4X0.0.0.0.0.8.8.8.8.8.8.8.8.8.8.8.8.8.8.0.0.0.0.0.0.0.",
"8.8.8.8.8.8.8.8.8.8.8.8.8.8.8.8.8.4.4.2.4.0.6X6X6X6X6X6X6X6X6X0.4X0.0.0.0.0.0.4X0.4X0.0.4X0.0.0.0.8.8.8.8.8.8.8.8.8.8.8.8.8.8.0.0.4X0.4X0.0."
};
