/* XPM */
static char *nr1674743374[] = {
/* columns rows colors chars-per-pixel */
"70 70 229 2 ",
"   c #010201",
".  c #050B04",
"X  c #061105",
"o  c #0B1D09",
"O  c #0C170A",
"+  c #151914",
"@  c #10190E",
"#  c #0D230A",
"$  c #0F2A0C",
"%  c #112C0D",
"&  c #11210E",
"*  c #13330F",
"=  c #14390F",
"-  c #182716",
";  c #173A12",
":  c #1A3C15",
">  c #1B3618",
",  c #223D1E",
"<  c #2B3429",
"1  c #292C29",
"2  c #035102",
"3  c #0C530B",
"4  c #1A4215",
"5  c #1C4919",
"6  c #155514",
"7  c #1C5219",
"8  c #1D5818",
"9  c #104F0F",
"0  c #224C1D",
"q  c #22421E",
"w  c #23521D",
"e  c #235A1D",
"r  c #017801",
"t  c #087B07",
"y  c #0B7B0A",
"u  c #067506",
"i  c #177A14",
"p  c #146B11",
"a  c #23681E",
"s  c #217A1F",
"d  c #244421",
"f  c #294325",
"g  c #254A23",
"h  c #294B26",
"j  c #2B4429",
"k  c #2C4B2A",
"l  c #304A2F",
"z  c #265521",
"x  c #2A5226",
"c  c #2B5B24",
"v  c #2E532B",
"b  c #2F5C29",
"n  c #265A20",
"m  c #335D2D",
"M  c #32552E",
"N  c #364A34",
"B  c #355432",
"V  c #355C31",
"C  c #3A5E34",
"Z  c #3D5D3A",
"A  c #3C543A",
"S  c #2B6424",
"D  c #2C6429",
"F  c #286923",
"G  c #34632C",
"H  c #336B2B",
"J  c #306B27",
"K  c #2A7627",
"L  c #34762C",
"P  c #366131",
"I  c #3A6334",
"U  c #376C33",
"Y  c #3B6B35",
"T  c #3E6439",
"R  c #3C6C39",
"E  c #367232",
"W  c #3B7534",
"Q  c #347C30",
"!  c #3D723A",
"~  c #3C7B34",
"^  c #415B3D",
"/  c #42643C",
"(  c #426B3C",
")  c #41733C",
"_  c #427A3B",
"`  c #445B43",
"'  c #4D5D4C",
"]  c #455843",
"[  c #555B55",
"{  c #4A5049",
"}  c #466441",
"|  c #4A6445",
" . c #456B43",
".. c #4A6B45",
"X. c #4E644A",
"o. c #4D6B49",
"O. c #52644E",
"+. c #526A4E",
"@. c #457443",
"#. c #467A42",
"$. c #4B7A45",
"%. c #4C7747",
"&. c #527B4D",
"*. c #50744C",
"=. c #546353",
"-. c #556A51",
";. c #5C665B",
":. c #5D6A5C",
">. c #586756",
",. c #587A54",
"<. c #606B5E",
"1. c #637A5F",
"2. c #646664",
"3. c #656A64",
"4. c #696A69",
"5. c #686967",
"6. c #6D736C",
"7. c #687966",
"8. c #707A6F",
"9. c #747474",
"0. c #7E7E7E",
"q. c #757B74",
"w. c #188214",
"e. c #119D10",
"r. c #21811D",
"t. c #14A614",
"y. c #00A200",
"u. c #2A8325",
"i. c #32822B",
"p. c #35882B",
"a. c #36942B",
"s. c #3A8733",
"d. c #3C9234",
"f. c #3CAF35",
"g. c #43833B",
"h. c #448B3B",
"j. c #488B3E",
"k. c #428737",
"l. c #4A943E",
"z. c #46963B",
"x. c #46B739",
"c. c #44AB39",
"v. c #4C8443",
"b. c #4C8C44",
"n. c #4F834A",
"m. c #4B8847",
"M. c #54854C",
"N. c #548C4D",
"B. c #508B46",
"V. c #4D9743",
"C. c #519445",
"Z. c #53934B",
"A. c #559B4B",
"S. c #559D4A",
"D. c #5A8254",
"F. c #5B8C54",
"G. c #598857",
"H. c #5C9354",
"J. c #5B9756",
"K. c #62885E",
"L. c #64995D",
"P. c #629759",
"I. c #4DA647",
"U. c #57A54D",
"Y. c #4EB540",
"T. c #59BA4B",
"R. c #5CA855",
"E. c #5BB850",
"W. c #63A959",
"Q. c #65BA58",
"!. c #6B8867",
"~. c #718A6E",
"^. c #6B9A64",
"/. c #6A9765",
"(. c #73966C",
"). c #7C8D7B",
"_. c #788875",
"`. c #749471",
"'. c #7D947A",
"]. c #7A9975",
"[. c #6CA766",
"{. c #6BBA64",
"}. c #75B76C",
"|. c #7BA877",
" X c #7CBB73",
".X c #7CB675",
"XX c #74AF6C",
"oX c #59C24A",
"OX c #6AC35B",
"+X c #66C557",
"@X c #6BD25A",
"#X c #60C64F",
"$X c #75C867",
"%X c #76D465",
"&X c #7DC773",
"*X c #81997D",
"=X c #84B27C",
"-X c #8ACC7E",
";X c #83CB79",
":X c #87D078",
">X c #828282",
",X c #868E85",
"<X c #8E8E8E",
"1X c #859284",
"2X c #8D938C",
"3X c #899A87",
"4X c #949892",
"5X c #90928F",
"6X c #8BA888",
"7X c #97A994",
"8X c #96BC90",
"9X c #A1BE9F",
"0X c #A2AAA0",
"qX c #94C78B",
"wX c #8ED284",
"eX c #93D189",
"rX c #9CCB94",
"tX c #9AC794",
"yX c #8AC780",
"uX c #A3CA9C",
"iX c #A3D29A",
"pX c #A9C6A5",
"aX c #ACD7A4",
"sX c #B2D5AB",
"dX c #BAC7B9",
"fX c #BBD5B7",
"gX c #C2D9BD",
"hX c #D2D7D2",
"jX c #CBD9C8",
/* pixels */
"0.0.0.9.9.9.9.9.9.9.9.9.9.9.9.9.9.9.9.9.9.9.0.0.0.0.<X<X5X<X<X<X<X<X<Xq.4.5.5.5.<X<X<X<X<X>X0.0.0.9.9.9.9.9.9.9.9.9.9.9.9.9.9.9.9.9.9.9.0.0.",
"0.>X0.9.9.9.9.9.9.9.9.9.9.9.9.9.9.9.9.9.9.0.0.0.0.0.<X<X<X<X<X<X<X5X<X8.4.5.5.5.<X<X<X<X<X0.0.0.0.9.9.9.9.9.9.9.9.9.9.9.9.9.9.9.9.9.9.9.>X0.",
"0.0.0.0.0.0.0.>X>X<X>X<X<X>X>X<X>X<X<X<X>X<X<X<X<X<X<X<X<X5X5X5X5X6Xc.f.m.6.9.4.<X5X<X5X<X<X<X<X<X<X<X>X<X>X4.4.4.4.9.0.0.0.0.0.0.0.0.0.9.0.",
">X0.>X0.0.0.0.>X<X5X<X<X<X<X<X<X<X<X<X<X<X<X<X<X<X<X5X<X5X5X5X7XtX;XW.d.s.d.A.!.<X<X5X<X<X<X<X<X<X<X<X<X<X<X4.4.4.2.9.0.0.0.0.0.0.0.0.0.9.9.",
"0.0.0.>X0.0.0.,X<X<X<X<X<X<X<X5X<X<X<X<X<X<X<X<X<X<X<X<X5X7XrXiXrX&XU.z.c.x.x.oX}.*X5X2X5X5X<X<X<X<X<X<X<X<X4.4.4.4.9.0.0.0.0.0.0.0.>X0.9.9.",
"0.0.0.0.0.0.0.,X5X<X<X<X<X<X5X5X<X<X5X<X<X<X<X<X<X<X<X7XpXiXwX@X@X&XR.V.x.oXoXoXoXT.[.1X<X<X<X<X<X<X<X<X<X<X4.4.4.4.4.0.0.0.0.0.0.>X0.0.9.9.",
">X0.>X0.0.0.0.>X<X<X<X<X<X<X<X<X<X<X,X<X<X<X2X2X5X4XN.H..X&X%X@X@X@XOXU.F.J.$XY.f.Y.z.g./.4X<X<X<X<X<X<X<X<X4.4.4.4.9.>X>X>X>X>X0.0.0.0.9.0.",
"0.0.0.4.4.4.4.4.0.9.9.9.9.0.9.9.9.4.4.4.4.9.q.(.uXsXrX[.N.[.eX}.{.{.#X#X XtXfXtX{.oXQ.XXtXtX|.).>X>X>X0.0.0.0.0.0.0.>X<X<X<X<X>X0.0.0.0.0.0.",
">X0.0.4.4.4.4.9.9.9.9.9.9.9.9.9.9.4.4.4.2.4.M.Q.Q..XsXsX-XgXhXgX&XE.R.&XaXpX|.yXwXx.{.tXwX+XY.R.0.0.>X0.0.0.0.0.0.0.>X5X<X5X<X>X0.0.>X0.>X0.",
"0.0.0.4.2.4.4.4.9.9.9.9.9.9.9.9.9.4.2.4.4.4.I G _ S.OX%X%X$X-XiXgXdX8XyXgXpX[.I.f.t.y.t.f.f.d.`.).0.0.0.>X0.0.0.>X0.>X<X<X<X<X<X0.0.0.0.0.0.",
"0.0.0.4.4.2.4.4.9.9.9.9.9.9.9.9.9.4.4.4.4.9.=.C m m j.T.Q.+X$X$XyXdX6X|.pXjXfXeXE.t.t.e.u.w.u.G.7.>X0.0.0.0.0.0.0.0.>X<X<X<X<X>X0.0.0.0.0.0.",
">X0.0.9.9.9.9.9.9.9.0.9.9.9.0.9.9.9.4.9.9.4.4.<.G h q p k.W.Q.{.pXhXdXL.G./.9XhXjXXXJ.G.i.r.i.a *.0.0.9.0.0.0.9.0.0.0.>X<X>X>X>X0.9.0.0.>X0.",
"0.>X0.<X<X<X<X<X>X0.0.>X0.0.0.0.0.0.>X0._.9.5.<.I | A 6 3 3 j.R.R.|.L.K.6X|.F.^.0X4X`.m.i.h.s.K ,.9.9.9.9.9.9.9.9.9.9.9.9.9.9.9.9.9.9.0.0.0.",
"0.0.>X<X<X<X<X<X0.0.0.0.0.0.0.0.0.0.0.0.0.9.5.;.M | +.3 2 2 G ..n.G.J.[.pXtXL.W.3X).G.h.u.Q F u.,.9.9.9.9.9.9.9.9.9.9.9.9.9.9.9.9.9.9.9.0.0.",
"0.0.0.<X<X<X<X<X0.0.0.0.0.0.>X0.0.>X0.0.>X9.2.[ k l ` 3 2 2 P | I U s.m.#.J.J.J.&.! Z.g.v 4 6 a.G.9.9.9.9.9.9.9.9.9.9.9.9.9.9.9.9.9.9.9.0.0.",
"0.>X0.<X<X<X<X<X0.>X>X0.0.>X0.0.0.0.>X0.0.9.5.<.` l < 3 3 2 ` =.M G P I R Z.C.I.E @.L.@.j : 7 d.,.9.9.9.9.9.9.9.9.9.9.9.9.9.9.9.9.9.9.9.0.0.",
">X0.0.<X<X<X<X<X<X<X<X<X0.9.9.9.9.9.9.0.9.9.2.2.<.+.^ 6 9 9 ` =.h x m *.~.j.V.k.R @.^./ @ % 7 z.~.<X>X<X<X>X<X>X<X>X<X>X<X<X>X<X<X<X>X>X9.4.",
"0.0.>X<X<X<X<X<X<X<X<X<X0.9.9.9.9.9.9.9.9.9.=.{ +.-.>.<.m 8 T O.^ l V ,X2X_ x ; I #.A.h   : ! L.'.<X<X<X<X<X<X<X<X<X<X5X<X<X<X<X<X<X<X<X4.4.",
">X0.0.<X5X<X<X<X<X<X<X<X0.9.9.9.9.9.9.9.9.9.>.| I ( ..5.>.S I O.5.' M ,X<Xf > % J s.l.G ..v.B./.1X<X<X<X5X<X<X<X<X5X<X<X<X<X<X<X<X<X<X<X4.4.",
"0.0.>X<X<X5X5X5X<X<X<X<X0.9.9.9.9.9.9.9.9.9.:.+.G ( ( 3.>.S J I 3.[ l <X5X, &   F K S ( /.v.n.(.1X<X<X<X<X<X5X<X5X<X5X<X<X<X<X<X<X<X<X<X4.4.",
"0.0.0.<X<X<X<X<X<X<X<X<X0.9.9.9.9.9.9.9.9.9.3.+.C P ( 3.;.m G U 5.+.V *XK.% O + 0 ; = C Z I $.].3X2X2X<X<X<X<X<X<X<X<X<X<X<X<X<X<X>X<X>X9.4.",
"9.9.9.9.9.9.9.0.>X0.0.0.0.0.>X0.>X>X>X0.>Xq.5.<.O.C G 5.;.C I  .5.+.G B.v.: X.3Xh % X & f T ,.6X,X0.>X0.0.0.9.9.9.9.9.9.9.9.9.4.4.4.4.4.0.0.",
"9.9.9.9.9.9.9.9.0.0.0.0.>X0.>X0.0.0.0.0.0.q.[ 2.6.| I 5.<.C P R 2.X.G j.h.G 1._.&     @ @ / D.*X_.0.0.0.0.0.9.9.9.9.9.9.9.9.9.9.4.4.4.4.0.0.",
"9.9.9.9.9.9.9.0.>X0.0.>X0.0.0.0.>X0.>X0.0.0.N ^ 4.| m B ` I k v 2.X.e k.h.W U 4 .          .A.V.!.0.>X0.>X0.9.9.9.9.9.9.9.9.9.4.4.4.4.4.0.0.",
"9.9.9.9.9.9.9.9.>X0.>X0.>X0.0.0.0.>X0.0.>X9.[ A 4.| C v k k B l <.O.c B./.l.J = .     . O B.A.Z.q.0.0.0.>X0.9.9.9.9.9.9.9.9.9.4.4.4.4.4.0.0.",
"0.0.>X0.>X>X0.>X0.0.0.0.0.0.0.>X0.0.0.0.0.0.9.6.4.X.C >.] j ` X.<.O.G _.*Xl.0     + / / % M._.0.>X>X0.>X0.>X>X>X0.0.>X>X>X>X>X0.0.0.9.9.9.9.",
"<X<X<X<X<X<X<X>X0.>X0.>X0.0.0.>X0.0.>X0.0.9.9.9.9.} V ;.>.} | O.2.' v !.&.h.q . ' `.^.T > 6.*X0.0.0.0.0.0.>X<X<X<X<X<X<X<X<X<X<X<X<X<X<X4.4.",
"<X<X<X<X<X<X<X<X0.0.0.0.>X0.0.0.0.>X0.0.0.0.9.9.9.} v V | o.| o.<.{ g Y ) g.0 * !.(.N.P q 6.0.0.0.0.0.0.0.>X<X<X<X<X<X<X<X<X<X<X<X<X<X<X4.4.",
"<X<X<X<X<X<X<X<X0.0.0.>X0.0.0.0.0.>X0.>X0.9.9.9.9.| b c m X./ ..O.^ e Y g.S w h &._ -.A d 6.>X0.>X0.>X0.>X>X<X<X<X<X<X<X<X5X<X5X<X<X<X<X4.4.",
"<X<X<X<X<X<X<X<X0.>X0.0.>X0.0.>X0.0.>X>X0.0.9.9.9.| m =.} ..m m ,./ a h.z.c -./.h.s.=.T s._.0.0.0.0.0.0.>X>X<X<X<X<X<X<X<X<X<X5X<X<X<X<X4.4.",
"<X>X>X>X<X>X>X>X0.0.0.0.0.9.9.9.9.9.9.9.9.9.9.9.9.' M >.' k C m F.M.#.g.E 6 s a.d.L l E d.8.9.9.9.0.9.9.9.9.9.0.0.9.9.0.0.9.0.>X>X>X>X0.0.0.",
"0.0.0.0.0.0.0.0.0.>X0.>X9.9.9.9.9.9.9.9.9.9.9.9.9.] k N ] d Z  .J M.].Y F r w.p.F e j R m.8.9.9.9.9.9.9.9.9.9.9.9.9.9.9.9.9.9.0.0.0.0.0.0.0.",
"0.0.0.0.0.0.0.>X0.0.0.0.9.9.9.9.9.9.9.9.9.9.9.9.9.` k k f h / ( S ) v F F i u.u.a z ` %.n.6.9.9.9.9.9.9.9.9.9.9.9.9.9.9.9.9.9.0.>X0.0.>X0.0.",
"0.>X0.0.>X0.>X>X0.>X0.0.9.9.9.9.9.9.9.9.9.9.9.9.9.` k X.A h ^ ..(.&.7 a w.s.i.K e b ..&.g.7.9.9.9.9.9.9.9.9.9.9.9.9.9.9.9.9.9.0.0.0.0.0.>X0.",
">X0.>X>X>X>X>X>X>X>X>X>X0.9.9.9.4.0.0.0.9.9.9.9.9.N f >.X.0 ^ +.`.@.p w.w.K a g z H !.F.k.8.q.0.9.0.9.0.0.0.0.0.9.0.9.0.0.0.9.0.>X>X>X<X>X>X",
"0.0.0.<X<X<X<X<X<X<X<X<X9.2.2.4.4.<X5X5X5X>X9.9.9.N % q B q ^ / M 8 p i r r p U s.j.(.P.P.1X<X5X5X<X<X<X<X<X<X<X<X<X<X<X<X<X<X<X<X<X<X<X<X<X",
"0.0.0.<X<X<X<X5X<X<X<X<X9.4.2.2.4.<X<X<X5X0.9.9.9.' > ; : 4 B / h e s y r u Q J.h.s./ #.P.>X<X<X<X5X5X<X<X<X<X<X<X<X<X<X<X<X<X<X5X5X<X<X<X<X",
">X0.>X<X<X<X<X<X<X<X5X5X9.4.4.4.9.<X<X<X5X>X9.9.9.-./ e 4 4 , l C E i.y u u s.P.L S G %.<.<X5X<X<X<X<X<X<X5X<X<X<X<X<X<X<X<X<X<X5X<X5X<X<X<X",
"0.>X0.<X<X<X<X<X<X<X<X<X9.4.4.4.4.<X<X5X<X>X9.9.9.+.T n e e q f ^ W i.y u p h.H.H _ *Xq.;.>X<X5X<X5X5X<X<X<X<X<X5X5X<X<X<X<X<X<X<X<X<X<X<X<X",
"0.0.0.>X0.>X>X>X>X>X>X>X9.4.9.4.9.0.>X>X>X9.9.9.9.+./ } m a w h N.j.Q i a a.V.L.^.*X1X6.O.0.,X>X>X>X>X0.>X>X>X>X>X>X>X0.>X>X>X<X5X<X<X<X>X<X",
"0.>X0.9.9.9.9.9.9.9.9.9.9.9.9.9.9.9.9.9.9.9.9.9.9...I O.| c 0 x H.M...G J a.Z.^.*X^.( I ] q.0.0.0.9.9.9.9.9.9.9.9.9.9.9.9.9.9.<X<X<X<X<X>X>X",
"0.0.>X9.9.9.9.9.9.9.9.9.9.9.9.9.9.9.9.9.9.9.9.9.9.( a l ^ b x h P.,.O.) g.a.A.^.S.a.e ( ,.*X>X0.0.9.9.9.9.9.9.9.9.9.9.9.9.9.9.>X<X<X<X<X0.0.",
"0.0.0.9.9.9.9.9.9.9.9.9.9.9.9.9.9.9.9.9.9.9.9.9.9.Z e g x / v x P.&.O.v.j.z.L.(.z.L e _ H._.0.0.>X9.9.9.9.9.9.9.9.9.9.9.9.9.9.<X<X<X<X<X>X>X",
"0.>X0.9.9.9.9.9.9.9.9.9.9.9.9.9.9.9.9.9.9.9.9.9.q.B : : h / m c G ^ O.g.j.L.L.^.J 0 e L U q.>X>X0.0.9.0.9.9.9.9.9.9.9.9.9.9.9.>X<X<X<X<X0.0.",
"0.>X0.0.0.0.0.>X<X<X<X<X0.9.9.9.9.9.9.9.9.0.5X6XW.( g - > ^ m e e / ~.v.j.P.L.^.a e K K S *X<X<X<X<X<X<X<X<X<X<X<X<X<X0.0.0.0.0.>X>X>X>X0.0.",
"0.0.0.0.0.0.>X>X<X5X<X<X9.6.9.9.9.9.9.9.9.3XqXrX=X$./ w , < , q e *.'.g.~ P.L.K./ o.i.~ $.*X<X<X<X<X<X<X5X<X<X<X<X<X>X0.>X0.>X0.0.0.0.0.0.0.",
"0.>X0.>X0.0.0.>X<X<X<X<X0.9.9.9.9.9.9.`. XqXwX;XU.Y ^ S b V q : c $.L.E H L.7.O.=.*.p.j.H.*X<X<X<X<X<X<X<X<X<X<X<X<X>X0.0.0.0.0.0.>X>X0.0.0.",
"0.0.0.0.>X>X>X>X<X<X<X<X0.9.9.9.9.9.6.M.XX;X-X-XOXL 0 e S G k d _ j.P.Y @.3X7.^ !.!.p.A.H.P.2X4X<X<X<X<X5X<X<X<X<X<X<X>X0.0.>X0.0.0.0.0.0.0.",
"9.9.0.0.0.>X0.>X<X<X<X<X0.9.9.0.9.9.6.}  .G.=XsXrXg.0 e e S v h g.g.@.@.%.]. .d !.|. XeX}.|.hXdX<X<X<X>X>X<X<X>X<X<X<X>X>X>X>X>X<X0.>X>X0.9.",
"4.4.4.0.0.0.0.0.0.0.0.0.0.0.0.0.0.9.:.w C T c *.8XZ.a 0 e S / I i.E U _ b.U.R I  XeXwX&XV.b..X/.!.3X4X>X0.>X0.0.0.>X>X<X5X<X<X5X<X<X<X<X4.4.",
"4.4.4.0.>X0.>X0.0.0.0.0.0.>X0.0.0.9.;.6 m o.c c G 1.( 0 0 c / ( s._ U h.V.U.b.{.;XwX&X&XOXE.$X@X%XaXtXG.0.0.0.0.0.>X>X<X<X<X5X<X<X<X<X<X4.4.",
"2.4.4.0.0.0.0.0.0.0.0.>X0.0.0.0.0.9.:.6 b -.C m m !.2XI z z X.+.F.M.R U. X X[.tXfXrXrXiX&XoXE.+XoXa.t Q 0.0.>X0.0.0.>X<X<X5X5X5X<X<X<X>X4.4.",
"4.4.4.0.0.0.>X0.0.0.0.0.0.0.0.0.0.9.>.6 7 B C m f 8.4X%._ K.+.<./.L.=XeXeX[.b.|.pX!.`.pXaXiX X#.K w.u K >X0.0.>X0.0.>X<X5X<X<X<X<X<X<X<X4.4.",
"9.9.0.9.0.9.9.9.0.9.0.9.0.9.9.0.9.9.<.5 7 h X.| N !.*Xl.H.*XM.N.[.&X:X:X&X$XU.OX$XQ.rXfXtX6X'.T s t t K q.q.9.0.0.9.0.0.0.0.0.0.0.0.0.0.0.0.",
">X0.>X9.9.9.9.9.9.9.9.9.9.9.9.9.9.9.;.5 z b | -.<.D.l.l.Z.,.Z.A.( F..XwXeX$XoXoX+X#X#XI.y `.).( s t u E 9.9.9.9.9.9.9.9.9.9.9.9.9.9.9.9.0.0.",
"0.0.0.9.9.9.9.9.9.9.9.9.9.9.9.9.9.9.6.C b H S / <.D.Z.l.C...) w ^ / / &.8XaXiX&XR.v.w.y r '.).! Q G.K ! 9.9.9.9.9.9.9.9.9.9.9.9.9.9.9.9.0.0.",
"0.0.>X9.9.9.9.9.9.9.9.9.9.9.9.9.9.9.6.X.T G S / 2.D.N.C.Y @ % = 6 m / c b K.8X7X*.U i t r '.'.b./.'.s.n.9.9.9.9.9.9.9.9.9.9.9.9.9.9.9.9.0.0.",
"0.>X0.9.9.9.9.9.9.9.9.9.9.9.9.9.9.9.3. .T b c T 3.D.( w $   o O 9 M -.m c m 1.3Xo.U t t u J.C.z./.G.J.K.9.9.9.9.9.9.9.9.9.9.9.9.9.0.9.0.0.0.",
">X0.>X<X<X<X<X<X9.9.9.9.<X<X<X<X>X4.;./ G c m C <.<   * $ $ X . 9 e O.T m k 1.4X&.R i Q a b.V.V.#.@.m.o.9.9.0.0.0.0.0.>X0.0.>X<X<X<X<X5X<X5X",
"0.0.>X<X<X<X<X>X9.9.9.9.>X<X<X<X<X4.5.>.T e C Z ' 1 X X X ; 1 { 6 5 h / ^ h 1.4XM.b.'.M.K b.Z.C.R - > N 9.9.0.0.0.0.0.0.0.0.0.<X<X5X<X5X<X<X",
"0.0.0.<X<X<X<X<X9.9.9.9.<X<X<X<X<X5.5.4.2.O...B - > *   - <.9.6.q w w | +.' 1.^.l.A.'.F.S.Z.v.D &   % < 9.9.0.>X0.0.>X0.0.0.0.<X<X<X5X5X<X5X",
">X0.>X<X<X<X<X>X9.9.9.9.>X<X<X<X<X4.4.2.5.9.0.<.- = < <.0.>X0.4.h e H / +.<.,.l.z.C. .B.C., X * o # . 1 9.9.0.0.>X0.0.0.0.0.0.<X5X5X<X<X<X5X",
"0.0.0.<X>X<X<X>X9.9.0.0.>X>X<X>X0.4.9.4.4.9.0.9.6.;.q.0.0.9.q.9.| P J S C <.1.l.V.C.A d 4 . . o # > - [ >X>X0.0.0.0.0.9.9.0.9.>X>X>X>X>X<X>X",
"0.0.0.0.0.0.0.>X0.0.0.>X9.9.9.9.9.9.9.9.9.9.9.9.9.9.9.9.9.9.9.6.| / b b G <.1.Z.b.b . o * # #   - [ >X<X<X<X>X0.>X0.0.9.9.9.9.9.9.9.9.9.0.>X",
"0.>X0.0.0.0.0.>X>X0.0.>X9.9.9.9.9.9.9.9.9.9.9.9.9.9.9.9.9.9.9.4./ I b b m 3.-.< = % . X   - > [ <X<X<X<X5X<X0.0.0.0.0.9.9.9.9.9.9.9.9.9.0.0.",
"0.0.0.>X>X0.0.0.0.0.0.0.0.9.9.9.9.9.9.9.9.9.9.9.9.9.9.9.9.9.9.9...m z P C 3.<   $ o * o + [ >X5X<X<X<X<X5X<X>X0.0.>X0.9.9.9.9.9.9.9.9.9.0.0.",
"0.0.0.0.0.0.0.0.>X0.0.0.9.9.9.9.9.9.9.9.9.9.9.9.9.9.9.9.9.9.9.9.6.-.b / Z N 1 o . . : ] 9.5X<X5X<X<X<X<X<X<X>X0.>X0.9.9.9.9.9.9.9.9.9.9.0.0.",
"9.0.9.9.9.9.0.9.9.9.9.9.9.9.9.9.9.4.4.4.4.9.<X<X<X>X<X<X>X<X>X0.0.0.0.5./ # * * O { q.0.0.>X>X>X>X0.9.0.9.0.9.9.9.9.9.9.9.9.9.9.0.0.0.0.>X0.",
"9.9.9.9.9.9.9.9.9.9.9.9.9.9.9.9.9.4.4.2.4.0.<X<X<X<X<X<X<X<X<X0.>X0.0.0.9.[ < [ 9.0.0.0.0.0.>X0.>X9.9.9.9.9.9.9.9.9.9.9.9.9.9.0.0.0.0.0.0.>X",
"9.9.9.9.9.9.9.9.9.9.9.9.9.9.9.9.9.4.2.4.4.9.<X<X<X<X<X<X<X<X<X>X0.0.0.>X0.>X0.>X0.0.0.0.0.>X0.0.0.9.9.9.9.9.9.9.9.9.9.9.9.9.9.0.0.>X0.0.0.0."
};
