/* XPM */
static char *result[] = {
/* columns rows colors chars-per-pixel */
"70 70 222 2 ",
"   c #241709",
".  c #261A0A",
"X  c #2A1C0D",
"o  c #2C1E10",
"O  c #31200F",
"+  c #2E2011",
"@  c #332312",
"#  c #392716",
"$  c #2E200D",
"%  c #352E21",
"&  c #3E3428",
"*  c #373737",
"=  c #36353B",
"-  c #3C3C3C",
";  c #48230E",
":  c #412C19",
">  c #47301C",
",  c #473628",
"<  c #543826",
"1  c #693D2D",
"2  c #5B402E",
"3  c #4E463C",
"4  c #494638",
"5  c #5A4B37",
"6  c #584735",
"7  c #6C462E",
"8  c #66452E",
"9  c #73482D",
"0  c #654631",
"q  c #6B4A34",
"w  c #684835",
"e  c #734D35",
"r  c #7A4D33",
"t  c #754D39",
"y  c #784F3A",
"u  c #784733",
"i  c #7D5234",
"p  c #765139",
"a  c #7C533B",
"s  c #745037",
"d  c #6B543D",
"f  c #1F1B4D",
"g  c #1F1B50",
"h  c #211C4F",
"j  c #231E55",
"k  c #241F5A",
"l  c #1E2254",
"z  c #363546",
"x  c #242056",
"c  c #26205B",
"v  c #29245E",
"b  c #2D2857",
"n  c #322E5C",
"m  c #363351",
"M  c #272261",
"N  c #292363",
"B  c #2D266C",
"V  c #2A2868",
"C  c #312B63",
"Z  c #322C6D",
"A  c #3C3869",
"S  c #2E2770",
"D  c #2F2872",
"F  c #322A79",
"G  c #223C6D",
"H  c #423B6E",
"J  c #024C4C",
"K  c #084847",
"L  c #07504E",
"P  c #024F51",
"I  c #025353",
"U  c #025C5D",
"Y  c #025758",
"T  c #18534F",
"R  c #3D534A",
"E  c #31625B",
"W  c #045D61",
"Q  c #1F4071",
"!  c #006666",
"~  c #016768",
"^  c #026B6B",
"/  c #086666",
"(  c #046E71",
")  c #086D73",
"_  c #027474",
"`  c #027778",
"'  c #027C7C",
"]  c #0C7979",
"[  c #187170",
"{  c #2C7974",
"}  c #434343",
"|  c #4D4C48",
" . c #56524B",
".. c #5A554D",
"X. c #5B5241",
"o. c #5C5C5C",
"O. c #565553",
"+. c #4A5057",
"@. c #68564A",
"#. c #775A47",
"$. c #6A5D59",
"%. c #536655",
"&. c #4E6455",
"*. c #78634F",
"=. c #67635D",
"-. c #786757",
";. c #6C6048",
":. c #5A5866",
">. c #4C4774",
",. c #5C5974",
"<. c #514E71",
"1. c #5B6C64",
"2. c #696969",
"3. c #676664",
"4. c #776B66",
"5. c #75726F",
"6. c #636179",
"7. c #6B6979",
"8. c #747474",
"9. c #75757B",
"0. c #7E7E7E",
"q. c #797877",
"w. c #815336",
"e. c #83543A",
"r. c #89573C",
"t. c #83583B",
"y. c #8D5A3D",
"u. c #915B3F",
"i. c #845B43",
"p. c #8E5D42",
"a. c #885B47",
"s. c #925C40",
"d. c #8D6244",
"f. c #8A6249",
"g. c #91644D",
"h. c #976345",
"j. c #856452",
"k. c #8D6856",
"l. c #8C6C5A",
"z. c #886655",
"x. c #936953",
"c. c #9C715D",
"v. c #A5745A",
"b. c #B2775A",
"n. c #866E62",
"m. c #87746A",
"M. c #977A6A",
"N. c #837D7A",
"B. c #877B75",
"V. c #92716E",
"C. c #A57D6A",
"Z. c #AC7870",
"A. c #02807F",
"S. c #54827F",
"D. c #61807F",
"F. c #8B807B",
"G. c #958075",
"H. c #B8856C",
"J. c #A68576",
"K. c #B18176",
"L. c #C18E78",
"P. c #362D82",
"I. c #3B318B",
"U. c #393187",
"Y. c #3E3494",
"T. c #41388A",
"R. c #403693",
"E. c #44399E",
"W. c #423894",
"Q. c #453AA3",
"!. c #493EA6",
"~. c #483DA8",
"^. c #33478D",
"/. c #344C9B",
"(. c #047F81",
"). c #17768F",
"_. c #28629C",
"`. c #394EA0",
"'. c #554E88",
"]. c #554E92",
"[. c #635D95",
"{. c #645F89",
"}. c #7B7987",
"|. c #736F99",
" X c #706C92",
".X c #4D42A7",
"XX c #574DA3",
"oX c #5A51A0",
"OX c #655DA5",
"+X c #058D8D",
"@X c #098B8C",
"#X c #068484",
"$X c #1B8B88",
"%X c #059394",
"&X c #039B9C",
"*X c #099798",
"=X c #0F9697",
"-X c #228985",
";X c #308B88",
":X c #039FA1",
">X c #03A3A4",
",X c #03AAAC",
"<X c #05A5A5",
"1X c #1DA9A9",
"2X c #39A4A6",
"3X c #5E8F90",
"4X c #668B8A",
"5X c #768181",
"6X c #639C9B",
"7X c #828282",
"8X c #8E8E8E",
"9X c #878585",
"0X c #918E8C",
"qX c #94918F",
"wX c #8A8998",
"eX c #909091",
"rX c #AE958E",
"tX c #B298A0",
"yX c #B9A8AD",
"uX c #CC9980",
"iX c #C5A79D",
"pX c #C2B4C4",
/* pixels */
"0.0.0.8.8.8.8.8.8.8.8.8.8.8.8.8.8.8.8.8.8.9.F.D.F.N.0.% + # & , 4 4 3 3 3 | 3  .4.5.q.N.9XF.0.D.N.q.8.8.8.8.8.8.8.8.8.8.8.8.8.8.8.8.8.8.5X7X",
"0.7X0.8.8.q.8.8.8.8.8.9.8.8.8.8.8.8.8.8.8.q.F.D.7X0., O + + + + @ @ X X X X . . . $ $ @ 3.5X0.0.F.0.8.8.8.8.8.8.8.8.8.8.8.8.8.8.8.8.8.q.0.0.",
"0.0.7X0.N.N.0.F.9X9X9X9X9X9X9X9X9X8X8X9X9X8X9X8X8X3 o O @ @ $ + X o X X X . . . . . . . =.8X8X8X8X9X9X9X9X7X5.2.2.2.8.q.N.N.0.0.0.q.0.0.q.9.",
"7X0.0.0.D.F.}.F.0XeXeXeXeXeXeXeX8X8X8XeXeXeXeXeX..X @ @ @ + X + X X + X . .   X . . . . =.eXeX8XeXeX0XeX8X8X2.2.2.2.8.}.0.7XN.D.0.F.}.0.8.8.",
"0.0.7X0.0.}.D.0X8XeX8X8XeXeXeX8X8X8XeX8X8XeX8X8X, @ : O O $ . . X . $ $ .   .   X X   . =.eXeX0X8XeX8XeX8X9X2.2.3.2.8.0.0.0.0.0.0.0.0.0.8.8.",
"D.0.N.}.D.F.}.9XeXeX8X8XeXeX8XeX8X8X8XeXeX8XeX8X, # x.# X X   . . . X $ X X   X     X X =.8XeX8XeX8XeXeXeX8X2.3.2.2.5.0.0.7X0.7X0.7X7X0.8.8.",
"N.7X7XN.N.0.0.7X8X8X8X8X8X8X8X8X8X8X8X8X8X9X8X8X, c.H.> $ $ . . X . $ X X X X .     X X =.8X8X8X8X8X8X8X8X0X4.2.2.2.8.7X7X0.7X0.0.0.7XN.q.8.",
"9XN.N.2.4.2.2.5.8.8.q.8.8.q.8.8.8.2.2.2.2.8.8.8.#.L.H.8 O + X $ . . . X X X X X X   X X O.0.7X7X}.F.5X7XD.F.0.0.0.0.7X8XeX8XeX9XN.7XN.D.F.}.",
"7XF.}.2.3.2.2.2.8.8.8.8.8.8.8.8.8.3.2.3.2.2.8.8.l.H.H.7 @ @ # $ X X . . X X X X X . . X O.D.F.N.0.N.D.F.D.F.7X5X}.0.9XeXeXeX8X7X7XN.0.0.0.0.",
"0.F.D.2.2.2.2.5.8.8.8.8.8.8.8.8.8.2.2.2.2.5.8.8.G.H.iXd # 7 h.h.t.s     . . X X X . .    .F.7X7X0.7XF.}.F.}.N.F.0.0.7XeXeX8XeX7XF.D.0.7X7X0.",
"0.5XF.2.3.2.2.2.8.8.8.8.8.8.8.8.8.3.2.3.3.2.8.8.H.J.pX#.: 7 h.h.w.i     X . . . . . . . ..}.F.D.0.7X0.0.7XN.5X5XD.7X9XeXeXeXeX7X}.F.F.D.0.7X",
"7XN.5X9.8.8.9.q.q.q.q.q.q.q.q.8.q.7.8.5.7.5.8.8.tXZ.tXy.t.t.s.y.i e X .     X . . . . . ..N.N.q.q.0.0.q.0.0.q.q.B.N.N.9X9X9X9X}.0.N.N.q.0.0.",
"0.7XN.eXeX8XeX9X0.7X0.0.5XD.F.7X7X0.0.0.}.8.3.2.yXl.b.r.t.y.d.y.i 9 + $     . . .   . .  .8.8.8.8.8.8.8.5.8.8.8.8.8.8.8.8.8.8.8.8.8.8.8.}.7X",
"0.0.}.eX8XeX8X9X0.0.0.7X5X7X7XN.0.0.0.7XN.9.2.3.rXi.v.w.r p t.t.y.t.2 2 % # X . . . . .  .8.8.8.8.8.8.8.8.8.8.8.8.8.8.8.8.8.8.8.8.8.8.8.F.5X",
"7X0.D.qXeX8XeX9X0.7X0.0.0.0.0.0.0.0.0.0.D.B.6.3.b.p.w.w.9 r i t.d.d.g.f.8 < % $ . . X $  .8.8.8.8.8.8.8.8.8.8.8.8.8.8.8.8.8.8.8.8.8.8.q.D.F.",
"0.F.N.qX8XeXeX8X0.0.0.7X0.0.N.7X7X0.0.N.7X5.3.3.g.w.u u 9 r a a d.d.f.d.@.{ A.T @ @ O O  .8.8.8.8.8.8.8.8.8.8.8.8.8.5.8.8.8.8.8.8.8.8.q.}.F.",
"0.0.0.eXeX8X8X8X8X9X8X8Xq.9.q.8.9.q.8.q.8.8.8.8.i.1 9 r 9 e a t.d.d.a ..;XA.A.` &.a r 7 4.9X9X9X9X9X9X9X9X9X9X8X9X9X9X8X9X9X9X8X9X8X5X9X8.2.",
"7X0.0.0XeXeX8XeX8X8XeX8X0.8.8.8.8.8.8.8.8.8.8.8.a ; 7 7 8 7 q d ;.;.%.1X#XA.' _ / ;.i e n.eXeX8XeXeXeXeXeX0XeXeX8XeXeXeX8X8X8X8XeX8XeX8X2.2.",
"0.7X0.eXeXeX8XeX8XeXeX0Xq.8.8.8.8.8.8.8.8.8.8.8.q ; < < < > , / ` @X*XA.A.' ^ ! ! [ 4 @.q.8XeXeXeX8XeXeX8XeX8XeXeX8XeX8XeX8XeX8X8XeX8X8X2.2.",
"0.0.0.eX8X0XeX8XeX8XeXeXq.q.8.8.8.8.8.8.8.8.8.8.d < < , & < 4 (.@X*XA.A.' ! ! ! ^ ` { 0.0.0X0XeX8XeX8XeXeX8XeX8X8XeX8XeXeXeX8XeX8X8X8X8X2.2.",
"N.D.0.8X8X8X8X8X8X8X8XeX0.8.9.q.9.8.8.8.8.q.8.8.8.8.5.q.T 7 &.<X+XA.A._ ~ ~ ~ ! ^ ' ' ;XN.8X8XeX8X8XeXeX8X8X0X8X8X8X8X8X8X8X8X8X8X9X8X9X5.2.",
"B.8.8.8.8.8.8.8.0.0.5XN.0.0.7X0.F.0.7X0.D.B.8.8.8.8.8.4X] d A.*X%XA.A.A.~ ~ ~ ~ ~ _ ` ] S.7X0.0.N.5X0.0.0.0.8.8.8.8.8.8.8.8.8.2.2.3.2.2.}.0.",
"8.8.8.8.8.8.8.9.0.7X7X0.0.0.N.0.5XN.0.7X0.q.8.8.8.8.9.2X%X%.A.1X&X+XA.` _ ~ ! ! ! ~ _ [ *.B.0.N.5X0.0.0.0.0.9.8.8.8.8.8.8.8.8.2.2.2.2.2.0.F.",
"8.8.8.8.8.8.8.q.0.0.0.0.0.7X7X0.7X5X0.0.7Xq.8.8.8.8.6X=X*X$X:X<X&X&X+XA.' _ ~ ! ! ~ E f.s.g.F.7X7XN.0.7X0.0.8.8.8.8.8.8.8.8.8.2.3.2.2.2.0.0.",
"8.8.8.8.8.8.8.q.7XD.F.7X5X0.0.0.N.5XF.5X0.q.8.8.8.0.1X( <X:X<X:X_ %X&X#XA.' _ ! ! E a.u.u.u.g.N.N.F.}.7XD.}.8.8.8.8.8.8.8.8.8.2.2.2.2.2.5X7X",
"0.7X0.7X7X7X5XN.}.F.0.N.F.F.7X0.}.F.F.}.0.0.8.8.8.6X{ / :X:X,X&XK A.&X&XA.A.' ~ &.p.u.u.s.s.u.k.7XD.F.0.F.F.5XF.7XD.F.7X5X7X7X0.q.q.9.q.8.q.",
"eXeXeX0XeX8XeX9X0.7X0.7XF.D.F.F.0.7XD.F.5X0.8.8.B.G.w 4 >X:X,X&XJ J A.&X%X' ' &.s.u.s.s.s.s.y.e.l.0.N.0.F.7XeX8XqXeXeX8X8XeX8XeX8XeXeX9X2.3.",
"8X0XeXeX8XeXeX8X0.0.0.0.}.0.7XD.0.0.N.7XN.q.8.q.J.f.q 5 *X<X<X+XI J J A.%X$X%.w.e.s.s.s.s.u.u.e.r.m.7X5X0.7XeX8XeX0X0XeXeX8XeX8XeXeXeX8X2.3.",
"eX8XeX0XeXeXeX9X0.0.0.7X0.0.F.}.0.7X}.F.D.B.8.F.c.p s 6 +X<X<X+XI L K L 3.l.x.w.e.r.s.s.s.s.u.r.e.i.B.0.F.5XeXeXeX8XeXeX8XeXeX8XeXeXeX8X2.3.",
"8XeXeX0XeX8XeX9X0.7X0.0.7X0.0.7X0.0.5XF.N.0.q.C.i.p q 6 +X<X<X%XU Y J K R j.l.f.e.e.r.s.s.s.u.s.r.e.i.B.}.N.eX8X8XeXeXeXeX8X8XeXeXeXeX9X2.3.",
"7XF.7X9X7X7X7X7X0.0.0.7Xq.9.8.8.8.q.8.9.8.9.G.x.a p q 6 #X>X<X%X! Y L J K | j.z.p.e.e.r.u.u.u.u.u.e.e.a.0.q.9.q.q.q.q.q.q.q.q.D.7X7X7X7X0.0.",
"0.}.D.F.0.0.0.0.0.7X0.0.q.8.8.8.8.8.8.8.8.B.C.#.a s 8 6 @X>X,X%XU U L J I K ..j.z.p.e.e.u.u.u.u.u.u.e.r.l.q.8.8.8.8.8.8.8.8.B.N.0.0.0.0.0.0.",
"F.}.0.5X0.0.F.N.0.N.0.5X8.8.8.8.8.8.8.8.8.J.x.e.a q w 5 %X:X,X%X! Y I L I I K @.j.k.r.p.u.u.r.e.u.u.u.u.p.n.q.8.8.8.8.8.8.8.8.0.N.9XN.0.0.7X",
"D.7X0.F.7XN.7XD.7X7X0.N.9.8.8.8.8.8.8.5.B.c.i.a p q q 5 @X:X,X%X_ ~ Y Y Y Y L K @.k.x.s.u.u.e.e.e.u.u.u.y.s.n.8.8.8.8.8.8.8.8.0.D.0.7XN.0.0.",
"F.N.F.5X7X7X7X7X7X7X5X9X8.8.8.8.5.9.0.N.J.p.a a a p t 5 @X:X,X%X_ _ U U U Y I L %.*.z.x.s.s.r.e.e.e.u.r.y.y.s.N.0.q.q.q.q.N.9.D.7X7X7X7X7X7X",
"0.7X}.0XeXeX8XeX8XeX8XeX8.3.2.3.2.8X0XqXv.i.e.a a p t 5 @X:X,X&X` _ U U U U W U D.F.*.k.g.s.u.r.e.e.r.u.u.y.p.a.0X8X8X0XeXqXqXqXeX8XeX8XeXeX",
"0.0.0.eX0XeX0X8XeX8XeX8X8.3.2.2.5.eXqXC.a y e.a a p p 6 =X&X,X&X_ _ U / U U ~ ^ 4X8Xm.j.k.p.s.s.e.e.e.r.y.y.p.M.0X8XeX8X0X8XeX0X8XeX8XeX0XeX",
"7X0.0.eXeXeXeXeX8XeX8XeX8.2.3.2.2.eXJ.x.t y a a p p e 3 %X:X,X&X` _ W U U U ^ ^ 3X8X8Xm.z.k.a.s.u.e.e.r.y.s.M.eXeXeX8XeXeXeXeXeXeX8XeX8XeXeX",
"D.F.0.eXeXeX0XeX0XeX8XeX8.2.2.2.5.qXM.y e a a p s p s 5 @X:X,X&X` _ W W U U ^ _ 3X8X8X8Xn.z.k.s.u.y.r.y.p.M.eXeXeX8XeXeXeXeX8X8X8XeXeXeX8XeX",
"F.}.N.7X5X5XF.}.7X0.0.7X8.2.8.2.5.m.q u y e.a e w s q -.(.:X,X*X` _ W W W U ) ^  X9X9X9X9Xz.j.z.s.r.s.s.m.5X7X7X7X5X0.7X0.0.7X9X8XeX8X8X9X9X",
"7XN.7X8.8.8.8.8.8.8.8.8.8.8.8.8.8.8.$.1 w #.y y t t t q.^.`._.%X` ) l x x h v V 6.F.7XF.0.N.*.j.i.p.d.m.8.8.8.8.8.8.8.8.8.8.8.9XeX8XeX8X}.F.",
"7X0.0.8.8.8.8.8.8.8.8.8.8.8.8.8.8.8.8.5.@.1 y y y y 4.}.R.E._.*X` _ l x j j N N 6.D.7X5X0.0.B.z.m.l.m.8.8.8.8.8.8.8.8.8.8.8.8.9X8XeX8X8XF.D.",
"0.0.7X8.8.8.8.8.8.8.8.8.8.8.8.8.8.8.8.8.8.4.X.1 y #.8.0.W.E.Y.).Q G x x N N B N 6.F.N.0.0.7XD.7X}.q.8.8.8.8.8.8.8.8.8.8.8.8.8.9X0XeX0X0X7X0.",
"0.0.0.8.8.8.8.8.8.9.8.8.8.8.8.8.8.8.8.8.8.8.9.$.@.4.8.}.W.E.~.^.B B x x N B N B 6.}.7X0.F.N.9X5XF.q.8.q.9.8.8.8.q.8.8.8.8.8.8.9X8XeX0XqXN.7X",
"7X0.F.D.0.0.0.7X8X8X9X8Xq.8.8.8.8.8.8.8.8.0.8X8X8X8X9X8X|..XQ.D B M j j k j n ,.7.8.8.8.0.8X8X8X8X8X8X8X8X8X9X8X8X0X0XD.5X0.0.7X7XF.7XF.7XF.",
"0.N.7XF.0.0.0.9X8X8XeXeXq.8.8.8.8.8.8.8.8.0.0X0X8XeXeXeX|.~.U.B B x x N V k h :.8.8.8.8.q.8X8XeX8X8X8X8X8X8XeXeX0X0X9XF.7XN.0.0.7XF.}.D.F.D.",
"0.0.N.}.F.F.7X9X8XeX8X8X0.8.8.8.8.8.8.8.8.7X8X8XeX8XeXwX.X~.S B M x k N B V B H 8.8.8.8.0.eXeX8XeX8X8X8X8XeX8XeX0XeX8X}.0.0.0.0.F.D.N.7X5X}.",
"7X0.7X0.0.D.}.9XeX8XeX8X0.8.8.8.8.8.8.8.8.}.0XeXeXeXeXOX~.F S B N c k k v B B k :.8.8.8.q.8X8XeXeXeX8XeXeX8XeX8X8XeX9X0.7X0.0.7X}.0.7XF.D.F.",
"q.9.q.}.0.0.7X7X8X9X8X9X0.q.0.9.8.8.8.8.8.0.8X9X8X9XwX~.W.S B B B B k k N B N k n q.N.D.7X9X8X8X8X0X8X9X9X8X9X8X8X9X9X7X9X7X7X9X7X9X7XF.q.8.",
"3.2.3.F.0.0.0.0.}.7X0.0.0.0.0.0.0.8.8.8.8.q.F.}.0.5XXX~.D B B B B k k k B B M k k 6.qXeX8X}.0.0.D.N.7XN.0.0.7X5X}.N.9XeXeX8XeXeX8XeXeX8X2.2.",
"3.2.2.D.0.7X7XN.F.7XN.7X7XF.0.F.0.8.8.8.8.q.5X7X0. X~.I.S B B S N k k B S N j j k N }.eX8X0.0.0.0.7X}.F.N.7XF.}.F.7X9XeXeX8XeX8XeX8XeX8X2.2.",
"2.2.2.F.N.7XN.D.D.F.0.0.0.F.D.}.0.8.8.8.8.q.7XN.}..XQ.D B B B B k k M B B h h f k k <.eX9XN.0.0.0.N.F.D.7XF.D.0.D.F.9X0X8XeX8XeX8X8XeX9X2.2.",
"2.3.3.0.0.0.}.F.7X5XN.0.}.D.F.F.0.8.8.8.8.0.0.0.[.Y.F S S B B N x k B B M k j f h k v }.8XD.F.N.0.7XF.}.D.F.0.N.F.5X7X8XeXeXeX8XeXeXeX8X2.2.",
"q.0.0.q.q.q.q.q.q.q.9.8.q.q.q.0.8.8.8.8.8.9.q.}.E.Y.S B B B B x k C B B k k k h h k k H 9X9.0.q.q.q.9.q.q.0.q.q.9.q.9.0.q.0.q.0.q.0.0.q.q.q.",
"}.D.N.5.9.8.8.8.8.8.8.8.8.8.8.8.8.8.8.8.8.8.9.oX~.F S B B S c c k B B k k j h h h k M v 7.8.8.8.8.8.8.8.8.8.8.8.8.8.8.8.8.8.8.8.8.8.8.8.7X0.",
"F.0.7Xq.8.8.8.8.8.8.8.8.8.8.8.8.8.8.8.8.8.8.|.~.I.S B S B V x x B B S S k j f h k M M M C 7.8.8.8.8.8.8.8.8.8.8.8.8.8.8.8.8.8.8.8.8.8.q.}.0.",
"}.N.0.8.8.8.8.8.8.8.8.8.8.8.8.8.8.8.8.8.8.9.XXQ.Z B B B B v k k B Z '.F M k j h g c M M N <.8.8.8.8.8.8.8.8.8.8.8.8.8.8.8.8.8.8.8.8.8.8.D.F.",
"F.7X0.q.8.q.q.9.8.8.8.8.8.8.8.q.8.8.8.8.8.[.~.U.S B B B B k k B B <.9.T.F k k h f c N N N C 8.8.8.8.8.8.8.8.8.q.8.8.8.B.8.8.8.q.8.8.q.q.7X7X",
"D.F.F.0X8XeXeX7X8.8.8.8.9XeX0XeX8X2.2.2.7.!.E.S S B B B B k M B Z 8.8.{.I.B M k f j M M N N A 3.2.5.8.8.8.8.5X0.D.7XF.D.F.D.N.8X8XeX8XeX0XeX",
"N.7XD.eX8XeXeX9X8.8.8.8.9X8XeX8X9X2.2.2.[.~.P.B B B B B B B B B ,.9.8.9.T.P.N N j c N N v z - =.3.5.8.8.8.q.F.F.F.7X}.F.7XF.}.9XeX8XeX8X0XeX",
"7X0.7XeXeXeXeX9X8.8.8.8.9XeX8XeX9X2.3.{.~.R.B B B B S B B B B H 8.8.8.8.{.T.B M M N N b z = * | 2.5.8.8.8.8.N.D.F.D.0.0.N.}.F.8XeXeX8XeXeXeX",
"0.0.0.8XeXeX8X9X8.8.8.8.8XeXeX8X8X4.2.8.'.F B B B B B B B B S 6.8.8.8.8.q.'.I.N M N N b * * * * o.7.8.8.8.9.}.F.7XF.}.0.0.7XD.9XeXeXeX8X8XeX",
"F.D.0.9X9X9X9X9X9.q.q.0.5X7X7X7XD.5.8.5.o.z b B Z C m B B B H 8.8.8.8.8.q.}.T.F M N N v = * * * } q.5X7X7X0.0.0.N.0.0.q.q.0.B.7X5X9XF.9X9X9X",
"7XF.}.7X7XN.5X5XF.5XN.7Xq.8.8.8.8.8.7.7.} , R m C z , z n Z 7.8.8.8.8.0.0.7X'.I.B N b = = * * * * 8.8X8XeX0X7X7X0.0.0.8.8.8.8.8.8.8.8.q.}.7X",
"N.0.F.F.7XF.D.F.0.0.0.F.q.8.8.8.8.q.2.O.- - - - - - - - R o.8.5.8.8.8.q.0.7X7X,.H z = = * * * - O.8X8XeX8X8X5XN.F.7X0.8.8.5.8.8.8.8.8.9.0.5X",
"0.7XD.}.0.}.5XF.7X0.7X}.9.8.8.8.8.8.3.R - - - - - - - - } 5.8.8.8.8.8.q.F.}.0.8.o.- * = * * } 8.8XeXeXeXeX8X7X7XD.F.0.8.8.8.8.8.8.8.8.8.0.N.",
"0.0.0.F.0.0.0.7X0.0.0.0.q.8.8.8.8.8.8.3.| - - - - - - - o.9.8.8.8.8.8.0.D.N.0.7X2.O.* * = O.9XeX8XeXeXeXeX8X7X0.N.}.q.8.8.8.8.8.8.8.8.8.}.N.",
"q.8.q.9.8.q.8.q.8.q.8.8.8.8.8.8.8.2.3.2.2.o.} - - - - | 8X9X9X0.0.0.0.0.F.7X0.0.}.2.} 4 2.7X7X7X7Xq.q.q.q.q.8.8.9.q.8.8.8.8.8.q.0.q.0.0.F.7X",
"8.8.8.8.8.8.8.8.8.8.8.8.8.8.8.8.8.2.2.2.3.9.7X:.} z - 8.8XeX8X0.0.7X0.0.D.F.N.5X0.0.q.0.0.0.7XN.D.q.8.8.8.8.8.8.8.8.8.8.8.8.q.N.7X0.7X0.D.N.",
"8.8.8.8.8.8.8.8.8.8.8.8.8.8.8.8.8.2.3.2.2.0.8XeXq.| O.8X8XeX8X0.N.7X0.0.F.}.7XN.0.0.N.5XF.}.F.D.N.9.8.8.8.8.8.8.8.8.8.8.8.8.8.N.0.0.0.0.F.7X"
};
