/* XPM */
static char *result[] = {
/* columns rows colors chars-per-pixel */
"70 70 40 1 ",
"  c gray50",
". c #747474",
"X c gray48",
"o c #8D8D8D",
"O c gray56",
"+ c gray47",
"@ c #686868",
"# c #8E8E8E",
"$ c #8B8B8B",
"% c #777777",
"& c #767676",
"* c #7C7C7C",
"= c gray49",
"- c #818181",
"; c #888888",
": c #898989",
"> c #717171",
", c #848484",
"< c #6D6D6D",
"1 c #6C6C6C",
"2 c #727272",
"3 c gray52",
"4 c gray54",
"5 c gray42",
"6 c #7E7E7E",
"7 c gray46",
"8 c gray51",
"9 c #808080",
"0 c gray55",
"q c #6F6F6F",
"w c #838383",
"e c DimGray",
"r c gray45",
"t c gray43",
"y c gray44",
"u c #797979",
"i c #7B7B7B",
"p c #868686",
"a c #6A6A6A",
"s c gray53",
/* pixels */
"   ..................X    oOOOOOOOO+@@@@#OOO$    %.................&  ",
"   ..................X    oOOOOOOOO+@@@@#OOO$    %.................&  ",
"   *===-;;;;;;;;;;;;;:$$$$#OOOOOOOO=>>>>#OOO#$$$$:;;;,<1112*=======*+%",
"       3OOOOOOOOOOOOOOOOOOOOOOOOOOO ....OOOOOOOOOOOOO45@@@>        67.",
"       3OOOOOOOOOOOOOOOOOOOOOOOOOOO ....OOOOOOOOOOOOO45@@@>        67.",
"       3OOOOOOOOOOOOOOOOOOOOOOOOOOO ....OOOOOOOOOOOOO45@@@>        67.",
"   ****8$$$$$$$$$4444$$$$$$$$$$$$$$9++++$$$$0oooooooo:<555.----9   6&&",
"   5555q%%%%%%%%7<111>%%%%%%%%%%%%%,oooo+%%%X--------9====w####,    66",
"   e@@@1........re@@@t.............3OOOO7...+             3OOOO,      ",
"   e@@@1........re@@@t.............3OOOO7...+             3OOOO,      ",
"   e@@@1........re@@@t.............3OOOO7...+             3OOOO,      ",
"   &&&&%++++++++%yyyyy>>>y%+++X666634444u+++uiiiiiiiiiiiii pppp iii*  ",
"   OOOO:             .@@@@*   wOOOOp        *......................&  ",
"   OOOO:             .@@@@*   wOOOOp        *......................&  ",
"   OOOO:             .@@@@*   wOOOOp        *......................&  ",
"   OOOO:             .@@@@*   wOOOOp        *......................&  ",
"   OOOOo$$$$*%%%%%%%%.>>>>&%%%+****u%%%%%%%%*;;;;;;;;;;;;;;;;;;;;;;3yq",
"   OOOOOOOOOi...............................*OOOOOOOOOOOOOOOOOOOOOO$a@",
"   OOOOOOOOOi...............................*OOOOOOOOOOOOOOOOOOOOOO$a@",
"   OOOOOOOOOi...............................*OOOOOOOOOOOOOOOOOOOOOO$a@",
"666ooooo####*777777777.............77777r...i#########ooooooooo0000;1a",
".......+             X.............i    e@@@q        67........1@@@56 ",
".......+             X.............i    e@@@q        67........1@@@56 ",
".......+             X.............i    e@@@q        67........1@@@56 ",
".......+             X.............i    e@@@q        67........1@@@56 ",
"-------9             X.... --------9    .rrr%         ---------=XXXu77",
"OOOOOOO:             X....$OOOOOOOOp                 -OOOOOOOOOOOOO$a@",
"OOOOOOO:             X...7$OOOOOOOOp                 -OOOOOOOOOOOOO$a@",
"OOOOOOO:             X...7$OOOOOOOOp                 -OOOOOOOOOOOOO$a@",
"OOOOOOO:             X...7$OOOOOOOOp                 -OOOOOOOOOOOOO$a@",
"8888888-    u&&&&&&&&7....+uuuuuuuu%&&&&1111q&&&&&&&&%+uuuuuuuu 888-*i",
"            +...........................e@@@1..................*      ",
"            +...........................e@@@1..................*      ",
"            +...........................e@@@1..................*      ",
"   888888888%222ruXXX%....&&&&&&&&&&&&&&yyyy2XXXXXXXXXXXXXXXXXX 888888",
"   OOOOOOOOOr@@@t#OOO8....=             OOOOOOOOOOOOOOOOOOOOOOOOOOOOOO",
"   OOOOOOOOOr@@@t#OOO8...7=             OOOOOOOOOOOOOOOOOOOOOOOOOOOOOO",
"   OOOOOOOOOr@@@t#OOO8...7=             OOOOOOOOOOOOOOOOOOOOOOOOOOOOOO",
"   OOOOOOOOOr@@@t#OOO8...7=             OOOOOOOOOOOOOOOOOOOOOOOOOOOOOO",
"   999999999.qqq2 999X....+uuui    %2222ppppppppp-99999999999994OOO#sp",
"   ...........................%9   2@@@@         %.............sOOOo9 ",
"   ...........................%9   2@@@@         %.............sOOOo9 ",
"   ...........................%9   2@@@@         %.............sOOOo9 ",
"   77777&&&&.........7&&&&&&&&+    >@@@@6    9999u&&&&&&&&77777p###o9 ",
"   6666w0000X........900000000s7777<@@@@7777*ooooo00000000s66669----  ",
"       3OOOOi........-OOOOOOOO:....<@@@@....*OOOOOOOOOOOOO:           ",
"       3OOOOi........-OOOOOOOO:....<@@@@....*OOOOOOOOOOOOO:           ",
"       3OOOOi........-OOOOOOOO:....<@@@@....*OOOOOOOOOOOOO:           ",
"%%%    w4444*+++%.... 44444444p++++&7777====-4444444444444;,,,,,,,,w+%",
"@@@             6....X             :OOOOOOOO$             3OOOOOOOO$a@",
"@@@             6....X             :OOOOOOOO$             3OOOOOOOO$a@",
"@@@             6....X             :OOOOOOOO$             3OOOOOOOO$a@",
"@@@             6....X             :OOOOOOOO$             3OOOOOOOO$a@",
"uuu+++++++++++++%....&+++++++++++++pOOOOOOOO:+++++++++++++u*********uu",
"   ................................3OOOOOOOO;......................&  ",
"   ................................3OOOOOOOO;......................&  ",
"   ................................3OOOOOOOO;......................&  ",
"   &&&&&....&&&&&rrrr.777777777....wooooooooprrrr.....777777777&&&&+99",
"   OOOOp....;OOO4a@@@r        =.............>@@@@>...&         4OOOOOO",
"   OOOOp....;OOO4e@@@r        =.............>@@@@>...&6        4OOOOOO",
"   OOOOp....;OOO4e@@@r        =.............>@@@@>...&6        4OOOOOO",
"   OOOOp....;OOO4e@@@r        =.............>@@@@>...&6        4OOOOOO",
"   ;;;;wuXXX-www9tttt.XXXXXXXXu....%XXXXXXXXXXXXX ---9    =XXXX9www,;;",
"            +......................i        ,OOOOOOOOo-   i........&  ",
"            +......................i        ,OOOOOOOOo-   i........&  ",
"            +......................i        ,OOOOOOOOo-   i........&  ",
"            %......................i        ,OOOOOOOOo-   i........&6 ",
"&&&&&&&&&&&&7...r5aaaX44444444;====6        98888iuuuu&&&&7....X====  ",
"................re@@@iOOOOOOOO0                  %.............*      ",
"................re@@@iOOOOOOOO0                  %.............*      "
};
