/* XPM */
static char *result[] = {
/* columns rows colors chars-per-pixel */
"70 70 26 1 ",
"  c #000002",
". c #07060A",
"X c #08070D",
"o c #0A080E",
"O c #0D0B14",
"+ c #100D15",
"@ c #110E1A",
"# c #14111E",
"$ c #161221",
"% c #191324",
"& c #1C1529",
"* c #1F192D",
"= c #22172E",
"- c #201A2F",
"; c #241B34",
": c #271F39",
"> c #2A1E3B",
", c #27203A",
"< c #28203B",
"1 c #2D2341",
"2 c #322345",
"3 c #35254A",
"4 c #38274E",
"5 c #39294E",
"6 c #3E2A54",
"7 c #422F59",
/* pixels */
"+oooo.................oooo##%#+........<7776111<+.......+<<11777751<11",
"o  .                  .  .+#@@O        ,66641<<:O       o<<<<56663,,<<",
"o .                   . . ++@@o        ;6664<<>:o       o<<<,56663:<<<",
"o. .                   . .+@@@o        ;6664<<<,o       o<<<,56663<:<<",
"o .       .  XooO     OO+ooX...    =;=;;=;=*@@@+.   o%%%=3323;;=;%@@@+",
"X..      .  .+@@@X    @@@@        X4767=@@@O        #<<<16666$@@@o    ",
"X. .     . . +@@@.   .@@@@.       X4667=O@@O        #<,,26666%@@@X    ",
"X.. .    .. .O@@@.   .#@@@.       X3666=@@@O        #<<<16766$+@@o    ",
"o        +OOO%%%&@.XXX@OOO     oXX+2655;@O@O. .     #;;;>4555#OOOX    ",
"o       o766666662<<<-        #<<<<><<,%@@@@@@@@    X@@@%>,>1.        ",
".       O746666662<>1*        @<<><<,<<&@@@@#@@@.   X@@@$,<<>X        ",
".       o776666662<<,-        @<<<<:<<,%@@@@@@@@    X@@@$>:<<X        ",
".       o666666663<:<*        @<<<<<<<<&@@@@@@@@.   X@@@$<<<<.        ",
".   &22222>12=%%%$$$$%-;;*.   o$$$#OXOoO@@@@ ..      . .o$$$$.        ",
".   ;6664>>>>$@@@@@@@$<<<<X   X@#@O    o@@@O            .@@@@.        ",
".   :6665>>>>$@O@@O@@$<<<<X   .@@@@    o@@@O             @@@@         ",
".   ;7665<<<<$@@@O@@@$,<<<X   o@@@+    o@@@O            .O@@@         ",
".   &2221&&&&@@@@@@@@@@@@+.    .XX.    .X...             XX.X         ",
".   %,<,;@@@@@@@@@@@@O                                                ",
".   %<<<;O@@@@@@@@@@@O                                                ",
".   %<<<;@@@@@@@#@@@@O                                                ",
"o.. $;;;;@@@@@OOOOOO@O. .                   O++OOooO.                 ",
"#+@@@@@@@@@@@.       .@@@@                 O6666<><<#                 ",
"##@@@@@@@@@@@        .@@@@.                +66661:<<$                 ",
"#O#O@@@@@@@#@        .@@@@                 O66661<<<#                 ",
"##@#@@@@@@#O@.       .@@@@..               O6666<:<<#                 ",
"#@@@@@#@@.  .oOOO%;-*;33322222:;;-*        o<11<@XXX.                 ",
"#O#@@#O@O    O@@@*<<>1666666663><<;.       o:<>:X                     ",
"##@@#+#@O    O@@O*>,<1666666663><<;.       o<<<<O                     ",
"##@#@@O#O    O@@@*::<1666677673:<<;        o<<<<X                     ",
"+oooooOoO....&;=;-***->>>>;;==;*--&.       .%%$$.       .%%%&@@@@o    ",
".        #@@@2676;@@@@@@@@    .@@@O                     O7667<<<<$    ",
".        @@@@2666;@O@@@@@@.   .@@@@                     +66661>><%    ",
".        @@@@3666;@@@@O@@@    .@@@O                     O6676>><<$    ",
"o...    .$%$%2646*@@@@@@@O.   X$##@X.X.              ..o@4443::;;%.   ",
",-;;O   o444411<>&@@O@@@@@@OO@$:;::;;;;O            #;;;;##$$$@###OOO#",
"<<<<@   O66661><>&@@@@@@@@@@@@%<<<<<<<<#            #<<<;O@@@@@@@@@@@@",
"1<<<@   O66661><>&@@@#@@@@@@@@&<,<,<<<<O            #<<<;@@@@@@@@@@#@@",
"<<<<@   O66661<,,&@@@@@@@@@@@@%<<<,,<<<#            @<<<;@@@@@@@@@@@@@",
"5335&OoXO%%%$@@+@@@@@OX..X&*-*;,<,,&&%%o        .OooO@@+@@@@@X.X.X..X.",
"7666-@@+O        X@@@O    ;<<<<<<<:@@@@.        @@@@O    @@@@         ",
"7666;+@@O        O@@@O    ;<<<,,<,:@@@@.        O@@@X   .@@@@.        ",
"7767;@@@O        o@@@O    -<<<<,<<:#@@@X        O@@@X   .@@@#         ",
"5222&OOOo        .OOOO    %---;;;;*@OOO.        OOOOO  ..OOOO    .oooo",
"#@@@.                         X@@@@                 X@@@O        @,<<<",
"#@@@.                         .@@@@                 X@@@O        #<<<<",
"#@@@X                         X@@@@                 X@@@O        #<<<<",
"##@@X                         X@@@@       .    ..   o@#@O        #<<<<",
"o. .XOO@o        .OOOO        .@@@@    =2>222111;-;*%@@@@OOOOOOOO@$$$$",
".   O@@@@        o@@@O        .@@@@    ;76666666<<,<&@@@@@@@@@@@#@@@@@",
".   o@@@O        o@@@O        .@@@@    ;664666661<<<*@@@@@@OO@@#@@@@@@",
".   X@@@O        O@@@O        X@@@@    ;666666661<<<&@@@@@@@@@@@@@@@@@",
".   #;;;;%&&&oXXoXooOooo.XoXoXO@@@@@#@#164643233&$#$#@@@$>;:;$@@@OXooo",
".   =76677667%@@@.    @@@@@@@@@@#@$::>>36674<<<:X   X@O@%6666%@@@O    ",
".   ;66666666&@@@X    @@@@#@@@@@@@@:>>>36664><<:X   X@@@%6666%@@@X    ",
".   ;77666766&@@@.   .@@@@@@@@#@@@#:>:>36664<<::X   X@@@=6666$@O@o    ",
"OOXO;56542223#OOO.    OOOOOOOOO@@@@-;;;12231****.   .OOO$22>2%$$$O    ",
"<<:::,,<;O@@@.                X#@@@@@@@@O@@O                 ;<<<%    ",
"1<<<<<<,;@@@@                 .@@@@@@@@@@@@O                 ;<<<%    ",
"1<,<<><<;@@@@.                .@@@@@@@@O@@@O                 ;<<<$    ",
"1<<,<<<,;@@@@.                .#@@@@@#@@@#@O                 ;<<<%    ",
"O...%<<<;        oO+OO    %;;;$ . .    O@@@@+O+O             ..XX     ",
".   %<<,;        o@@#O    ;<<<$        O@@#@@@@@                      ",
".   %<<<;        o@@@O    -<<<%        O@@@@@@@@.                     ",
".   %<<<-        o@@@O    ;<<<%        O@@@@@@@@                      ",
"o.X.#$$%#    .XX.XOoo.    %-**%#@#@XX.XXXoXOoooo                      ",
"#+#+.        O@@@.        O@@@%<<<:#@@@.                              ",
"%#+#.        O@@@.        O@O@&<,,:#@@@X                              ",
"%@@@.        O#+@X        O@@@%<<,,#@@@X                              ",
"#@@@.        OO##X        O@#@&<,,;#@@#X                              "
};
