/* XPM */
static char *_569bd6255e34307f8ea862868e98283beM3rZI9ufvvfISD[] = {
/* columns rows colors chars-per-pixel */
"70 70 231 2 ",
"   c #050406",
".  c #090607",
"X  c #05040C",
"o  c #0A050D",
"O  c #07090B",
"+  c #0B090D",
"@  c #0E0907",
"#  c #060412",
"$  c #0A0514",
"%  c #0C0A14",
"&  c #060419",
"*  c #0C061A",
"=  c #0D0A1B",
"-  c #100717",
";  c #110C15",
":  c #11051B",
">  c #120C1C",
",  c #190E1F",
"<  c #141214",
"1  c #14111D",
"2  c #19141D",
"3  c #1B1A1C",
"4  c #181615",
"5  c #201D1D",
"6  c #0E0523",
"7  c #0E0B21",
"8  c #070321",
"9  c #120523",
"0  c #130C22",
"q  c #180F24",
"w  c #13042B",
"e  c #140B2A",
"r  c #1B0C2C",
"t  c #1A062E",
"y  c #151223",
"u  c #1A1424",
"i  c #1C1A25",
"p  c #171328",
"a  c #1B152A",
"s  c #1D1A2A",
"d  c #150432",
"f  c #190634",
"g  c #1C0A34",
"h  c #1B063C",
"j  c #1D0B3B",
"k  c #170F30",
"l  c #1C1130",
"z  c #1F1B31",
"x  c #211B26",
"c  c #20162B",
"v  c #221C2C",
"b  c #281F2D",
"n  c #200D3D",
"m  c #211633",
"M  c #231D32",
"N  c #291E34",
"B  c #27193A",
"V  c #222227",
"C  c #24222D",
"Z  c #2A252C",
"A  c #2C2A2C",
"S  c #252233",
"D  c #2A2434",
"F  c #2C2A34",
"G  c #2B253A",
"H  c #2E2A3B",
"J  c #26223A",
"K  c #322F36",
"L  c #312D3B",
"P  c #34323C",
"I  c #39353E",
"U  c #373437",
"Y  c #1B0841",
"T  c #1C054C",
"R  c #180446",
"E  c #1E0251",
"W  c #210A43",
"Q  c #21044D",
"!  c #220C4B",
"~  c #230547",
"^  c #281149",
"/  c #230554",
"(  c #240B52",
")  c #2A0C54",
"_  c #240458",
"`  c #2B055D",
"'  c #27085C",
"]  c #2B0C5C",
"[  c #2E1253",
"{  c #281257",
"}  c #31135B",
"|  c #34195B",
" . c #311455",
".. c #2D2643",
"X. c #352D42",
"o. c #373441",
"O. c #393544",
"+. c #3C3A43",
"@. c #3B374A",
"#. c #260363",
"$. c #2A0566",
"%. c #2C0C62",
"&. c #2C0768",
"*. c #2E0A6D",
"=. c #250368",
"-. c #320C64",
";. c #330D6B",
":. c #3C0E6D",
">. c #32066D",
",. c #341363",
"<. c #34136A",
"1. c #3B136D",
"2. c #3B1B6C",
"3. c #381A64",
"4. c #360D73",
"5. c #3A0C73",
"6. c #3D0D7C",
"7. c #380A79",
"8. c #351472",
"9. c #3C1475",
"0. c #3D1B74",
"q. c #3D137A",
"w. c #3A157A",
"e. c #3D2168",
"r. c #413E4A",
"t. c #423F44",
"y. c #401A6C",
"u. c #410E7D",
"i. c #460B7F",
"p. c #421675",
"a. c #431B76",
"s. c #43137C",
"d. c #48167B",
"f. c #441B7B",
"g. c #41216D",
"h. c #442474",
"j. c #49237F",
"k. c #46257A",
"l. c #45444B",
"z. c #48464D",
"x. c #4C4B4E",
"c. c #464447",
"v. c #494453",
"b. c #4D4B53",
"n. c #484656",
"m. c #514E55",
"M. c #54525A",
"N. c #58565C",
"B. c #515055",
"V. c #5C5A63",
"C. c #605C65",
"Z. c #63616A",
"A. c #696969",
"S. c #616066",
"D. c #747474",
"F. c #767676",
"G. c #747474",
"H. c #7F7F7F",
"J. c #7D7D7D",
"K. c #7E7E7E",
"L. c #3C0D83",
"P. c #3E1283",
"I. c #3F1981",
"U. c #3F1789",
"Y. c #430D83",
"T. c #450D8B",
"R. c #480C89",
"E. c #4A0E85",
"W. c #431483",
"Q. c #491585",
"!. c #451A84",
"~. c #4A1B84",
"^. c #45148A",
"/. c #4A148B",
"(. c #461A8B",
"). c #4C1B8C",
"_. c #521C86",
"`. c #521A8A",
"'. c #551B8C",
"]. c #470F95",
"[. c #471591",
"{. c #4B1593",
"}. c #4C1B93",
"|. c #4A1899",
" X c #511594",
".X c #521C93",
"XX c #531C9B",
"oX c #591D9D",
"OX c #571798",
"+X c #601F9F",
"@X c #452380",
"#X c #4B2384",
"$X c #4D238B",
"%X c #4F288D",
"&X c #482786",
"*X c #532B86",
"=X c #53238B",
"-X c #56278C",
";X c #4E2193",
":X c #532395",
">X c #5A2594",
",X c #552A93",
"<X c #5B2A93",
"1X c #55239A",
"2X c #5A249B",
"3X c #5B2B9D",
"4X c #562C99",
"5X c #5C3398",
"6X c #63249E",
"7X c #622D9D",
"8X c #642A96",
"9X c #62339E",
"0X c #4F19A1",
"qX c #5D1DA2",
"wX c #5119A1",
"eX c #611AA6",
"rX c #5D23A1",
"tX c #5D2AA2",
"yX c #5623A1",
"uX c #622BA4",
"iX c #6926AE",
"pX c #622DAA",
"aX c #6B2CAB",
"sX c #6626A4",
"dX c #6432A5",
"fX c #6833AB",
"gX c #6A31A4",
"hX c #6F37B7",
"jX c #712CB6",
"kX c #838383",
"lX c #8E8E8E",
/* pixels */
"H.H.H.D.D.D.D.D.B.z.z.l.l.l.B.M.n.b.M.M.B.x.x.b.b.x.N.N.C.C.C.V.Z.Z.S.b.+.l.l.+.N.N.V.C.V.M.N.V.V.v.z.z.c.c.c.x.x.M.M.n.B.V.D.D.D.D.D.F.H.H.",
"H.H.H.D.D.D.D.D.F 0 y = & 1 F y 7 y H z = # # y u % $ = D a 6 0 G M 1 & % p y = ; - Z i > > c x > $ * q , ; ; @ V s = = z O.D.D.D.D.D.F.H.H.",
"H.H.H.H.H.H.H.kX@.H ..s = C C 1 % % i = O = i G G u $ i x i > % i 1 O O u ..J i > > x , - - 2 , o o y G G x ; < S i y & 1 H J.J.J.J.J.J.F.F.",
"H.H.H.H.H.H.H.kXl.p y y # = # O   O % # O & S k e u > - + O   O % % # = v m q u % > % - o $ $ + o o Z c , y 1 $ & = X X % i K.J.H.H.H.H.F.D.",
"H.H.H.H.H.H.kXkX+.7 = & O O X % 3 ; < O X = q e : > $ o o o 3 < O # X # p 0 , = $ # - $ 3 ; O + o o 2 , $ : = & # O i i % 3 H.H.H.H.H.J.D.D.",
"H.H.H.H.H.H.kXkXo.= y C S z & < V % % O $ = 0 * p N K v o + V < X + # = > > y c G c ; $ Z , $ o o - , ; > N J z 7 % F 1 X 2 H.H.H.H.H.H.F.F.",
"H.H.H.H.J.H.J.kXH p z y 1 y % & 7 # s C = % = i M q , y : $ & & s S y # % , M a p q ; o , $ = S , X - q N a r l y # = O = +.H.H.H.H.H.J.F.F.",
"H.H.H.A.A.A.A.A.o.H z = 1 i i & & y z 1 = = > H D 1 % a N * & = s y % % % G N q e c x $ $ * s s : = > D N q e a S 1 # # i P lXkXH.H.H.H.J.J.",
"H.H.H.A.A.A.A.A.S % - $ u N 0 & & = & % = s 1 = $ o - b 0 & & = = & % i 1 > 0 * 0 M e $ & & = # % i > * : * > b s # & % & v lXkXH.H.H.H.H.H.",
"H.H.H.A.A.A.A.A.C % # o * > 0 y y y 1 & y = & $ $ o + , $ q y a y & p 7 & $ * $ $ * > > y y 7 & y p $ $ $ $ $ - & = 0 y 1 s lXkXH.J.H.H.H.H.",
"H.H.H.A.A.A.A.A.P < = % = : a L S y s i y = i y ; - + ; y L D 0 p p y 8 a u - $ $ > , D A 1 1 y = = u s : $ $ > 1 M D x p L lXkXJ.J.H.J.H.H.",
"H.H.H.F.F.D.F.F.t.i % $ > , v M = # p s & s G s $ + + ; v D ; . 3 V % u K x - X - ; 2 C ; O 2 C = y G x + $ - > s D ; $ 1 o.kXkXJ.J.J.J.H.H.",
"H.H.H.lXlXlXlXlXI % - o > - > = = & # y = q p * - o > , * , @   . < $ ; x > - % 2 % $ ; % X X = = = C < @ - ; , $ $ - o X i D.D.D.D.D.F.H.H.",
"H.H.H.lXlXlXlXlXU @ - o ; x > % & # # # & > 0 * 0 > , v 0 = + o # $ $ 9 9 $ : : , c 0 $ $ X X X # + < O ; + - x q - + . + x D.D.D.D.D.F.H.J.",
"H.H.H.lXlXlXlXkXZ + $ o > , y G s & y S S 7 9 6 9 * * e r w : 9 9 w w n f 9 & * 6 p e 0 * & $ % % + O @ +   % , : c b - - X.D.D.D.D.D.F.H.H.",
"kXH.H.lXlXlXlXlXF > 1 o $ 9 ..a w e G M r ( ] } Q ~ ( ) / -. .Y Q ) -.] <.:.) ~ ) / Q ^ ! R Y 9 < X # 0 r ; - : N B 9 : N @.D.D.D.D.D.F.H.H.",
"H.H.H.lXlXlXlXlXO.L G u - u c 0 : * s p 6 | k.a.1.,.1.0.4.4.,.-.;.0.%X!.$Xs.-.,.0.8.;.,.( E ! e $ X y S S i > - v c : $ u P kXlXlXkXlXkXA.D.",
"H.H.H.lXlXlXlXlXv.u > 2 - ; + - # = % $ : | k.4.;.a.f.&XP.$X=X>.5.!.)..X1XL.q.j.&XU.I.j.<.E ( f $ X G D 2 y , + - :   O ; x lXlXlXlXlXlXA.A.",
"H.H.H.lXlXlXlXlXr.q > % + o   ; 2 ; % X * | <.4.#X#Xa.5.w.!.,X~.s.Q.Q.Y.6.Y.~.#Xw.w.q.j.&X%.Q d # < s > % % & O X $ 3 4 . 5 lXlXlXlXlXlXA.A.",
"H.H.H.lXlXlXlXlXL * > c b 2 o ; C % + X * [ -.f.*Xa.2.:.4.4.s.~._.~.s.5.s.3X~.a.w.w.:.1.a.0.) t & = & % % s s s > o A 4 . 5 lXlXlXlXlXlXA.A.",
"H.H.J.lXlXlXlXlXF 2 v z c a $ + < X 2 i e ] a.*Xf.1.p.a.!.W.6.s.=X).).s.,X2Xu.9.w.U.I.9.:.:.-.n > + O = C z z p y + = O % o.lXlXlXkXlXkXA.A.",
"D.D.D.D.J.F.G.F.K F M 9 e B a $ X = C u g } 0.W.6.5.5.).:X1X^.^.U.^.^.(.^.].u.5.U.;X1X~.p.` ) t % O # C z 7 7 z s = # = s F D.A.A.A.A.A.H.J.",
"D.D.D.D.D.D.G.F.F < > & p S p # $ = = $ 9 } f.).s.6.E.'.6X6XQ.q.W.U.(.(./.{.u.W. XwXrX`.y.` } g % i y y = 7 y s i = & = > s D.A.A.A.A.A.H.H.",
"D.D.D.D.D.D.D.J.F $ # # & = 7 % % = > = m  .9.).:X^.6.'.OXsX=XW.!.P.W.W.^.1X2Xu.R. XrX>Xa./ / t = > & = & # # = = = = > = s D.A.A.A.A.A.H.H.",
"D.G.G.G.F.F.F.F.I < % = % & p H D i y 1 e | f.Y.>XdX^..XgX+XQ.Q.:X(.).}./.[.fX3X/.XXaX/.p.;.<.^ 7 % z y = # % % y F F z y C D.A.A.A.A.A.J.J.",
"H.H.kXH.kXkXkXH.z.i % X = = C S ; # i s 9 e.*XW.6.:X:X:XsXR./.'.9X!.^.uXqXY.Q.>X).XXXXs.q.~.a.h y = S C % O = 7 i z 1 & 1 o.H.K.F.J.F.J.F.F.",
"lXlXlXlXlXlXlXkX+.O % # 1 = % y % # # = 9 } #X>XW.P.^.P./.R..X6X).s.Y.XXjX2Xs.s.W.[.^.q.!.!.' w 7 = C 1 O < % y 7 7 < O # C lXlXlXlXlXlXA.A.",
"lXlXlXlXlXlXlXlXA + % + 2 s 1 % % = X # *  .j.7X).P.(.[.^.{.oXQ.W.W./. XiXfX~.s.:X[.P.$X!.&./ w O % 1 O O O % V y & O O # V lXlXlXlXlXlXA.A.",
"lXlXlXlXlXlXlXkXA O + X - ; > C i # y D G e.k.Y.W.P.(.(.^.1XwX/.W.s./.OX]. Xu.p.).U.(.&Xp.&./ w = + O O O   % 7 = z i O % o.lXlXlXlXlXlXA.A.",
"lXlXlXlXlXlXlXlXF < + + - % G p * 7 J M g e.=X.X!.W.(.(.L.|.|.P.q.Q.fX+XoXrXQ.s.^.U.^.d.4.&.` g y O + = = % < O C z 7 p S @.lXlXlXlXlXlXA.A.",
"kXkXkXkXkXkXkXH.O.L G < % x M u = * S p 6 h.5X.X6.q.).;X|./.^.L.P.).3XaXiX/.P.~.,X;X).d.5.$.] g * + = G S C % 1 J s = = p ..J.H.kXkXkXH.H.J.",
"kXkXH.H.kXkXH.H.n.a y 2 ; ; o - $ & = % * e.j.L.W.$X$X$XY.2XpX^.P.^.`. XOXT.).$X;X[.Q.<X~.#.' g # O S S y 1 1 & & = O O O V D.J.H.H.H.H.H.H.",
"H.H.H.H.H.H.kXkXO.0 > - o o + @ 1 ; X X * [ ;./.4X$Xf.d.p.Q.1X1X}.^.^.E.E..X3X$XU.L.P.d.~.9.] f $ O 1 > y = = # # & < <   3 D.J.H.H.H.H.H.H.",
"H.H.H.H.H.H.H.kXL > > s i 2 % ; V > % O :  .9.tX1XW.9.9.s.Y.Y..XtX;X^.^. XaX,XW.U.P.6.5.q.w.2.n , % > % # y s y = O V 3   3 D.J.H.kXH.H.H.H.",
"H.H.H.kXkXkXkXkXZ 1 a c c x - + % X > 2 : | f..XW.q.I.(.`. XY.W.|.[.}./.1XXX6.q.P.}.Q.d.q.&.,.g - $ % 1 C z z p = # < % O A F.H.kXkXkXlXkXkX",
"H.H.H.lXlXlXlXlXI A x > e c a % $ > s a w | 9.Y.7.7.W.1XpXpXE.Y.[.|.1X[./.R.q.6.$X1X7X=Xq.&.%.j > X % C G y 7 s s = O # y P lXlXlXlXlXlXlXlX",
"H.H.H.lXlXlXlXlXU > ; > 0 M u $ $ # = ; 9 } q.=X).6.L.OXiXeX/.^.|.].0XR.'.6X/.i.)..X:X.XP.*.%.h * 1 y 1 1 = y z p 7 & = 7 S lXlXlXlXlXlXlXlX",
"H.H.kXlXlXlXlXlXK o $ # > 0 : > % = < % m } q.~.,X:XT.{.eXjX.XQ.[.U.|.R.i.oXsX/./..XuXdX!.=.%.h : 1 & # # # & p 7 & = & % i lXlXlXlXlXlXlXlX",
"H.H.H.lXlXlXlXlXI > ; > $ : , G S y 1 < q 2.@Xu.$XdXXX{.iXeX^.).tX[.[.2X`.R.rXuX/.1X3X(.7.I.0.Y q X y = & & = & y G H z 1 C lXlXlXlXlXlXlXlX",
"H.H.H.kXH.H.kXH.m.x - $ > y c Z > $ V V 9 g.,X).7.).:XXXrXR.^.>X9X(.R.6X8X X/..X`..X}.7.I.%X<.f : > D G = % = = p J y O y o.kXlXlXlXlXlXkXlX",
"H.H.H.D.D.D.D.D.K + ; + > > > - $ $ o , , ,._.gX!.W.L.^./.{.1X).!.W./.R.gXdXQ.Y.^.W.W.!.!.w._ f = 1 z 1 # # # 1 = = % o o x D.kXlXlXlXlXH.H.",
"H.H.H.D.D.D.D.D.K + % + 2 x > $ + $ o - : ,.~.>XQ.W.(.).^.1XwXP.!.W.|.|.6X2X/.W.Q.W.!.$Xf.$.E f $ O 1 + % % = s = = % X # x F.kXlXlXlXlXkXH.",
"H.H.H.D.D.D.D.D.V % X X - 1 > b x o ; x B y.d.Q.q.(.!.W.^..XwXY.W.(.|.rXOXQ.^.Q.).!.W.!.q.#./ f - ; % X O # % y y z 3 o - D F.kXlXlXlXlXH.H.",
"H.H.H.G.G.G.G.D.F = % % - % v v q 9 N v B h.=X>XW.I.U.W.).{.T.L.^.[.hX2XuXOX/.Y.).Q.W.q.9.&.] g , + # % = % % # i z y 1 c X.J.kXlXlXlXlXH.H.",
"H.H.H.K.H.H.K.kX@...C 1 + s C y 0 : M q 9 y.-X/.u.!.$X:X/.2X2XL.L.).1XtXtXY.L./.:XQ.!.4X7.#.' j > X $ G K s & y S u > - q X.H.H.H.H.kXkXH.J.",
"H.H.H.H.H.H.H.kXn.z p i % = % > o & > - : | 9.u.#X*X#X!.6.}.tX}./.^.Y.^.Y.^.:X1X;Xq.w.,X$X&./ f $ + C C y p p = = * o . - Z H.H.H.H.H.H.H.J.",
"H.H.H.H.H.H.H.kX@.y y = # # X $ > , o o - [ 1._.<X#X9.s.u.7.^.4X1X/.L.P.^.tX3X!.!.w.q.4.!.w.,.g $ O i y = % $ & # # < < @ x H.H.H.H.H.H.H.H.",
"H.H.H.H.H.kXkXkXP 7 = s s i $ > Z < X o - [ p.=X~.9.5.s././.P./.4X).}.Q.:X4X!.I.W.s.q.5.8.;.<.j - ; > = & p s u = & Z 3 . 5 H.H.H.H.H.H.H.H.",
"F.F.F.H.H.H.H.kXK > s z S M O % 2 o > u :  .p.W.5.4.q.).1X:XQ.6.Q.!.).W.).s.4.q.~.=X-Xd.q.$.] g - ; % = s s S s = # < + + A kXkXkXkXlXH.J.F.",
"A.A.A.H.H.H.H.H.U D S 7 8 i 3 % # > v v r | p.^.u.4.4.).rXrXW.W.)./.).s.).W.7.6.d.'.8X_.9.$.%.f ; $ % M G > = a s = # $ s L lXlXlXlXlXlXA.A.",
"A.A.A.K.H.H.H.H.F y 1 = p S y = $ : > ; t } p.~.).6.6..X.X2X`.W.W.W.Q.d.~.:X`.E.Q.'.'.>Xp.#.Q t $ < < p e = q D s = & & 7 C lXlXlXlXlXlXA.A.",
"A.A.A.K.H.H.H.H.D X # # = y = = : 0 : $ r | 1.p.-X<Xs.Q.oX3X}.Y.Q.s.s.d.u._.7X1XR.`.>X>X:.] { g o 3 % = * & = 0 = * & $ & C lXlXlXlXlXkXA.A.",
"S.A.A.kXK.H.kXH.P % % O & & 7 D Z v - > p 3.0.9.p.*X-X~.6Xd.7.Q.2XQ.Q.:X(.9.d.:XQ.$X=X:.<.1.2.g > # 0 * 0 > = * y G L s 1 C lXlXlXlXlXlXA.A.",
"F.F.F.F.F.F.F.F.l.s % % = 1 i C < > x i e | k.f.9.p.s.p.Q.5.p.=X~.6.W.).,Xk.9.f.!.!.9.1.8.2.( f * : N D > * , 0 s G 1 < i P J.J.J.J.J.J.J.J.",
"kXH.H.D.G.G.G.D.U % % % % 1 = ; o # # 2 > n 3.k.1.<.;.;.;.1.y.,.-.-.;.;.&X&X8.8.8.*.&.<.,.T R w * u N y o $ $ 0 = 0 # O O i D.D.D.D.D.F.J.H.",
"K.K.H.D.G.G.G.G.F O % # 2 y = % % % $ $ $ r ^ { T T ( ( ) [ W h Y h d Y ! ^ T T { T ^ ! h Y w * o $ p % % $ - x 0 * = O O i D.D.D.D.D.F.H.H.",
"H.H.kXD.D.D.D.D.V % O O = 1 y V u & y i 3 = 7 8 8 8 9 e e z k 6 e m p p = & * 9 7 7 0 a l w e i 5 ; $   + O - y q a y # = H D.D.F.D.D.F.H.H.",
"H.H.H.F.F.F.D.D.V % & O = = V s s = S F 1 $ & & = % % - c a p 7 S G y 1 & # $ & & & s i q > v D 5 + o O o % - * a N 1 1 s O.D.F.J.J.F.F.H.H.",
"H.H.H.lXlXlXlXlXo.H H i O i F = & = s y # # 7 B S u $ u G a = * s p # & 7 ..G p 7 y S i % # y i o X % G L c $ , S c % % y P K.lXlXlXlXlXlXlX",
"H.H.kXlXlXlXlXkXl.z p s = 7 % % $ X % % X % S J p u $ * > 0 % $ & = # # S G a a 1 = 1 7 % X = < X $ b N i q q > 0 > $ # % v kXkXlXlXlXlXlXlX",
"H.H.H.lXlXlXlXkXO.q q > # # # % - % + $ + % v y e > - # $ o $ % $ # O + V y p = # # & # = O O % X $ i u > > > $ $ $ 2 $ O V kXkXlXlXlXlXlXlX",
"H.H.H.lXlXlXlXlXH 0 * q i 1 # < Z 5 + o   - 2 , * q i - $ , Z 2 % o   ; = = # y y y % O F u X % $ $ 1 > $ y q 0 * * D u & i kXlXlXlXlXlXlXlX",
"H.H.H.lXlXkXkXkXG q v N v i % % y o ; , - $ $ > a M N x - @ , + ; 2 ; - % = p S v i = X y # # u % % $ % c M D c 0 $ q - $ F F.kXkXkXkXkXlXkX",
"H.H.H.H.H.H.kXH.O.N v 0 ; u , $ - : b b y - - C N > * , < + o - v Z > $ % M M 1 < 1 1 % O O i Z = X # v N > > q u $ $ - i P D.D.D.F.F.F.H.H.",
"H.H.H.H.H.H.H.H.L c q : c b c - : u q : * > , , > : q N x + - u = $ $ u > s i = u C V # O = y = % 1 1 i y 1 p S M = # ; q D D.D.D.D.D.F.J.H.",
"H.H.H.H.H.H.H.H.D $ : - : c ; : - : * $ u s * $ $ - - q : : $ > = # 0 s $ & & & # y 1 # % & = & y i = # # & = y 1 & - : : x D.D.D.D.D.F.H.H.",
"H.H.H.H.H.H.H.H.L - $ > o : ; N N s > > y , = & $ $ $ > > D S s y y y & = & % # # = = S S i y y y & = & & # # & = s D s ; b D.D.D.D.D.F.H.H.",
"D.D.D.F.F.F.F.F.v.M > = , q v G y = x a = > H S : : 0 q x G a = s C = = H S = 0 y y i G s 7 y i = 7 F J y = 1 1 v G i % c O.D.F.J.J.J.J.H.H.",
"D.D.D.D.D.D.D.D.@.= = $ = > y p & # & y = y S 1 $ & = 1 0 0 = # & y > 1 S p & & & = = 1 = # & y = y C y & % # = 1 y = & # V D.J.H.H.H.H.H.H.",
"D.D.D.D.D.D.D.D.b.K F H o.K H K F S C F D P l.I P P l.@.o.+.P F F H L P c.P P K o.+.L L P H F P P H +.H F L P O.H H F A A P D.J.H.H.H.H.H.H."
};
