/* XPM */
static char *_197ae8838ad48fc9dd367acdbe79956aeskFFBW8mHZIzuN[] = {
/* columns rows colors chars-per-pixel */
"70 70 129 2 ",
"   c #050406",
".  c #090507",
"X  c #0D0906",
"o  c #06040C",
"O  c #0A050D",
"+  c #06090C",
"@  c #0B090D",
"#  c #110B0F",
"$  c #060413",
"%  c #0B0614",
"&  c #0C0A14",
"*  c #06041A",
"=  c #0C061A",
"-  c #0D0A1A",
";  c #100716",
":  c #110C15",
">  c #12061D",
",  c #120C1C",
"<  c #180D1E",
"1  c #0E1017",
"2  c #0F111A",
"3  c #131114",
"4  c #14111D",
"5  c #1A141E",
"6  c #1C1A1C",
"7  c #211E1D",
"8  c #0F0523",
"9  c #0E0A21",
"0  c #120523",
"q  c #130D22",
"w  c #190F24",
"e  c #15062A",
"r  c #150C2A",
"t  c #1A0D2D",
"y  c #151223",
"u  c #1A1424",
"i  c #1C1925",
"p  c #171229",
"a  c #1B152A",
"s  c #161828",
"d  c #1D1A2B",
"f  c #1A0B32",
"g  c #1E1B31",
"h  c #201626",
"j  c #211B26",
"k  c #211629",
"l  c #221C2D",
"z  c #2B1F2C",
"x  c #220E38",
"c  c #231435",
"v  c #231D32",
"b  c #2A1F33",
"n  c #2B1F39",
"m  c #311A3E",
"M  c #242325",
"N  c #24212C",
"B  c #29242C",
"V  c #2A292B",
"C  c #312C2F",
"Z  c #252233",
"A  c #2A2534",
"S  c #2D2A34",
"D  c #262339",
"F  c #2B243A",
"G  c #2D293B",
"H  c #312D36",
"J  c #31263A",
"K  c #322C3C",
"L  c #333035",
"P  c #35323C",
"I  c #3A373B",
"U  c #3D3A3A",
"Y  c #211040",
"T  c #2D2542",
"R  c #2D2941",
"E  c #312243",
"W  c #332E41",
"Q  c #363243",
"!  c #3A3545",
"~  c #3D3A44",
"^  c #3C334A",
"/  c #3C394C",
"(  c #3B2A57",
")  c #423E45",
"_  c #413C4B",
"`  c #434346",
"'  c #46444A",
"]  c #49464D",
"[  c #4B494D",
"{  c #464251",
"}  c #494452",
"|  c #4D4B52",
" . c #4E405F",
".. c #4A4859",
"X. c #514E55",
"o. c #524F59",
"O. c #515055",
"+. c #55535B",
"@. c #59565D",
"#. c #59595E",
"$. c #534662",
"%. c #534963",
"&. c #594E67",
"*. c #5B5564",
"=. c #5C5963",
"-. c #5E5669",
";. c #5F586C",
":. c #605E65",
">. c #625C6C",
",. c #616165",
"<. c #64626A",
"1. c #68676B",
"2. c #696969",
"3. c #676070",
"4. c #6B6573",
"5. c #6E6A72",
"6. c #716E74",
"7. c #726C79",
"8. c #747474",
"9. c #767379",
"0. c #78767B",
"q. c #7E7E7E",
"w. c #797680",
"e. c #7F7D81",
"r. c #817D87",
"t. c #838383",
"y. c #868588",
"u. c #8E8E8E",
"i. c #8F8E90",
/* pixels */
"q.q.q.8.8.8.8.8.O.[ } [ ' ' O.O.....+.+.O.[ [ | [ | +.+.:.<.=.=.,.<.:.[ ~ ' ' ~ +.+.:.>.#.+.#.=.+.| ] ] ' ` [ [ X.+.o...O.<.8.8.8.8.8.8.q.q.",
"q.t.q.8.8.8.8.8.Z y y - & 2 S p - y S N - $ % u u % % , Z a 9 r G d 2 % - p 5 - # & A u , < l k ; = = w , # # @ Z u * y D O.8.8.8.8.8.8.q.q.",
"q.t.q.q.q.q.q.t.~ G R s - N N 4 - & y - o - s F F u = j j i 2 - d 4 $ % d T b u ; u l , ; ; u , $ O i J A h & y Z y 2 $ y O.q.q.q.q.q.q.q.8.",
"q.q.q.q.q.q.q.t.{ s y y % - % +   o 1 & $ - Z p r u ; % @ .     & & o - v a a u & ; & ; O % & . O % z k 5 u : & & - o $ 1 [ q.q.q.q.q.q.8.8.",
"q.q.q.q.q.t.q.y.Q 9 - - $ + o & 6 1 @ + $ - y e 0 , = . . O 6 1 + % o & y q q = $ % ; O 6 : . O O # 5 < = ; = * $ $ M y + ' q.q.t.q.q.q.8.8.",
"t.q.q.q.q.q.q.y.Q - y g Z d & 2 N 1 % + % - , = u Z A i O : N 3 o $ + - , - w v Z d ; ; B , % O % ; 4 ; w Z v g * 1 S & o ' q.q.q.q.q.q.8.8.",
"q.q.t.q.q.q.q.t.G d g y 4 4 % % - $ d N - & - d v , < u ; * * $ d Z 4 $ % u v a u u ; . , % y l > $ ; h b a r a y $ & + 5 #.t.q.q.q.q.q.8.q.",
"q.q.q.2.2.2.2.2.P G Z - 2 d s * * p d y - 1 5 G l u ; v v = * q s y % & , H v e e l j % $ 0 d p = ; y J v e q v g & $ - N #.u.y.q.q.q.q.q.q.",
"t.q.q.2.2.2.2.2.A % ; % a v 0 % * - - * - s 0 , = % , B , * * - - % - s , , 0 = q v , * $ * * $ - d ; > = = y l y % $ - * +.u.t.q.q.q.q.q.q.",
"q.q.q.2.2.2.2.2.V & $ O = , q y y 2 - - p , $ % % O O : = u p a r - s - $ = - % = - ; w p 4 4 - u y $ $ = ; = ; & 4 q y - O.u.y.q.q.q.q.t.q.",
"q.q.q.2.2.2.2.6.P 4 : & ; > d W Z y d p 4 - s u ; # # : u K Z q u p 9 9 a u ; % % , u S N 2 s 4 - * d i O % ; , y A v i s #.u.y.q.q.q.q.q.q.",
"q.q.q.8.8.8.8.8.~ i % % , q l l - $ s d - d F i % @ ; : l l # . 6 j & i H j O O ; : h l & @ 6 N - d F 7 O % ; < d Z % ; 5 #.y.q.q.q.q.q.q.q.",
"t.q.q.u.u.i.i.y.I & ; % 4 & ; , - $ % 2 - y u * ; % 5 , - , X   O 3 ; , h ; & = u & ; ; % o o - - 2 j @ ; ; 3 , % % ; . o ' 8.8.8.8.8.8.q.q.",
"q.q.t.u.i.u.i.u.L O # O , j ; - * $ % * * , 9 8 , ; , v 0 > @ O % % * 0 0 $ > = q j - & % o o o + % 3 X # O : l > % ; . % ' 8.8.8.8.8.8.q.q.",
"q.q.q.u.u.i.u.u.V # O o , , u G g * a Z Z 9 0 0 0 = 0 p a r , 5 e e e Y f 0 > 0 0 r q 0 * * - - & @ @ @ . . , ; , n h ; 7 o.8.8.8.8.8.8.q.q.",
"q.q.t.u.u.u.u.y.A , 5 % % r E p 8 r F v e ( *.=.*.#.9.r.q.q.t.u.y.y.r.w.4.7.3.4.q.9.9.7.5.*.*.y : + % r w , ; < n c > 0 n o.8.8.8.8.8.8.q.q.",
"t.q.q.u.u.u.u.u.! K F u ; i k q = 9 d y 8 $.8.6.2.8.8.8.8.8.8.q.q.8.q.q.8.8.q.8.8.8.8.8.q.y.y.l & % u D l u ; 5 l w ; = h #.y.y.u.t.u.t.2.8.",
"q.q.t.u.u.u.u.u.} u ; 5 ; ; O ; $ - - O >  .8.8.8.8.8.8.8.8.8.8.8.8.8.8.8.8.8.8.8.8.8.8.q.u.u.m o & G l 5 5 : ; ; = . X # X.u.u.u.u.u.u.2.2.",
"q.q.q.u.i.i.u.u._ q ; & @ O O # u - & o 8 o.8.8.8.8.8.8.8.8.8.8.8.8.8.8.8.8.8.8.8.8.8.8.q.u.i.! % - s , - & % $ o & M 3 X O.u.i.u.u.u.u.2.2.",
"q.t.q.u.i.i.i.u.H = q v N 5 O 3 M & O o =  .8.8.8.8.8.8.8.8.8.8.8.8.8.8.8.8.8.8.8.8.8.6.q.u.i.K & 1 - & 4 d d s & & V #   O.i.i.u.u.u.u.2.2.",
"q.q.q.u.u.u.u.u.H i l d p u % & & o i j e $.9.9.8.8.8.8.8.8.8.8.8.8.8.8.8.8.8.8.8.8.8.8.q.u.u.! & + + y g s p s - o - $ 4 ,.u.u.t.u.u.t.2.2.",
"8.8.8.8.q.8.8.8.L V l 0 t n a % o 4 d y f >.8.8.8.8.8.8.8.8.8.8.8.8.8.8.t.q.t.q.2.2.2.2.6.q.q.H ; + 2 D d q r g s & $ 2 i [ 8.2.2.2.2.2.q.q.",
"8.8.8.8.8.8.8.8.S - - - p v p $ @ , - % 0 >.8.8.8.8.8.8.8.8.8.8.8.8.8.q.q.q.q.q.2.,.2.2.8.q.q.K - i y 2 9 9 s s i & * - - ` 8.2.2.2.2.2.q.t.",
"8.8.8.8.8.8.8.q.S $ $ $ $ * - - 2 , , ; c %.8.8.8.8.8.8.8.8.8.8.8.8.8.q.q.q.q.q.2.2.2.2.2.r.q.E , - * % $ $ $ 2 - y 2 y - ` 8.6.2.2.2.2.q.q.",
"8.8.8.8.8.8.8.8.U 2 1 1 & * s K N p y 5 0 >.8.8.8.8.8.8.8.8.8.8.8.8.8.q.q.q.q.q.2.2.2.2.2.q.q._ - * g 2 & % - - s G N s i [ 8.2.2.2.2.2.q.q.",
"q.q.q.q.q.t.t.q.[ 7 & o - 2 N l & % i i r 6.8.8.8.8.q.t.t.t.t.t.q.q.t.t.q.q.q.q.8.8.8.6.0.q.q.! y s D M + % - 2 s d & % y +.t.q.8.q.8.q.8.8.",
"u.u.u.u.u.u.u.u.~ + + + 4 - & 5 & $ $ - 8 6.8.8.8.8.y.u.i.i.u.u.u.u.u.y.q.q.q.q.t.q.q.q.q.q.q.~ - & N @ + - 3 4 4 - - $ $ +.u.u.u.u.u.u.2.2.",
"u.u.u.u.u.u.u.t.V % & + y d 4 & - - o % 8 5.8.8.8.8.u.i.i.i.u.u.u.u.u.y.q.q.q.t.q.q.q.t.q.t.q.P @ 1 1 . @ + - N , - + @ + +.u.u.u.u.u.u.2.2.",
"u.u.u.u.u.u.u.u.V @ @ o & & , A u $ p S E 6.8.8.8.8.u.u.u.u.i.i.u.u.u.y.t.q.q.q.t.q.q.q.q.q.e.) 3 + o .     - - 9 G 5 + y :.u.u.u.u.u.u.2.2.",
"u.i.u.u.u.u.u.u.S 5 : @ : ; R q * 9 D v f 5.8.8.8.8.u.i.u.i.i.i.u.u.u.y.q.q.q.t.q.q.q.q.q.q.e.} , O & - - 1 3 2 D d * p D >.u.u.u.u.u.u.2.2.",
"u.t.t.t.u.t.t.q.! K A : & j l u - - v y 0 3.8.8.8.8.0.8.8.q.8.8.q.q.q.8.8.8.8.8.2.2.6.2.6.8.9.) & + s G Z s + s Z y - - s O.0.t.t.t.t.q.q.q.",
"q.q.q.q.q.q.q.q.{ d u 5 & : O ; % $ - % 8 *.8.8.8.8.8.8.8.8.0.8.8.8.8.8.8.8.8.8.2.2.2.2.2.8.9.] O & A g y 4 4 % * - o + + ` 8.q.q.q.q.q.q.q.",
"q.q.q.q.q.q.t.q.~ 0 = % O O X # 6 3 o O % &.8.8.8.8.8.8.8.8.8.8.8.8.8.8.8.8.8.8.2.2.2.,.2.8.8.[ # # < , 2 - - $ $ & 6 #   ` 8.q.q.q.q.t.q.q.",
"q.q.t.q.t.q.q.q.S ; q l l 6 ; ; j - % o > :.8.8.8.8.8.8.8.8.8.8.8.8.8.8.8.8.8.8.2.2.2.2.2.8.8.X.# # , ; - d g y - % V 1   ` 8.q.t.t.q.q.q.q.",
"t.q.q.t.t.t.t.t.V u j l d u & O & $ , j 0 >.8.8.8.8.8.8.8.8.8.8.8.8.8.8.8.8.8.8.8.8.8.8.8.q.8.X.; @ % u Z s s y * + 1 o 3 O.8.q.t.t.t.u.t.t.",
"q.q.q.u.u.u.i.i.U C j , e a i ; & 9 k w e >.8.8.8.8.q.q.t.t.q.q.q.q.q.q.t.q.q.t.u.u.u.i.u.u.u.#.; o 4 S Z 9 r d d 1 o - i #.u.u.u.u.u.i.u.u.",
"q.q.q.u.u.i.i.i.H ; & = q v r % $ & & & 0 >.9.8.8.8.q.q.q.q.q.t.q.t.q.q.t.q.q.q.u.u.i.i.u.u.i.=.= u 9 - - * p g 9 * * - - +.u.u.u.u.u.i.u.u.",
"q.t.q.u.u.u.i.i.L % % % = , > y , - 1 % c 7.8.8.8.8.q.q.t.q.q.q.q.q.q.q.q.q.q.t.u.u.u.i.u.i.i.=., , $ $ $ % * s 9 - - - $ O.u.u.u.u.u.u.u.u.",
"q.q.t.u.u.u.u.u.) 5 ; , - , u J N 5 6 5 e 5.8.8.8.8.q.q.t.q.t.q.q.q.q.q.q.q.q.q.u.u.u.u.u.u.u.1., O a 4 - - - * d W Z a 2 #.u.u.u.u.u.u.u.u.",
"q.t.q.q.t.q.t.q.[ h & % ; , l l - % i j < 2.8.8.8.8.8.8.8.8.q.q.t.q.q.8.8.8.8.8.y.y.y.y.y.y.t.#., 5 F N % - - - s g & % s +.t.u.u.u.u.u.y.u.",
"q.q.q.8.8.8.8.8.L ; : @ , , : ; % O # , 0 >.6.8.8.8.8.8.8.8.8.t.q.q.t.8.,.2.2.2.8.q.q.q.q.q.q.@.% 4 d - % % - 2 9 * O O = ] 8.y.u.u.u.u.t.q.",
"q.t.q.8.8.8.8.8.V & @ O 5 l , ; ; = O ; 0 >.8.8.8.8.8.8.8.8.8.t.q.q.q.8.2.2.2.2.q.q.t.q.t.q.q.@.O & 2 o & + y d 2 - O O % ) 8.y.u.u.u.u.t.q.",
"q.q.t.8.8.8.8.8.B @ . o : , , A h O 5 z m 2.6.8.8.8.8.8.8.8.q.q.q.t.q.8.2.2.2.2.q.q.q.q.q.q.q.@.: : o o + $ & y y F 5 O : X.8.y.u.u.u.u.q.q.",
"q.q.q.8.8.8.8.8.G q 2 - & : Z u , r b a x 6.0.8.8.8.8.8.8.8.8.t.q.q.q.2.2.,.2.2.q.t.q.q.q.t.q.#.< & - 2 4 * % - Z u > w n O.8.y.u.u.u.u.t.q.",
"q.q.q.q.q.q.q.t./ R Z 4 o N d 5 > 8 k w 0 4.u.u.u.u.u.u.u.u.y.8.8.8.8.2.2.2.2.,.8.8.8.8.q.u.u.2.; o 5 K G y % d l q < ; h +.q.q.q.t.q.t.q.q.",
"t.q.q.t.q.q.q.y...d y s - & $ , $ $ , ; 0 7.i.i.u.u.u.u.u.u.u.8.8.8.8.2.2.2.2.2.8.8.8.8.q.u.u.,.. : A p 2 p y * * % . . ; [ q.q.q.q.q.q.q.q.",
"q.q.q.q.t.q.q.y./ 9 - y + $ o & u 5 O . > 4.u.i.u.u.u.u.u.u.t.8.8.8.8.8.2.2.2.2.8.8.8.8.q.u.u.,.% O i y - - % * $ % 7 3 X [ q.q.q.q.q.q.q.q.",
"q.q.q.q.q.q.q.y.K 2 9 v Z d % 3 N ; . O > 5.i.u.u.u.u.u.u.u.u.8.8.8.8.2.2.2.,.2.8.8.8.8.8.u.u.8.; 3 2 * - l l i * - M 3 . [ t.q.q.t.q.q.q.t.",
"8.8.q.q.q.t.q.t.L 6 g s d s + @ < $ u j 0 1.u.y.u.y.u.u.u.y.y.8.q.8.q.8.q.8.8.q.q.q.q.q.t.y.u.#.: - % 4 N p p y % $ & + 3 +.t.t.y.t.y.t.q.8.",
"2.2.2.q.q.q.q.q.I S g 9 q g j 1 $ , l u f 3.q.q.q.q.q.q.q.q.t.q.q.q.q.t.u.u.u.i.u.u.u.i.u.q.e.o.; O 4 G Z 0 y Z d - $ - d =.u.u.u.u.u.u.2.2.",
"2.2.2.q.q.q.q.q.S - - * y Z s & $ > ; : e >.q.q.q.q.q.q.q.t.q.q.q.q.q.u.u.u.i.i.u.u.i.u.y.q.q.+.O 6 2 q > = a Z y $ * - - +.u.u.u.u.u.y.2.2.",
"2.2.2.q.t.q.q.q.V o o % * q * , w u ; = c 4.t.q.q.q.q.q.q.q.q.q.q.q.q.u.u.u.i.i.i.u.u.i.y.t.q.+.O 4 - - = * = , - 4 - - $ +.u.u.u.u.u.u.2.2.",
"2.,.2.q.q.q.q.q.~ 4 & - - - y A z d 5 , t 3.q.q.t.q.q.q.q.q.q.q.q.q.q.y.u.u.u.u.u.i.i.i.u.q.q.#.; $ a , q 0 ; q a Q V i s #.u.u.u.u.u.y.2.2.",
"q.8.q.8.q.8.8.8.` s & + & q i i # & y i e >.8.q.0.0.0.0.0.0.q.0.8.q.q.t.u.u.u.u.i.i.u.u.y.q.8.#.= y F l & & = u a Z & & 5 O.q.q.q.q.q.q.8.q.",
"q.q.q.8.8.8.8.8.L @ & & 4 2 & - @ $ o 4 , =.8.8.8.8.8.8.8.8.8.8.8.8.8.t.u.u.u.u.u.u.u.u.y.8.8.+.= u v : % & , q - 0 + o + ' 8.8.8.8.8.8.q.q.",
"q.q.q.8.8.8.8.8.V & @ o - i 4 % & * & % O ] 5.2.2.2.2.2.8.2.6.2.8.8.8.t.y.y.u.y.y.u.y.u.e.2.1.H O : , O ; O ; l - q & $ $ ` 8.8.8.8.8.8.t.q.",
"q.q.t.8.8.8.8.8.M & + $ - 4 4 N s * s M i : 9 * 9 - q u j F v p V I G Z s 5 y u d l l A b r l B 7 # O . O % ; q y b 4 + y o.8.8.8.8.8.8.q.q.",
"q.q.q.8.8.8.q.8.V 2 2 & - 4 N s y 9 G Z - % 9 8 q ; = , Z p 9 9 D N 2 - & - - - - , N y - , A N 3 @ $ ; ; ; - , F a & s Z +.8.9.8.q.8.q.t.t.",
"t.q.q.u.u.u.u.y./ R A g % i N 4 - & u - $ + p T Z u O h Z a - - y - $ * p R D a - s N y & $ i 2 o $ 5 W K u = u l u % % 4 O.q.u.u.u.i.u.u.u.",
"q.q.t.u.u.u.u.y./ s y s * - % + $ o & & o - Z v q u = = $ - % % - % $ - G g p y * - * - $ o - @ o - Z d u u ; , = - % $ & | q.y.u.i.u.i.u.u.",
"q.q.q.u.i.i.i.y.Q q q > & $ & & 5 : & O @ : d w 0 q - $ % ; 4 ; & O o @ i y y * % + * + 5 & + % o % i 4 > ; = % % ; j = $ [ q.y.u.u.u.u.u.u.",
"q.t.t.u.u.u.i.y.F , , v N u & : M < O . O : , ; ; d l 5 O u B 3 ; O . 3 - $ - l N i 1 & V - $ % @ - , - , l v l ; > A : $ [ q.u.u.u.u.i.i.u.",
"q.q.q.u.y.y.y.t.A k l k h u ; % < O u h ; % % u Z u k u . O ; O 5 j ; ; & p g s s 4 & o - o 2 i % % $ 5 v k d u - $ , % 4 +.0.t.t.t.t.y.y.u.",
"q.q.q.q.t.q.q.q.^ J l , < h 5 = ; w l k w ; , B l 0 , h 7 ; O < j h ; & , G d 5 4 5 s 1 o & M i - + - F l > , l d = ; , j | 8.8.8.8.8.8.q.q.",
"q.q.t.q.q.t.q.q.J , > > k b w ; , w , > - u ; > % > w z u O = q - $ - d - q 9 - p N p o % - 2 % - s - - - , d Z y $ = < < ] 8.8.8.8.8.8.q.q.",
"q.q.q.q.q.q.q.q.H = ; ; % < = q , , $ = a u = % % % % > > w , , - & y y $ $ - $ $ 2 - - 1 - y - s y * $ $ * - - - , , , ; _ 8.8.8.8.8.8.q.q.",
"q.q.q.q.q.t.q.t.P > = , % > w J b l u , q - y y > % % w u J G s p s 9 % a , - $ $ - y G D d y y - - p , - $ $ 4 y G Z u w [ 9.8.8.8.8.8.q.q.",
"8.q.8.8.8.8.8.8.{ l , - , w k Z * $ i d - i G d % > , w l Z , * s N - y G d - - y 2 d g - - p s - s A Z - * - y v Z , - h +.8.0.q.q.q.q.q.q.",
"8.8.8.8.8.8.8.8.I - * & 5 - - 6 - * % y % 2 Z * & $ y , - , * $ $ - - y Z * - $ - - - - - $ $ y % p d - - $ - - - - & + o ` 8.q.q.t.q.q.q.t.",
"8.8.8.8.8.8.8.8.,.O.O.O.+.O.O.O.| ' ' [ ' =.1.,.,.:.5.1.<.<.,.+.+.@.+.#.,.#.=.@.=.=.#.#.#.+.+.+.+.+.#.O.O.O.+.+.O.O.O.| | ,.8.q.q.q.q.q.q.q."
};
