/* XPM */
static char *b090c464cd90489ac65034097ec990c5B0QD1cyJgZsk8Sta[] = {
/* columns rows colors chars-per-pixel */
"70 70 208 2 ",
"   c #2C1E0D",
".  c #271A0A",
"X  c #301F0F",
"o  c #2E1F10",
"O  c #2E200F",
"+  c #32210E",
"@  c #2E2011",
"#  c #332212",
"$  c #3E2914",
"%  c #382713",
"&  c #451F0A",
"*  c #45230C",
"=  c #48240F",
"-  c #492611",
";  c #432C15",
":  c #482D15",
">  c #58311A",
",  c #47311B",
"<  c #62331F",
"1  c #4E3522",
"2  c #503322",
"3  c #5C3B28",
"4  c #5A3A27",
"5  c #6B3A28",
"6  c #703B28",
"7  c #30453C",
"8  c #5E4530",
"9  c #6D442C",
"0  c #66452C",
"q  c #73472E",
"w  c #6D4B35",
"e  c #724A33",
"r  c #7A4F36",
"t  c #764636",
"y  c #7E553F",
"u  c #78553A",
"i  c #0E5754",
"p  c #105653",
"a  c #1F4D49",
"s  c #18625F",
"d  c #026D6E",
"f  c #026F70",
"g  c #027676",
"h  c #157977",
"j  c #136461",
"k  c #2B6E69",
"l  c #32786F",
"z  c #30534D",
"x  c #574E45",
"c  c #755E50",
"v  c #416056",
"b  c #7B6A5F",
"n  c #477366",
"m  c gray40",
"M  c #66666B",
"N  c #696969",
"B  c #7F746D",
"V  c #747474",
"C  c #7E7E7E",
"Z  c #7C7875",
"A  c #854C3B",
"S  c #804E33",
"D  c #83553A",
"F  c #86583A",
"G  c #895A3C",
"H  c #855538",
"J  c #935B3D",
"K  c #8E5E40",
"L  c #845546",
"P  c #925040",
"I  c #925F4B",
"U  c #8A674E",
"Y  c #9D6545",
"T  c #976445",
"R  c #876B5C",
"E  c #936B54",
"W  c #956F5A",
"Q  c #986F5B",
"!  c #946253",
"~  c #94715C",
"^  c #9B725D",
"/  c #8F725E",
"(  c #A66C4C",
")  c #A86F51",
"_  c #A77053",
"`  c #AA7154",
"'  c #B1785B",
"]  c #957362",
"[  c #9D7460",
"{  c #867771",
"}  c #837A74",
"|  c #837D79",
" . c #8D7F78",
".. c #897B74",
"X. c #9E757F",
"o. c #A67A64",
"O. c #AA7D66",
"+. c #AB7E68",
"@. c #A47C66",
"#. c #B77F65",
"$. c #AB7A74",
"%. c #8B817B",
"&. c #87827E",
"*. c #9F8478",
"=. c #A6816A",
"-. c #A9816B",
";. c #B4846D",
":. c #B98369",
">. c #B98675",
",. c #BD8B73",
"<. c #B8877B",
"1. c #AC8B7B",
"2. c #C18D75",
"3. c #C28C79",
"4. c #CA8F72",
"5. c #C39175",
"6. c #C9957B",
"7. c #C8967C",
"8. c #C3886A",
"9. c #383087",
"0. c #393188",
"q. c #3D3491",
"w. c #3B3D98",
"e. c #41369A",
"r. c #43389E",
"t. c #403697",
"y. c #4439A1",
"u. c #2C4C8E",
"i. c #21719D",
"p. c #216192",
"a. c #3C47A0",
"s. c #5D458F",
"d. c #4A4193",
"f. c #574E9B",
"g. c #584694",
"h. c #57509D",
"j. c #5B539D",
"k. c #5F5A93",
"l. c #4D5D9B",
"z. c #68598B",
"x. c #654F86",
"c. c #676195",
"v. c #6B659A",
"b. c #6A649A",
"n. c #5A54A0",
"m. c #716BA0",
"M. c #7D6DA3",
"N. c #9E7682",
"B. c #806EA1",
"V. c #028B8C",
"C. c #068282",
"Z. c #1E918E",
"A. c #108A9C",
"S. c #029494",
"D. c #019B9B",
"F. c #099798",
"G. c #1F9290",
"H. c #03908F",
"J. c #21928F",
"K. c #229591",
"L. c #229A96",
"P. c #269B99",
"I. c #218F8E",
"U. c #02A09F",
"Y. c #029FA0",
"T. c #0F97A8",
"R. c #1399A7",
"E. c #119CB0",
"W. c #02A3A4",
"Q. c #02A8A7",
"!. c #02A7A8",
"~. c #02ABAC",
"^. c #09A6AB",
"/. c #1BA2A3",
"(. c #02AFB0",
"). c #02B1B1",
"_. c #27A7A3",
"`. c #23A8A6",
"'. c #22AAAC",
"]. c #2CA8A8",
"[. c #28AFB0",
"{. c #2DB2B3",
"}. c #428982",
"|. c #498F86",
" X c #428F89",
".X c #598C8C",
"XX c #518486",
"oX c #44938A",
"OX c #698383",
"+X c #738B8B",
"@X c #689596",
"#X c #828282",
"$X c #8D8682",
"%X c #8F8F8F",
"&X c #8C8C8C",
"*X c #8E8E8E",
"=X c #988983",
"-X c #958E8A",
";X c #97908D",
":X c #98918E",
">X c #BC8A80",
",X c #C89983",
"<X c #D3A189",
"1X c #CFAD9C",
"2X c #D2B1A1",
"3X c #E7E3EB",
"4X c #FEFEFE",
"5X c #FAF8F6",
/* pixels */
"C C C V V V V V V V V V V V V V V V V V V Z C C C C x + + O O # # O   . . .   O O O O O V C C C #XZ V V V V V V V V V V V V V V V V V V C C ",
"#XC C V V V V V V V V V V V V V V V V V V Z C C C C 8 + + O O # # O   . . . .   O O O O Z C C C C Z V V V V V V V V V V V V V V V V V Z #XC ",
"C C #XC C C C #X#X&X$X&X#X&X#X&X&X+X&X#X&X&X&X&X*X%Xx @ O O O # O % % $ ; ; ; $ O O O + Z &X&X&X&X&X+X$X&X#XN N N N V C C C C Z C C C C Z V ",
"#XC C C C C #X#X%X%X%X%X%X%X*X&X*X%X%X%X%X%X&X%X%X%Xx @ O O O # O % % ; : : ; ; O O O + | *X*X*X%X%X%X%X%X&XN N N N V C C C C C C C C C V V ",
"C C #XC C C #X#X%X%X%X%X%X%X%X%X%X%X%X%X%X%X*X*X%X%Xx O 1 U U U U E ^ E E E E U r u $ + | %X%X%X%X%X%X%X%X&XN N m m V C C #XC C C C C C V V ",
"#XC C C C #X#X#X%X%X%X%X%X%X%X%X%X%X%X%X%X*X*X&X%X%Xx O 8 5.5.7.7.<X<X7.6.6.7.5.:.:.: % | %X%X%X%X%X%X&X&X&XN N N m V C C C #XC #XC C C V V ",
"C #XC C C C C #X*X&X%X*X&X&X&X&X&X&X&X&X&X&X&X&X*X&Xb w U 5.5.5.5.,X,X3.:.2.7.5.:.` w 0 &.&X&X&X&X&X&X&X&X&XN N N N V #XC &.#XC C C C Z V Z ",
"C C C N N N N N V V V V V C V V Z N N N N V V V V OX*.;.;.,.,.;.;.>.>.+.o.;.6.2._ _ _ _ %.#X#X#X#X#X#X#X#XC C C C C #X*X*X&X;X+XC | C %.M.| ",
"C C C N N N m V V V V V V V V V V N m N m V V V V V *.>.,.,X,X#.$.>.>.-.O.$.3.>.#.o.` ` %.C C C C C C C C C C Z C &.&X*X*X%X%X#X+X| | | | N.",
"C C #XN m m N N V V V V V V V V V N m N N N V V V V *.,.2X4X3Xs.s.$.8.2.6.N.g.M.4X4X>X;.%.C C #X#XC #XC C C C %.| +X#X%X%X%X%X#XC C | +XC OX",
"#XC C N N m N N V V V V V V V V V m N m m N V V V V *.2.2X5X3Xr.t.$.#.3.3.N.s.B.5X5X<.;.&.C C C C C C C C #XC M.| C #X%X%X%X%X#XC C C C C | ",
"C C #XV V V V V C V C V V C V V Z N V V V V V V N V ] ) ' 3.,X$.8.P c t r ! >.>.:.-.K T } Z C Z C C Z C Z C V C C C C #X#X#X&X#XC V C C C +X",
"#XC #X%X%X%X%X&XC C C C +XOXC C C C C C | V m N N N [ ( ) :.8.3.3.A 6 t t I 4.8.( ( G F %.B V V V V V V V V V V V V V V V V V V V V V C C OX",
"C C C %X%X%X%X&X#XC #XC | N.C C #XC #XC M.V N m N N / T Y ( ( t t A A A L A r A Y Y G F %.N V V V V V V V V V V V V V V V V V V V V V V C N.",
"C #XC %X%X%X%X&.C C | C | | C &.C C C C } V N N m N R T T ( G * = A A P A 6 - < T T G F B V V V V V V V V V V V V V V V V V V V V V V V C C ",
"C C C %X%X%X%X&X#XC Z %.M.+XC C #XC C C | V m N N m R L G G S * * 5 6 6 6 < - < K K F F } V V V V V V V V V V V V V V V V V V V V V V V C C ",
"C #XC %X%X%X%X%X&X&X&X&XC V V V V C Z Z V V V V V N c q q q 9 * * & & = = = = > F G H u Z &X#X&X&.&X+X$X&X#X&X&X#X&X&X#X&X&X#X&X&X#X&X#XV N ",
"C C #X%X%X%X%X%X%X%X*X*XZ V V V V V V V V V V V V Z c q 9 9 5 = - = = - - - - > D D r r } %X%X;X%X%X%X%X%X%X*X*X*X*X%X%X*X*X*X*X%X%X&X&XN N ",
"C C C %X%X%X%X%X%X%X%X%XC V V V V OX/./.[././.[.'.R.h i i i a 2 2 3 3 2 1 1 1 7 i p p j P.].{.{.[.{.].].@X%X%X*X%X%X%X%X%X%X%X%X%X%X&X&XN N ",
"#XC C %X%X%X%X%X%X%X%X%XC V V V V OXU.U.(.(.).).~.Q.g d d d s 4 4 e e 3 4 4 4 z d f g g U.!.(.(.Q.~.Q.W.@X%X%X*X%X%X%X%X%X%X%X%X%X&X&X&XN N ",
"C C C &X%X&X&X&X*X*X*X%XC OXZ V Z OX~.(.~.~.).).Q.D.S.V.C.V.C.k k w e q 9 v k h V.H.H.S.D.W.).).(.Q.~.).@X&X*X%X&X&X&X&X*X*X*X&X&X&X&X&XN N ",
"V V V V V V V V #XC C C C C C C +X+X).).~.~.).).Q.U.W.W.W.W.W.S.H.u r r u l S.W.!.!.!.!.U.W.(.).(.(.).)..X| V V V V V V V V V N N N m N | +X",
"V V V V V V V Z C C C &.C C C C | +X).).(.(.).).~.!.~.~.~.!.Q.W.W.n n n n Z.W.!.(.~.).(.~.!.).).(.(.(.(..XC V V V V V V V V V N N m N N | +X",
"V V V V V V OXZ #XC C C C C C #X| +X~.~.).).).).).(.(.(.(.).(.^.!.U.D.D.D.W.Q.~.(.(.).).).).).).).).(.~..X#XV V V V V V V V V V N N N N | | ",
"V V V V V V V C C C C C C C #XC +X+XW.!.).).).).~.!.~.).(.(.(.~.~.W.Y.D.D.Q.~.(.).).(.(.~.~.).).).).(.Q..XC V V V V V V V V V N M N m M C C ",
"C &.C #X#X#X#XC C C C C C #XC C | +XY.W.).).).).Q.W.~.).).(.(.).(.W.Y.D.D.!.(.(.(.).).(.W.W.).).).).Q.W..XC #X&.C C #X#XC #X#XC C Z Z C V V ",
"%X%X%X%X%X%X*X#XC C #XC C C C C | +XP.P._._._._.P.P./.~.~.~.~.).).W.W.D.D.!.(.(.).(.~.~.L.L.`.`.`.`.L.L.OXC %X%X%X%X%X%X%X%X*X%X%X%X&X&XN N ",
"%X%X%X%X*X*X*X&XC #XC C C C #XC N.$X+.+.-.+.-.+.O.-.oXD.D.D.W.).).).(.Y.D.~.).!.D.D.D.K.=.-.-.-.-.=.=.=.%.#X%X%X%X%X%X%X%X%X%X%X%X*X*X&XN N ",
"%X%X%X%X%X%X*X&X#XC +X| | M.C #XOX$X+.+.+.O.+.+.O.-.|.D.D.D.W.).).(.(.Y.D.~.).!.D.D.D.K.-.O.;.O.-.-.-.;.%.&.*X%X%X%X%X%X%X%X%X%X%X%X%X&XN N ",
"%X%X%X%X%X%X&X&XC C &.C | } C C C $X+.+.[ Q o.+.O.O.|.D.D.D.W.).(.~.~.D.D.~.).~.!.Q.D.L.=.O.O.-.^ ^ o.O.%.C %X%X%X%X%X&X%X%X%X%X*X*X%X&XN N ",
"#X&.+X&.&.+X&.#XC C C C Z V V Z V &.O.@.Q Q @.+.-.-.|.D.D.D.W.).).~.!.Y.D.^.).(.!.!.D.K.=.O.O.O.^ ^ o.O.%.V C V V C C Z V Z C C &.&.+X&.| Z ",
"C C &.C C C &.C #XC #XC V V V Z V | O.O.Q W o.+.` [ }.D.D.~.~.(.(.Y.D.Q.!.(.(.(.!.Q.D.J.^ ^ O.O.^ ~ o.#.Z V V V V V V V V V V C C C &.C C #X",
"#XC #XC C #XC #XC C C C V V V V V | +.O.Q Q o.O.[ W }.D.!.(.(.(.(.D.D.Q.Q.~.).~.~.W.D.G.~ ^ -.O.^ ~ o.o.} V V V V V V V V V V Z C C #XC #XC ",
"C C C C C C C C C #X&.C C V V V V | O.O.o.o.+.O.^ W }.D.Y.(.(.(.(.D.D.W.!.(.).~.!.W.D.G.~ ~ O.O.o.o.O.O.} V V V V V V V V V V C C C C C C C ",
"C C C #X#X#X#X#X#X#X+X&.V V N V V | O.O.o.O.O.O.[ W }.D.Y.).(.(.(.D.D.Q.!.~.).~.!.Q.D.Z./ ~ O.O.O.O.O.O.%.Z Z C V C C C V C V +X#X#X#X#X&.+X",
"C #X#X%X%X&X%X%X%X%X%X&XV N N N N :XO.O.O.O.O.O.Q W  X!.~.(.(.(.(.D.D.Q.~.(.).).~.Q.D.G.~ ~ O.O.O.O.O.O.=X%X%X%X*X*X&X*X%X*X-X-X%X%X%X%X%X%X",
"C #XC &X%X%X%X%X%X%X%X%XV N N m V :X+.+.O.O.O.O.[ W oX(.(.(.).(.(.D.D.Q.!.).).(.).!.D.Z.~ ^ O.=.O.O.O.O.*.;X%X%X%X%X%X%X%X%X%X%X%X%X%X%X%X%X",
"C C #X%X%X%X%X%X%X%X%X%XV N m N N :X+.O.O.O.O.O.o.Q oX~.!.!.~.~.!.U.D.!.~.~.).~.).!.D.Z.^ ^ O.=.O.O.O.O.=X%X%X%X%X%X%X%X%X%X%X%X%X%X%X%X%X%X",
"C C C &X&X%X%X%X%X&X%X%XV N N N N :X+.O.O.O.O.+.o.+.|.D.D.D.D.T.D.Q.!.(.).!.!.~.).!.D.J.=.=.-.' O.O.O.O.=X-X-X+X%X%X%X%X&X&X%X%X%X%X%X*X%X%X",
"C #XC #X#XC #XC #X#XC #XV V N N V $XO.O.O.+.o.o.+.o.XXA.A.T.i.T.A.R.T.E.E.T.T.^.~.Q.D.J.=.O.o.o.O.O.O.O.%.+XC N.#XC #XC | %.M.&X%X%X%X*X&X#X",
"C #XC V V V V V V V V V V V V V V &.O.O.O.+.^ W o.O.z.y.y.y.y.y.y.y.y.d.y.y.y.i.).!.Y.I.=.' W W o.' -.-.Z V V V V V V V V V V &.%X%X%X*XC C ",
"C C #XV V V V V V V V V V V V V V | O.o.o.+.Q W o.+.x.y.y.y.y.h.y.y.y.y.y.y.q.i.(.^.Y.I.=.=.W W ' =.' =.{ V V V V V V V V V V &X%X%X%X*XC #X",
"C C C V V V V V V V V V V V V V V | W ^ O.o.^ W Q Q z.y.y.y.y.y.y.h.y.y.y.y.y.a.w.p.S.G./ W ~ ~ [ =.^ ^ B V V V V V V V V V V +X%X%X%X*X#X#X",
"#XC C V V V V V V Z V Z V V V V V | W Q o.@.^ W ] Q s.y.y.y.y.y.y.y.y.y.y.y.y.y.9.u.F.I./ W ~ ~ O.=.^ / B V Z V V V Z V V Z Z &.*X*X*X*XC C ",
"C #XC C C C C #X*X*X$X*XZ V V V V V } } ..$X-X-X%X:Xm.y.d.y.y.y.y.y.y.y.y.y.y.y.w.a.a.l.#X%X-X-X;X:X;X;X*X*X*X*X&X&X#XC C C C #X#X#XC #XC C ",
"C C C #X#XC #X#X%X%X%X%XC V V V V V V V V #X%X-X%X%Xm.y.y.y.y.y.y.y.y.y.y.y.y.y.y.y.y.h.B.%X%X%X*X*X*X*X%X%X*X*X*X*X&XC C C C C C #XC C #XC ",
"C #XC C C C C #X%X%X*X;XZ V V V V V V V V | %X%X%X%XM.y.y.y.y.y.y.y.y.y.y.y.y.y.y.y.y.h.C %X%X%X%X%X*X*X%X%X%X%X*X*X&XC C #XC #XC C C C C C ",
"C C C C #X#X#X#X%X%X%X-Xv.V V V V V V V V +X%X%X%X%Xm.y.y.y.y.y.y.y.y.y.y.y.y.y.y.y.y.n.C -X%X%X%X%X%X;X%X%X%X%X%X%X&XC C C C C C #XC C #XC ",
"V V Z C C C #X#X&X&X&X&XZ V C V V V V V V C $X&X&X&Xv.y.y.y.y.y.y.y.y.y.y.y.y.y.y.y.y.j.#X&X&X&X&X$X&X&X&X&X&X&X#X&X#X#X#X&X&.+X&.+X&.&.C V ",
"N N N C C C C C C C C #XC C C C C V V V V C +XC | C v.y.y.y.y.y.y.y.y.y.y.y.y.y.y.y.y.n.&XC C C C +XC C C C C C C C &X%X%X%X%X;X%X%X%X*XN N ",
"m N m C C #XC C C #XC C C #X#XC C V V V V C C C C OXv.y.y.y.y.y.y.y.y.y.y.y.y.y.y.y.y.j.&XC | C C | C C C #XC C C C #X%X%X%X%X%X%X%X&X&XN N ",
"N N N +XC C #X| C C C C C C C C C V V V V V C C C N.v.y.r.y.y.y.y.y.y.y.y.y.y.r.r.y.r.l.*XC C C C } M.| &.C C C C #X#X%X%X%X%X%X%X&X&X&XN N ",
"N m m C +X| M.} C C C C C C C #XC V V V V C C C C C b.y.y.y.y.y.y.y.y.y.y.y.y.y.y.y.y.j.&XM.%.C C #XC C C C C C C #X#X%X%X%X%X%X%X%X%X&XN N ",
"Z Z C V Z Z Z V C Z V Z C V C V V V V V V V V C V C b.y.y.y.r.y.r.y.y.y.r.y.y.y.y.y.d.j.&XV V Z V Z C V Z Z Z V Z V C Z C Z C C Z Z C C C V ",
"C &.C V V V V V V V V V V V V V V V V V V V V V V V c.y.y.y.y.r.y.y.y.r.y.y.y.y.y.y.y.n.#XV V V V V V V V V OXV V V V V V V V V V V V V +X| ",
"C C C V V V V V V V V V V V V V V V V V V V V V V V c.y.q.0.0.0.0.r.y.y.y.q.9.0.0.q.y.n.&XV V V V V V V V V V V V V V V V V V V V V V B M.| ",
"C C #XV V V V V V V V V V V V V V V V V V V V V V V k.y.e.9.9.9.9.y.y.y.y.q.9.9.9.q.y.j.&XV V V V V V V V V V V V V V V V V V V V V V V +X&.",
"C #XC V V V V V V V V V OXV V V V V V V V V V V V V b.y.e.q.e.e.t.r.y.r.e.e.y.q.t.r.y.j.#XV V V V V V V V V V V V V V V Z V V V Z V V Z C C ",
"+X| C *X%X%X%X&XV V V V $X%X*X*X&Xm m N m V C C N.v.b.y.y.y.e.y.y.r.y.y.y.q.y.y.y.r.r.h.V m N N N V V V V Z C C C C C C C C C &X%X%X%X%X*X%X",
"| | #X%X%X%X%X#XV V V V &X%X*X*X&XN N N m V C C | C j.y.y.y.y.y.y.y.r.y.y.y.y.y.y.r.y.f.V N N m N N V V V V C C +X&.C C C C C &X%X%X%X%X;X%X",
"N.C +X-X%X%X%X#XV V V V #X%X%X%X&XN m m m V C &.C C v.a.e.y.y.y.e.y.r.y.y.r.y.r.y.r.y.f.V N N m N V V V V V C #X} M.C C C | | &X%X%X%X%X%X%X",
"OXC C -X*X*X%X&XV V V V &X*X%X%X&XN N N N V C OXC C c.e.y.y.y.e.y.y.y.r.y.y.r.r.y.r.w.f.V m N N N V V V V V C C | C C C C +XC &X%X%X%X%X%X%X",
"C C C &X&X#X&X#XV C Z Z #X&.&.+X#XN N V N V Z C Z Z c.d.y.e.y.y.y.e.y.y.r.y.r.r.r.y.r.h.Z Z Z C C C C C #X#XC C C C C C C Z C C &.&.+X&.&X&X",
"C C C C C C C | C +XC C Z V V Z V V V V V V V V V V c.e.y.e.y.e.y.y.r.r.r.y.r.r.r.r.r.k.+X%X%X%X&X%X%X&X%X&X#X#XC C V V V V V V V V Z V C C ",
"M.} #XC C C C C C C #XC C V V V V V V V V V V V V V c.a.q.e.r.r.w.y.y.r.r.r.y.r.r.r.r.j.&X&X%X%X%X%X%X%X%X&X+X| | C C V V V V V V V V V C &.",
"C | C C C #X#XC C C C C V V V V V V V V V V V V V V z.d.d.d.d.d.d.d.t.d.d.d.d.d.d.d.d.k.#X;X%X%X%X%X%X%X%X&XN.| } M.Z V V V V V V V V OXC C ",
"C C C C C C C C #X#XC C V V V V V V V V Z V V V V V N m M M N M M M M M N N m m M M N V &.-X*X*X%X&X%X%X%X*X+XC C | C V V V V Z V V V V C C ",
"Z Z V V V C V V V V V V V V V V V N N N N Z +X&X&X&XC m M m m m m m m m m m m m m m m V +X#X#X#X#XC V C Z V V V V V V V V V V V C C C Z C C ",
"V V V V V V V V V V V V V V V V V N N N N Z %X%X%X%XV m m m m m m m m m m m m m m m m N N.OX#XC +XV V V V V V V V V V V V V V C C C C C C #X",
"V V V V V V V V V V V V V V V V V N N N m C %X%X%X%XC m m m m m m m m m m m m N m m m V C C C C | V V V V V V V V V V V V V V C C C #XC C C "
};
