/* XPM */
static char *result[] = {
/* columns rows colors chars-per-pixel */
"70 70 224 2 ",
"   c #241709",
".  c #261A0A",
"X  c #2A1C0D",
"o  c #301F0E",
"O  c #2E2111",
"+  c #2D291B",
"@  c #322212",
"#  c #392919",
"$  c #31200F",
"%  c #3B3629",
"&  c #373737",
"*  c #36363A",
"=  c #3C3C3C",
"-  c #432915",
";  c #49220F",
":  c #45372A",
">  c #553927",
",  c #533D31",
"<  c #663D26",
"1  c #3D4A3E",
"2  c #5C402D",
"3  c #4F4A3A",
"4  c #544D3C",
"5  c #564739",
"6  c #6E452D",
"7  c #66422E",
"8  c #73482E",
"9  c #71432B",
"0  c #6B4A34",
"q  c #684732",
"w  c #734D35",
"e  c #7A4C33",
"r  c #754D38",
"t  c #794E3B",
"y  c #764032",
"u  c #7F5234",
"i  c #76513A",
"p  c #7C533A",
"a  c #795539",
"s  c #1F1B4E",
"d  c #1F1B50",
"f  c #201C4F",
"g  c #231E55",
"h  c #241F5A",
"j  c #1D2454",
"k  c #373644",
"l  c #242157",
"z  c #26205B",
"x  c #2B265A",
"c  c #312D57",
"v  c #353155",
"b  c #272161",
"n  c #292363",
"m  c #2D266C",
"M  c #282965",
"N  c #322C66",
"B  c #3A356A",
"V  c #2F2872",
"C  c #322A79",
"Z  c #303A6F",
"A  c #423D6F",
"S  c #034D4D",
"D  c #084645",
"F  c #034F50",
"G  c #035253",
"H  c #025C5D",
"J  c #025758",
"K  c #124E4B",
"L  c #30554F",
"P  c #37625B",
"I  c #055E60",
"U  c #204171",
"Y  c #026565",
"T  c #026768",
"R  c #046B6C",
"E  c #0A6869",
"W  c #196562",
"Q  c #056E70",
"!  c #096971",
"~  c #037474",
"^  c #037C7D",
"/  c #097979",
"(  c #187473",
")  c #29746E",
"_  c #2D7B79",
"`  c #434343",
"'  c #4B4B4B",
"]  c #574F46",
"[  c #5B554E",
"{  c #59544A",
"}  c #585654",
"|  c #485048",
" . c #6B584B",
".. c #765A48",
"X. c #685C57",
"o. c #644E46",
"O. c #4D6859",
"+. c #576453",
"@. c #7B6557",
"#. c #6F6451",
"$. c #585673",
"%. c #504D70",
"&. c #646464",
"*. c #6A6661",
"=. c #6A6A6A",
"-. c #6A6765",
";. c #776D68",
":. c #67726C",
">. c #7E726D",
",. c #6E6E7B",
"<. c #676579",
"1. c #747474",
"2. c #7B7674",
"3. c #7B7977",
"4. c #75747A",
"5. c #7E7E7E",
"6. c #767A7A",
"7. c #6E7777",
"8. c #83543A",
"9. c #89563B",
"0. c #865A3A",
"q. c #8D5A3D",
"w. c #805236",
"e. c #915B3F",
"r. c #845D45",
"t. c #8D5D42",
"y. c #8B5E48",
"u. c #855744",
"i. c #925C40",
"p. c #894D40",
"a. c #8C6245",
"s. c #8C624C",
"d. c #856144",
"f. c #91634C",
"g. c #966245",
"h. c #856352",
"j. c #8B6654",
"k. c #8E6955",
"l. c #886B5D",
"z. c #946957",
"x. c #9D725D",
"c. c #8D705D",
"v. c #AE7559",
"b. c #826D63",
"n. c #8B6F61",
"m. c #867369",
"M. c #827671",
"N. c #817E7C",
"B. c #847974",
"V. c #967C6A",
"C. c #A77C67",
"Z. c #B37A62",
"A. c #5E817F",
"S. c #81807F",
"D. c #958179",
"F. c #A38476",
"G. c #B78675",
"H. c #B0816A",
"J. c #CB967F",
"K. c #372F85",
"L. c #3B328B",
"P. c #3C3386",
"I. c #3E3593",
"U. c #2F3F82",
"Y. c #44399D",
"T. c #443A9A",
"R. c #443B8A",
"E. c #453AA4",
"W. c #483CA8",
"Q. c #325298",
"!. c #037F81",
"~. c #156F89",
"^. c #23689A",
"/. c #3653A0",
"(. c #4B4387",
"). c #544E8B",
"_. c #5B5587",
"`. c #645D99",
"'. c #696684",
"]. c #757485",
"[. c #7C7C84",
"{. c #716D91",
"}. c #726D96",
"|. c #4B40A4",
" X c #554BA4",
".X c #5A51A0",
"XX c #645BA1",
"oX c #7770A5",
"OX c #058284",
"+X c #05878A",
"@X c #058B8D",
"#X c #0A8C8D",
"$X c #0B8585",
"%X c #1B8985",
"&X c #058E92",
"*X c #0A8E91",
"=X c #059295",
"-X c #0A9496",
";X c #039B9C",
":X c #099899",
">X c #169595",
",X c #039FA1",
"<X c #0A9DA0",
"1X c #04A2A3",
"2X c #05A6AA",
"3X c #03ABAD",
"4X c #09A2A4",
"5X c #0FA9AB",
"6X c #2B9C9C",
"7X c #519A99",
"8X c #55898B",
"9X c #6B8484",
"0X c #708584",
"qX c #828282",
"wX c #8E8E8E",
"eX c #8A8686",
"rX c #918E8C",
"tX c #9A8B87",
"yX c #94908E",
"uX c #8E8C97",
"iX c #A28A8A",
"pX c #B89893",
"aX c #B88D88",
"sX c #B7A5AE",
/* pixels */
"5.5.5.1.1.1.1.1.1.1.1.1.1.1.1.1.1.1.1.7.1.3.[.A.D.3.N.3.2.;.*.X.} [ ] 3 : : % % # + S.wXwXA.D.S.S.3.1.1.1.1.1.1.1.1.1.1.1.1.1.1.1.1.1.1.5.[.",
"5.qX5.1.1.1.1.1.1.1.1.7.1.1.1.1.1.7.1.1.1.3.5.5.-.# + O o .     X O X $ @ @ O $ O $ : eXwXD.A.[.S.4.1.1.1.1.1.1.1.1.1.2.1.1.1.1.1.1.1.1.A.N.",
"S.S.0XN.5.5.5.qXeXeXeXeXeXwXeXeXwXeXeXwXeXwXwXwX*.. . . X . . . . X X O O O O $ @ @ X , wXwXeXwXwXeXeXeXwXqX=.=.=.=.1.N.5.5.5.3.5.5.5.5.B.4.",
"[.S.N.N.5.5.5.eXwXwXwXwXwXwXwXwXwXwXwXwXwXwXwXwX*.. . . . . . . . O X X X X X @ @ @ @ o ] rXwXyXwXuXwXwXyXwX=.-.=.=.=.0XN.[.N.[.5.5.5.5.B.2.",
"N.5.[.N.S.5.[.qXyXwXyXwXwXuXwXwXwXuXyXyXwXwXwXwX*.X . . . . . . . X X X X X X X O @ # @ @ wXwXwXwXwXwXyXwXwX=.=.=.=.1.[.5.D.S.S.S.S.S.5.1.1.",
"[.N.S.N.N.0XS.qXwXwXwXwXwXwXyXwXwXwXwXwXuXyXwXwX*.X X . . . . . X O X X . .   X X @ r.- @ wXwXwXwXwXyXrXwXwX=.=.-.=.=.S.A.N.S.S.S.D.[.N.1.4.",
"S.D.S.[.N.N.5.S.wXwXwXeXwXwXwXwXwXeXwXrXwXwXwXwX*.X X   . . . X X O X X X X . X O # Z.x.@ rXwXwXwXwXwXrXwXtX;.=.=.=.1.qXS.qXqX[.A.N.N.5.1.3.",
"A.N.S.=.=.=.=.1.6.6.6.1.1.6.6.6.3.=.=.=.=.:.1.1.X.. . . X X X X X . . .   X X O @ > Z.J...qXqXqXqXqX0XqX[.A.[.N.5.[.qXwXwXwXwXqXS.[.5.5.5.[.",
"S.N.S.=.=.=.=.=.1.1.1.1.1.1.1.1.1.=.=.=.=.=.1.1.[ . . . X X o X X . . . X X $ @ @ 2 H.G.k.qXN.S.N.A.5.S.S.S.qXN.S.S.eXwXwXuXyXeXS.[.S.N.[.S.",
"[.S.S.=.-.=.=.=.1.1.1.1.1.1.1.1.1.=.=.&.=.=.1.1.} . . . . X . . . . . 0 u a.g.0 # q pXH.x.qXN.[.D.S.[.N.S.S.N.N.5.5.eXwXwXwXwXqXN.S.[.N.N.A.",
"N.S.N.;.-.-.=.:.1.1.1.1.1.1.1.1.1.-.=.-.=.=.4.1.X.  .   . . . . .   . 8 0.i.g.8 - 0 sXG.C.eXN.[.S.S.[.[.S.N.[.A.A.S.eXwXwXrXwXeXS.S.A.5.D.S.",
"N.[.A.1.6.1.1.7.6.1.3.6.1.2.6.1.4.1.=.1.=.1.1.1.[   . . . . . . . . X 8 u q.i.0.p 0.tXG.pXeX3.3.5.5.3.5.3.5.5.3.B.N.S.eXeXeXeX0XN.N.B.5.S.S.",
"5.S.A.iXwXwXyXwXS.N.S.N.qX0XN.N.S.A.N.S.5.1.=.&.{   . . . . . .   X O 8 u 0.i.q.0.0.v.z.sXB.1.1.1.1.1.1.1.1.1.1.1.1.1.1.1.1.1.1.1.1.1.1.D.N.",
"[.S.qXyXwXwXuXwXN.S.S.N.5.5.S.S.[.N.D.S.5.1.=.=.[   . . . X X @ # , 2 a 0.0.0.w.e w.v...pXN.1.1.1.1.1.1.1.1.1.1.1.1.1.1.1.1.1.1.1.1.1.1.S.A.",
"S.S.N.yXwXyXwXeX[.S.N.eXS.[.S.S.N.5.S.S.[.1.-.-.[ X X   X X + 2 2 s.f.a.i.0.u 8 8 e e p.Z.[.1.1.1.1.1.1.1.1.1.1.1.1.1.1.1.1.1.1.1.1.1.1.S.[.",
"S.N.0XwXwXuXyXeXN.[.N.A.5.N.N.[.[.S.S.D.A.1.=.=.[ X O O $ K / ) 4 d.s.a.a.0.a u 6 e e 8.i.B.1.1.1.1.1.1.1.1.=.1.1.1.1.1.1.1.1.1.1.1.1.2.[.S.",
"N.S.S.wXwXwXwXwXwXwXeXwX5.6.1.1.6.1.1.3.6.1.1.=.@.6 w p { / ^ OX6X+.a d.a.p p w 6 e y < 8.wXeXeXqXeXeXeXeXeXeXwXeXeXwXwX0XwXeXeXwXeXeX0X1.1.",
"N.[.qXyXyXwXuXwXwXyXwXwX3.1.1.1.1.1.1.1.1.1.1.1.;.e u ..W R ^ ^ OX6XO.#.#...w q 7 6 9 ; u yXwXwXwXwXwXuXyXuXuXwXwXwXyXuXyXyXwXwXuXwXwXwX=.*.",
"S.[.S.yXuXwXyXwXwXuXwXwX5.1.1.1.1.1.1.1.1.1.1.1.;. .5 W T Y R / ^ ^ :X$X~ E % > > > > ; < wXwXyXyXwXwXyXwXwXwXrXwXwXwXwXuXwXwXwXwXwXuXeX=.-.",
"[.N.A.iXwXwXyXwXyXwXwXuX6.1.1.1.1.1.1.1.1.1.1.1.1.6._ ^ ~ T Y R ^ ^ ^ -X>X/ 1 > : : > > 7 wXwXwXuXwXwXwXwXwXyXwXwXwXyXwXyXwXwXwXwXwXwXwX=.=.",
"N.N.A.wXwXwXwXwXwXwXwXwX5.3.3.B.1.4.2.M.1.1.1.1.7.8X^ ^ Q T T Y Y ^ ^ ^ &X<XP < L :.;.1.3.rXwXyXwXwXwXwXwXwXwXwXwXwXwXwXwXrXwXrXwXeXwXeX=.=.",
"1.2.M.1.6.1.1.6.S.qXS.N.[.S.N.N.S.N.S.eXqX3.1.1.9X/ ^ Q T T Y T Y ~ ^ ^ @X;X>X] ( 8X=.&.=.[.qX[.S.0XS.qX[.N.1.1.1.1.1.1.A.2.1.:.=.=.=.=.0X[.",
"1.1.1.1.1.1.1.1.N.D.5.S.N.5.S.A.[.N.A.N.5.3.1.B.@.( ~ T Y Y Y Y ~ ^ OX@X;X;X>XO.=X6X7.-.=.S.N.S.S.S.N.D.S.5.1.1.1.1.1.1.1.1.1.=.-.=.=.=.N.N.",
"1.1.1.1.1.1.1.3.A.5.S.[.N.5.[.N.0XN.N.[.5.5.3.s.i.r.P Y Y Y Y Q ^ ^ @X;X;X<X<X%X<X-X7X=.1.S.[.qXS.S.A.N.S.[.1.1.1.1.1.1.1.1.2.=.=.=.-.=.N.S.",
"1.1.1.1.2.1.1.3.[.A.N.eXN.S.[.N.N.S.N.S.S.N.k.i.i.i.t.O.Y Y T ^ ^ OX;X;X/ *X3X;X,XQ 5XA.;.S.N.D.N.[.S.S.[.N.3.2.1.1.1.1.1.2.1.=.=.=.=.=.5.0X",
"qXS.S.S.0XqXqXqXS.5.N.N.S.S.S.[.S.S.N.[.S.n.i.i.i.i.i.u.O.E ^ ^ ^ ;X;XOXS @X3X,X,XW _ 7X3.S.A.5.S.N.S.S.S.[.S.0XA.5.qXqX0XN.qXN.6.5.6.3.2.2.",
"wXyXwXwXwXyXwXeXN.N.S.S.S.S.eXN.A.5.[.N.m.8.9.i.e.i.i.e.i.+./ ^ @X;X@XS S $X3X1X4XL q V.tX5.5.S.[.N.N.S.A.eXwXyXtXyXyXuXuXyXwXwXwXwXwXwX-.=.",
"yXuXwXwXwXwXwXwX[.S.N.S.N.N.N.A.N.N.S.B.8.8.9.i.i.i.i.i.9.8.+.%X;XOXG S S OX3X1X4X3 q r.F.N.5.5.N.A.qXN.N.N.wXwXyXyXwXyXwXwXyXwXwXwXwXeX=.-.",
"wXwXwXyXwXwXwXeXS.[.N.N.N.S.[.N.eXN.N.u.8.9.e.i.i.i.i.9.8.8.s.c.:.K D G G OX2X1X=X4 w a x.D.N.5.D.N.[.S.5.qXwXyXuXwXwXwXyXwXwXyXwXwXyXwX=.=.",
"uXwXyXwXwXuXuXeXqXN.eXN.S.S.S.S.S.N.r.8.8.e.e.i.i.e.9.8.8.y.z.j.| D S J H @X3X2X*X3 0 a a C.eXN.qXS.[.S.S.qXwXwXwXwXyXwXwXwXwXuXwXyXwXwX=.-.",
"qXtXqXqXqXeXD.S.5.S.[.N.3.1.4.1.B.j.8.8.e.e.i.e.e.e.8.8.u.j.h.[ D S F J I $X3X1X#X3 q a a k.D.2.4.1.1.2.1.1.6.3.5.6.6.3.3.3.5.A.qXqXqXqX[.5.",
"S.A.N.N.qXA.S.S.5.5.S.A.3.4.1.1.n.i.8.9.e.e.e.e.e.9.8.9.k.h. .D G S F H I @X3X1X#X4 q 0 p p C.N.1.1.1.1.1.1.1.1.1.1.1.1.4.2.M.N.[.5.5.N.5.5.",
"N.[.S.S.5.qXS.S.S.S.N.N.6.1.1.n.i.i.9.i.e.9.9.e.e.e.9.j.y...K G J F F H H @X3X1X-X4 0 0 a p y.D.2.1.1.1.1.1.1.1.1.1.1.1.1.1.1.3.S.S.S.A.D.S.",
"[.S.N.S.5.N.N.0X[.S.S.0X2.1.B.t.i.9.i.i.8.8.8.e.e.i.k.h...K S G J J H T R @X3X1X-X4 0 0 i p u.x.D.1.1.1.1.1.1.1.1.1.1.1.1.1.1.5.S.0XS.S.S.S.",
"N.A.N.qXqXqXqXqXqXqXqXqX4.2.i.t.9.e.i.9.8.8.9.e.i.f.k.h.=.S G H H H H R ~ &X3X1X-X4 w w a p p d.G.A.3.3.5.6.3.5.3.5.4.5.5.3.6.[.qXqXeX0XqXqX",
"eXN.0XwXyXwXyXuXwXrXwXyX1.s.q.q.9.e.9.w.w.9.e.i.y.k.h.;.0XH H H H H H ~ ~ =X3X,X=X] w i p p 8.u.v.iXwXwXwXwXwXyXwXwXwXwXwXyXwXwXwXuXyXwXwXwX",
"N.S.S.yXyXwXyXwXrXyXwXwX1.b.q.q.e.9.8.8.8.i.e.y.k.h.;.N.0XR R H H I H ~ ~ =X3X1X:X3 w i p p p p e C.yXwXuXyXuXyXwXwXuXyXwXwXwXwXwXyXwXwXyXwX",
"N.S.N.wXuXwXwXwXwXwXyXuX1.=.;.e.e.9.8.8.9.i.t.k.j.b.S.N.0XR R H H H H ~ ~ =X3X,X:X3 w i a t p t w y.F.wXwXyXwXwXwXyXwXyXwXwXyXwXwXwXyXyXwXwX",
"N.[.S.wXwXwXwXwXyXrXwXwX1.-.=.b.t.q.9.9.e.i.k.h.l.2.N.S.0XQ R H H Y I ~ ~ =X3X1X#X4 w r w t p p e t z.tXwXrXyXwXyXuXiXyXyXyXuXwXyXuXwXwXuXwX",
"N.S.[.qXS.S.qXS.qXS.0XqX1.:.1.=.m.t.e.i.i.j.h.h.2.1.4.3.0XQ R I I H I ~ ~ =X2X1X#X*.w w 0 w p u.i r r m.qX0XS.S.S.0XA.S.qXS.0XwXwXwXwXwXeXeX",
"[.S.[.1.1.1.1.1.1.1.1.1.1.1.1.1.1.M.y.t.y.s...M.1.1.1.1.,.M M j j j j E ~ &X^./.Q.qX..r t t t 8.r <  .1.1.1.1.1.2.1.1.1.1.1.1.eXuXwXwXwXS.S.",
"N.A.S.1.1.1.1.1.1.1.1.1.1.1.1.1.1.1.M.l.n.@.;.4.1.1.1.1.,.n n l j j x ! ~ &X^.E.T.].b.r y ..t < o.1.7.1.1.1.1.1.1.1.1.1.1.1.1.eXwXwXyXwXS.[.",
"N.N.N.1.1.1.1.1.1.1.1.1.1.1.1.1.1.1.1.1.1.1.1.1.1.1.1.1.,.n n n n l l Z Z ~.Q.Y.Y.[.N.@.t 0 5 ;.qX1.1.1.1.1.1.1.1.1.1.1.1.1.1.eXwXwXwXwXqXN.",
"eXN.S.2.1.1.1.1.4.2.7.1.1.1.1.1.1.1.1.1.1.1.4.2.1.1.1.6.,.m m m m l l n m U.E.E.Y.[.[.B...X.N.qXqX3.1.6.1.1.1.6.2.1.1.1.1.7.1.eXwXwXwXwX5.5.",
"S.[.[.N.5.N.5.qXwXwXwXwX2.1.1.1.1.1.1.1.1.N.wXwXwXwXwXwXeX'.A g g g g n n V Y.W.oX3.1.1.5.wXwXwXwXwXwXwXwXwXwXwXwXwXeX5.A.S.[.S.qXqXqXqXD.A.",
"A.S.N.S.N.[.A.eXwXyXwXwX3.1.1.1.1.1.1.1.1.S.wXwXwXwXwXwXwXeXx z m n h l m m K.W.`.3.1.1.5.wXwXyXwXwXwXwXuXwXwXwXwXwXeXqXD.S.[.N.D.N.S.S.S.[.",
"N.N.N.S.N.[.N.tXwXwXwXwX5.1.1.1.1.1.1.1.4.qXwXwXwXwXwXwXwX%.n m m n l h z m V T.W.].1.1.5.wXwXuXwXyXwXwXwXyXuXwXwXwXeX[.S.S.S.N.5.A.[.N.S.S.",
"N.eXN.0XN.5.N.eXuXwXyXwX4.1.1.1.1.1.1.1.1.qXwXwXuXwXwXwX].b m m n h l l n m m C W..X3.4.3.wXwXwXwXuXwXwXwXwXyXwXwXwXeXS.S.N.N.0X5.S.S.[.N.S.",
"3.3.3.[.N.[.S.qXeXwXtXrXN.3.4.3.1.1.1.1.1.5.rXeXwXeXwXeXB h n m m l l n V m m m L.W.{.5.qXeXeXwXwXwXeXwXwXeXwXeXwXeXeX0XeXeXqXqXqXqXeX0X5.2.",
"-.-.-.N.[.N.5.S.N.A.A.5.N.S.5.[.5.1.1.1.1.3.N.eXN.N.qX$.h g z m m n z z m m m V V E. XuXwXS.S.N.0XS.5.N.N.S.5.[.S.5.eXyXyXwXyXwXyXwXuXwX=.-.",
"=.&.=.[.S.S.N.0XD.[.S.N.5.S.S.[.5.1.1.1.1.6.[.N.N.5.[.N h h h n m m l l n m m m m K.W.oXwX[.0XN.S.qX5.N.S.S.N.A.[.5.eXwXwXwXuXwXwXwXwXwX=.-.",
"=.=.=.5.S.S.N.5.S.S.S.[.A.5.5.S.5.1.1.1.1.3.S.A.[.5.$.l g s g d m m n h l m m m m V T.Y.uX5.N.[.S.D.N.A.N.N.eXN.S.5.qXwXuXyXwXwXwXwXwXwX=.=.",
"-.=.-.S.S.[.S.5.5.S.5.[.N.S.N.S.5.1.1.1.1.5.qX5.S.4.n n f s g g h m m h l n m m m m K.I.XX0XN.N.[.N.5.0XN.N.S.[.5.5.eXwXyXyXyXyXwXrXwXeX=.-.",
"6.6.3.3.3.3.4.4.3.4.2.1.B.N.3.3.1.1.1.1.1.1.1.6.4.%.n l s s g h h m V n z z n m m m m L.Y.{.5.2.4.3.3.4.3.3.4.3.3.6.6.3.A.S.5.N.5.[.5.5.3.5.",
"5.[.S.2.1.1.1.1.1.1.1.1.1.1.4.1.1.1.1.1.1.1.1.1.<.n z l f s s g h b m m z h z V m m m C W..X5.1.1.1.1.1.1.1.1.1.1.1.1.1.1.1.1.1.1.;.2.3.[.S.",
"5.N.A.M.1.1.1.1.1.1.1.1.1.1.1.1.1.1.1.1.1.1.1.1.B z n z l g s g h m V m m z g n m m m m L.W.`.1.1.1.1.1.1.1.1.1.1.1.1.1.1.1.1.1.1.1.1.B.A.S.",
"S.[.S.1.1.1.7.7.1.1.1.1.1.1.1.1.1.1.1.1.1.1.1.$.n b b n g f g h b C R.B m n g h m m m m V Y.|.[.1.1.1.1.1.1.1.1.1.1.1.1.1.1.1.1.2.1.1.1.N.A.",
"A.N.[.2.6.1.3.7.1.1.1.1.1.1.1.1.4.7.1.1.1.1.1.B n n n h s g h n V P.].$.m m h h n m m m m K.W.`.1.1.1.1.1.1.1.2.1.1.2.2.1.1.1.2.B.A.3.6.N.eX",
"N.D.N.yXwXrXwXeX1.1.1.1.wXwXwXwXeX=.=.&.&.1.$.z n b n g s g z n K._.1.4.A m n z n m m m m m T.|.<.1.1.1.1.4.N.S.[.A.N.N.S.[.[.wXuXwXwXwXtXuX",
"S.S.0XwXyXwXwXeX1.1.1.1.eXuXyXwXeX=.=.=.&.=.` k x b n h g h n C R.,.1.1.<.m m m m m m m m m C W. X1.1.1.1.1.N.N.S.5.N.eXA.N.5.eXyXwXwXyXyXwX",
"S.N.[.yXwXwXuXeX1.1.1.1.eXwXwXwXeX=.=.=.-.' & & k x h n n b m L.'.1.1.1.4.A m m m m m m m m m I.W.}.1.1.1.4.A.eXqXD.5.5.N.S.S.eXwXyXwXwXwXwX",
"S.[.A.wXyXwXyXeX1.1.1.1.eXwXwXwXwX=.=.=.&.& & & * c n n n n K.R.4.1.1.1.1.<.V m m m m m m m m C ).,.2.1.1.1.N.N.S.N.A.[.D.S.[.wXwXwXuXwXuXwX",
"N.S.N.tXeXeXeXqX6.3.3.3.qXqXeX0XN.=.1.=.' * & & * x n n n V L.'.1.1.1.1.5.3.%.m V N v v m m M k } =.3.0XqXN.5.qXS.[.5.3.5.3.3.qXqXqXqXeXwXeX",
"S.S.S.S.[.S.S.S.N.0XN.5.6.1.6.3.1.1.1.=.& & & & * * c n n P.).1.1.1.1.5.[.S.].B N k = k N v 3 k k -.;.rXwXwXqXN.[.N.6.1.1.1.1.1.1.1.1.1.5.N.",
"[.S.5.[.S.N.D.S.S.5.A.eXB.1.1.1.1.1.1.1.} = * & & & * k B %.2.1.1.1.1.3.[.5.5.&.k = = = = = = = = ' =.S.yXwXqX[.D.qX5.1.1.1.1.1.1.1.1.1.[.N.",
"N.[.N.[.N.A.S.S.[.S.N.N.3.1.1.1.1.1.1.1.1.&.' & & & * = } ,.1.1.1.1.1.3.N.A.N.5.' = = = = = = = = = =.wXwXwXN.0XN.A.3.4.1.1.1.1.1.1.1.4.N.A.",
"5.0XN.S.5.5.[.S.qX5.5.5.3.1.1.1.1.1.1.1.1.1.7.} * & & ] &.4.1.1.1.1.4.3.D.S.S.[.=.= = = = = = & ` =.wXuXwXwXqXN.S.5.5.1.1.1.1.1.1.1.1.1.S.S.",
"1.2.3.2.1.4.3.1.1.1.1.1.1.1.1.1.1.-.=.=.=.5.eXeX5.` L *.eXeXeXN.5.5.[.N.S.S.[.S.qX{ = = = = 1 &.S.5.3.3.5.3.2.3.4.1.1.1.1.1.1.3.5.5.3.5.S.D.",
"1.1.1.1.1.1.1.1.1.1.1.1.1.1.1.1.1.&.=.=.=.3.uXyXwXwXqXyXwXwXwX[.N.S.S.S.A.N.[.S.0X2.` = = } 1.N.5.4.1.1.1.1.1.1.1.1.1.=.1.1.1.5.S.D.S.[.[.N.",
"1.1.1.1.1.1.1.1.1.1.1.1.1.1.1.1.1.=.&.=.=.4.wXwXwXyXwXyXwXwXtXA.N.eXS.N.N.[.N.S.S.N.} ' =.[.[.N.5.5.=.1.1.1.1.1.1.1.1.1.1.1.1.5.S.N.A.N.S.[."
};
