/* XPM */
static char *a6e34cc492b345b8c1bb27363977698dksAobh0tsDoxOZN1[] = {
/* columns rows colors chars-per-pixel */
"70 70 212 2 ",
"   c #1D0F0C",
".  c #1E110B",
"X  c #211507",
"o  c #231709",
"O  c #261A0B",
"+  c #2A1B0C",
"@  c #382314",
"#  c #19163F",
"$  c gray14",
"%  c #3F382F",
"&  c #3C3C3C",
"*  c #3F3830",
"=  c #432B1A",
"-  c #4A2F1C",
";  c #4B311D",
":  c #4A2D22",
">  c #4E3126",
",  c #533127",
"<  c #553328",
"1  c #5B362A",
"2  c #5E382C",
"3  c #423B32",
"4  c #553C34",
"5  c #633D2C",
"6  c #693F2A",
"7  c #4C443B",
"8  c #4F483F",
"9  c #51473D",
"0  c #6A422C",
"q  c #65402B",
"w  c #74492E",
"e  c #784B2F",
"r  c #6C4934",
"t  c #6A4D3D",
"y  c #734B33",
"u  c #744E3A",
"i  c #74523C",
"p  c #1B1846",
"a  c #1C1A4B",
"s  c #24205B",
"d  c #2D266D",
"f  c #2A2466",
"g  c #2F2670",
"h  c #2E2972",
"j  c #302A74",
"k  c #332B79",
"l  c #302771",
"z  c #2A397A",
"x  c #3A3376",
"c  c #423C79",
"v  c #18524E",
"b  c #15544F",
"n  c #155552",
"m  c #145956",
"M  c #155C58",
"N  c #265951",
"B  c #285B53",
"V  c #265751",
"C  c #23625D",
"Z  c #165D79",
"A  c #195D7D",
"S  c #28447E",
"D  c #0D6D6C",
"F  c #027575",
"G  c #037778",
"H  c #027C7C",
"J  c #196B77",
"K  c #2C6E69",
"L  c #2C6E67",
"P  c #326D67",
"I  c #3F6963",
"U  c #2D706C",
"Y  c #317375",
"T  c #4B4743",
"R  c #514B44",
"E  c #5D4B45",
"W  c #5E5E5E",
"Q  c #5B5554",
"!  c #51544A",
"~  c #634F49",
"^  c #6F5446",
"/  c #69544B",
"(  c #735545",
")  c #735549",
"_  c #77584A",
"`  c #7A5B4C",
"'  c #7C5943",
"]  c #6F5850",
"[  c #725A52",
"{  c #7E6657",
"}  c #69615F",
"|  c #5F5F61",
" . c #595769",
".. c #584978",
"X. c #5C587B",
"o. c #4C477E",
"O. c #625E7B",
"+. c #4D7C74",
"@. c #517F76",
"#. c #47766B",
"$. c #636262",
"%. c #696969",
"&. c #6A6667",
"*. c #7B6A64",
"=. c #7A716D",
"-. c #706F74",
";. c #6E7979",
":. c #747474",
">. c #797675",
",. c #797877",
"<. c #747B7B",
"1. c #7E7E7E",
"2. c #855F4C",
"3. c #81614F",
"4. c #856351",
"5. c #8B6653",
"6. c #8E6956",
"7. c #84695C",
"8. c #8E6E5C",
"9. c #80675C",
"0. c #916A57",
"q. c #956D59",
"w. c #986F5B",
"e. c #8F705D",
"r. c #97715C",
"t. c #8E6F61",
"y. c #826C63",
"u. c #84716A",
"i. c #8C7164",
"p. c #957465",
"a. c #8D7C73",
"s. c #937B70",
"d. c #02827F",
"f. c #568279",
"g. c #8E807A",
"h. c #372E82",
"j. c #382F85",
"k. c #3A2F89",
"l. c #373085",
"z. c #393186",
"x. c #3B318C",
"c. c #3F3989",
"v. c #35398A",
"b. c #3D3392",
"n. c #453D86",
"m. c #403989",
"M. c #136C84",
"N. c #027E80",
"B. c #0F7E8C",
"V. c #12768C",
"C. c #107C8D",
"Z. c #177493",
"A. c #464084",
"S. c #5B5686",
"D. c #554F87",
"F. c #4C7284",
"G. c #666283",
"H. c #66628B",
"J. c #6A6789",
"K. c #797689",
"L. c #787591",
"P. c #696591",
"I. c #018484",
"U. c #028887",
"Y. c #028789",
"T. c #018C8D",
"R. c #1D8D8A",
"E. c #14898B",
"W. c #1C908E",
"Q. c #018F90",
"!. c #029393",
"~. c #019897",
"^. c #029798",
"/. c #019999",
"(. c #0B9A9A",
"). c #099093",
"_. c #179294",
"`. c #129C9D",
"'. c #228687",
"]. c #318F8F",
"[. c #229594",
"{. c #259897",
"}. c #339898",
"|. c #03A09F",
" X c #02A5A5",
".X c #13A9AB",
"XX c #458786",
"oX c #4C8E8F",
"OX c #6C8888",
"+X c #758786",
"@X c #77908F",
"#X c #7B9192",
"$X c #818181",
"%X c #838383",
"&X c #858585",
"*X c #868686",
"=X c #828282",
"-X c #878A8A",
";X c #848988",
":X c #888888",
">X c #8B8B8B",
",X c #8A8B8A",
"<X c #8C8C8C",
"1X c gray56",
"2X c #8E8E8E",
"3X c #8E8D8C",
"4X c #8E8E8E",
"5X c #898380",
"6X c #908F8F",
"7X c #91908F",
"8X c #869696",
"9X c #8DA0A0",
/* pixels */
"1.1.$X:.:.:.:.:.:.:.:.:.:.:.:.:.:.:.:.:.:.,.g.5X$X$X:XR R R R T R R R 7 3 3 % % 8 8 8 7 -.f.+Xa.+X,.:.:.:.:.:.:.:.:.:.:.:.:.:.:.:.:.:.:.$X1.",
"$X1.1.:.:.:.:.=.:.:.:.:.:.:.:.:.:.:.:.:.>.,.5Xf.$X$X>X+ O O O o X o O O o O X X X X .   ] a.K.a.1.:.:.:.:.:.:.:.:.:.:.:.:.:.:.:.:.:.:.:.1.$X",
"+X1.1.1.1.1.1.$X*X:X:X:X:X-X:X:X:X:X;X;X-X,X,X,X>X>X>X+ O O O o O + + O O O X X X X . X Q >X>X>X<X>X:X:X,X=X-.%.%.%.:.<.1.1.1.,.1.1.1.1.,.,.",
"a.$X1.1.+XK.a.&X2X2X2X2X2X2X2X2X1X1X1X1X1X1X1X1X6X6X4XO + X X + + + + + O o X X X X X X R 6X6X6X2X2X6X2X6X3X%.%.&.&.-.g.1.+Xa.+X1.1.1.1.:.:.",
"K.g.f.5X5Xa.$X&X1X1X1X1X6X2X6X2X7X7X4X1X4X7X7X7X6X2X6XO O o o + + + O O O O X X o . X X 7 6X4X4X2X2X6X2X6X<X&.&.&.&.-.$X1.K.+Xg.1.$X1.1.>.:.",
"5Xf.g.K.=XK.$X&X1X1X1X1X2X6X2X6X7X7X7X4X1X4X7X7X1X6X6XO + + + + + O o O O O X X . o X X T 6X6X4X2X6X2X2X2X<X-.&.%.&.-.$X1.a.+X1.1.1.1.1.:.>.",
"5X$Xa.1.1.f.a.&X<X<X<X<X<X<X2X2X,X,X,X,X-X,X,X,X4X>X>XO O + + + + O o O O O X o O o o o 7 6X4X6X2X2X>X2X<X,X%.=.%.%.>.5X5Xf.a.K.+X1.K.a.>.:.",
"$X$XK.%.%.%.=.-.<.:.,.:.,.:.,.,.>.-.%.%.%.:.>.:.:.<.,.o o + + + O O o o O O O O + O O O 4 $X%X+X$X$X=X$X$XK.g.f.1.1.5X7X7X4X4X;Xg.$X$X5X5Xf.",
"a.$Xf.%.%.%.&.%.:.:.-.,.:.:.:.:.:.&.%.%.%.%.:.:.:.:.>.o X + + + O o X o + o + O + + O O 7 f.g.a.a.$X$X5X5Xf.1.1.1.f.;X1X1X1X1X=X1.a.+Xf.5X5X",
"K.5X5X%.&.%.%.-.:.:.:.:.:.:.:.:.:.%.%.$.%.-.:.:.:.:.>.O O + + O O O o o o o + + + + + O 7 K.=X$XK.$X$Xg.5XK.a.+X5Xg.=X1X1X1X1X*X1.1.K.g.a.$X",
"$Xf.g.%.&.&.&.%.:.:.:.-.:.:.:.:.:.%.&.%.%.-.:.:.:.:.>.+ + + + + O O o o o + + + + + + O 7 g.+Xg.$X1.1.f.$Xa.g.1.%XK.%X1X7X7X1X=Xg.+X+Xa.K.K.",
"5Xg.K.:.:.;.,.,.,.,.,.,.<.:.,.,.:.-.:.%.-.%.:.-.-.-.>.O O O + O o o o O + + + + + + O O 8 ,.,.,.1.,.1.,.1.K.K.,.a.K.g.;X>X5X3Xf.K.,.,.1.+Xa.",
"5X$XK.6X1X1X1X-Xg.K.$X$XK.5X5X$Xa.K.$X+Xf.-.%.$.%.%.f.@ O O O O o o O + + + + + + + O O 7 :.:.:.:.:.:.:.-.:.:.:.:.:.:.:.=.:.:.:.:.:.:.:.+X1.",
"$X$Xa.6X1X1X1X-Xf.K.a.$Xg.f.a.$X$X$X$Xg.g.;.%.%.%.$.a.+ O O O O O O o o O O o o + + + O 7 :.:.:.:.:.:.:.=.:.:.:.:.:.:.:.>.>.:.:.:.:.:.:.a.$X",
"a.5XK.1X1X1X6X-X5X5X5X$X1.+XK.+Xg.5XK.$X5X,.&.%.%.%.1.O + O + + + + O o o o .   + + O + R :.:.:.:.:.:.:.:.:.:.:.:.-.:.:.:.:.:.:.:.:.:.:.K.g.",
"=X5Xf.1X1X1X6X-Xa.$Xg.f.1.g.K.a.f.K.a.$X$X:.%.%.%.%.a.@ = @ @ + + O o O o o X X - - - : ~ :.:.:.:.:.:.:.:.:.:.:.:.:.:.:.:.:.:.:.:.:.:.:.1.+X",
"=XK.a.1X1X1X1X<X-X-X1X-XK.>.:.,.,.,.,.<.K.f.1.<.;.;.1.e w 0 6 + o o o o o o o + q q w e { ;X-X,X-X-X<X-X-X>X:X:X:X:X:X:X:X:X:X:X>X:X:X*X-.%.",
"+Xg.$X7X1X1X1X1X1X1X1X1X1.:.:.:.:.:.:.oX_._._.E.E.E.J e w q 5 @ O O O O + O + + q q r w ! Y '.{.[.'.R.R.].8X6X6X6X4X1X1X1X1X1X4X2X6X2X<X%.%.",
"1.f.5X7X1X1X1X1X1X1X2X2X1.:.:.:.:.:.-.oX!.!.Q.T.U.I.H M v v v v n n b n m m M m n n m m D I.!.~.|.|. X X.X9X6X6X6X1X1X1X1X1X1X1X6X2X2X>X%.%.",
"a.K.5X7X1X1X1X1X1X1X2X2X,.:.:.:.:.:.,.}.!.!.!.T.T.Y.H F F F F F F F F F H H H H G G G G H U.~.(.|. X X X.X8X6X4X1X1X1X1X1X1X1X1X2X2X2X-X%.%.",
"f.g.K.<X2X2X2X<X6X3X6X2X1.>.>.>.:.:.+X{.!.!.!.!.T.T.I.d.I.I.U.I.N.I.I.I.U.U.U.Y.I.I.I.H G I.). X X X X!.).#X2X<X>X4X4X>X4X<X<X<X<X<X<X:X%.&.",
"a.:.:.:.-.:.:.<.$X5X$Xa.a.K.$X$Xg.1.@X`.~.!.!.!.!.T.T.H I.U.T.T.T.T.T.T.T.T.Q.Q.T.U.U.d.I./.~.~.^.|.^.^.^.OX:.:.:.:.:.-.:.:.:.%.%.%.%.%.a.+X",
":.:.:.:.:.:.:.,.5X5Xa.$XK.f.$X$X+X1.OX[.W.R.W.R.R.R.R.D H T.!.T.T.T.Q.Q.!.T.!.!.Q.!.Q.I.Y./.~./.^./.|.|.(.OX:.:.:.:.:.:.:.:.:.-.%.%.&.%.+X$X",
":.:.:.:.:.,.-.,.f.$XK.$X5Xg.5Xg.1.1.a.e.e.e.e.8.8.8.8.C H U.T.T.!.Q.!.!.!.!.!.!.!.!.!.T.T./.~./.^.^.^.^.(.OX:.:.:.:.:.:.:.:.:.%.%.&.%.&.1.$X",
":.:.:.:.:.:.:.<.K.5X5X$Xa.K.g.f.a.g.a.q.q.q.q.q.0.0.q.B H U.T.T.T.T.!.!.!.!.T.!.!.~.!.).I.!.~.~././.~./.(.+X,.:.:.:.:.:.:.:.:.%.%.%.&.%.1.$X",
"=X$X$X$X+Xg.1.a.f.5XK.a.+XK.+X1.+XK.p.q.q.q.q.q.q.q.0.B G I.T.U.H I.!.!.T.T.I.I.!.~.~.!.H U.!./.~./././.`.@XK.=X$X=X=X=X$X$Xg.K.1.,.<.<.:.:.",
"6X6X4X4X1X1X1X,X1.1.+Xa.+Xa.a.$X+Xg.p.r.6.3.4.3.5.q.5.N G I.U.U.d.I.!.!.T.!.U.I.~.~.~.!.H I.).!.!.~.~./.`.#X6X2X6X6X2X6X1X1X1X1X1X1X<X<X%.&.",
"6X4X4X4X1X1X1X,Xf.+Xg.K.a.+XK.5X1.%Xr.r.0.6.0.6.q.w.3.B G d.U.I.H I.!.!.!.T.U.I.!./.~.~.I.H T.!.!.~.~.~.`.8X2X6X6X2X6X2X1X1X1X1X1X2X2X<X%.%.",
"6X6X1X1X1X1X1X-Xg.5Xa.K.$Xg.f.5X1.g.q.w.q.w.q.w.w.q.' N G d.d.d.H I.!.!.!.T.I.I.~.~././.J I #.+.@.f.@.f.f.<X2X2X6X2X6X6X1X1X1X1X1X1X1X<X&.&.",
"1X6X1X1X1X1X1X,X$X$X$X5X1.+Xg.K.K.g.w.w.w.w.w.q.w.w.i N G G F G H I.!.!.T.!.U.I.T.!.~.(.P ( { 5.6.6.6.6.p.5X2X6X1X6X2X6X1X1X1X1X1X1X1X<X%.-.",
"=X+X=X=X=X+X$X=X$XK.K.5X,.:.:.,.>.a.8.q.w.w.q.q.q.w.e N F G F G H I.!.~.T.!.U.I.T.!.~.~.P ' 3.5.6.6.6.8.t.,.,.<.,.,.>.,.K.,.<.f.K.=X5X5Xa.K.",
"K.g.a.K.+Xg.a.K.$Xa.g.f.,.:.:.:.>.i.3.0.w.0.3.5.w.w.y N F d.d.d.H I.T.T.~.!.U.I.U.U.!.|.L ^ ` 3.5.6.6.6.8.,.:.:.:.,.:.>.>.>.,.a.a.$X$X5X5Xf.",
"5Xf.+Xa.5X5Xa.K.K.+X$X5X>.:.:.:.:.7.3.0.r.0.3.5.w.q.u N F d.I.I.H I.T.Q.!.!.Y.I.I.Y.!./.P ( _ _ ` 3.4.6.t.:.:.:.:.:.:.:.:.:.:.,.K.f.5X$Xa.K.",
"5XK.a.K.5Xf.K.$Xg.a.$Xg.>.:.:.:.>.5.4.q.r.6.4.6.w.q.y B G d.I.I.H N.Q.Q.!.^.U.I.Y.Y.!./.K ^ _ _ ` ` 4.6.t.,.:.:.:.:.:.:.:.:.a.f.g.K.g.=Xf.=X",
"5X$X$X=X5X%X$X=X+X=Xf.5X<.:.-.-.>.5.5.q.r.6.3.0.w.q.y P H I.U.Y.H I.Q.Q.!.!.U.I.Y.I.!./.K ^ ` 4.4.4.6.6.t.a.1.,.<.,.,.K.1.,.a.K.=X=X=X=X5X5X",
"a.$X$X6X4X4X1X1X6X6X7X3X-.%.%.%.=.3.3.q.q.5.3.6.w.5.y Y d.U.U.T.U.T.Q.!.~.!.!.!.!.!././.L ^ ` 3.4.4.5.6.i.6X2X1X2X2X7X7X2X2X6X7X1X1X1X1X7X7X",
"K.f.5X7X6X6X6X1X6X2X6X2X:.%.%.%.} - : 2 2 > : < 5 5 0 XXI.U.U.T.Q.!.!.!.!.~.~./.^./.^./.K ^ ` 2.4.4.5.5.t.2X1X1X6X6X6X6X2X1X1X1X1X1X1X1X7X7X",
"K.g.$X7X6X6X6X1X2X6X2X6X=.%.$.%.&.> : 1 2 , : > 5 5 r XXH d.I.I.Y.T.!.!.!.T.T.).^.^.^.^.K ) ) ` { 4.5.2.7.6X1X2X>X6X6X6X1X1X1X1X1X1X1X1X6X7X",
"+Xg.a.1X2X4X7X7X7X7X7X2X-.%.%.%.%.4 : , 1 < : > 1 1 ^ F.F G H H H I.!.!.I.I.I.Y.^.^.!.!.U / ) ) _ 4.3.3.9.6X6X2X6X6X6X6X2X2X1X1X6X6X4X4X6X6X",
"1.$XK.=X$X=X=X5Xg.f.$X$X:.-.-.%.:.] 5 , : > 1 1 : : / F.A Z Z Z Z M.!.!.I.Y.I.I.C.V.Z.C.o.) ` ) _ 4.3.` 9.&X$X$X+Xa.+X$X$X$X$X>X6X6X6X4X:X*X",
"1.1.g.;.:.:.:.:.:.:.:.:.:.:.:.:.:.*.2 1 : : 1 2 : : / S.k.k l j h S !.Q.I.I.I.I.v.k l.b.c 2.` ) _ 4.3._ *.,.:.:.:.:.:.:.:.:.:.*X1X1X1X<X+Xa.",
"1.1.K.,.:.:.:.:.:.:.:.:.:.:.:.:.:.-.) ] ~ ~ / ] ~ E &.X.h.h.k k k v.B.E.I.I.V.V.z k l.b...3.` ) _ 5.5.` 7.:.:.:.:.:.:.:.:.:.:.:X1X1X1X<Xg.K.",
"$Xg.f.,.:.:.:.:.:.:.:.:.:.:.:.:.:.:.:.:.:.:.:.:.:.:.:.D.k.z.z.x.x.z.h z M.M.x.k.x.x.x.x...p.u.u.u.u.u.*.=.>.:.:.:.:.:.:.:.:.:.*X1X1X1X<X+X5X",
"1.K.5Xu.:.:.:.:.>.<.:.:.:.:.:.:.:.:.:.:.:.:.,.:.>.:.:.G.h.h.h.h.h.k f f k.x.k.k.x.b.l.k O.5Xf.K.$X,.:.,.>.:.,.:.:.:.,.:.:.:.:.*X1X1X<X<Xf.g.",
"+Xg.K.a.1.g.5X5X2X<X<X<X:.:.:.:.:.:.:.:.:.K.3X3X,X,X2XK.s a a a p p # p k.k.b.b.x.b.b.b.G.<X2X2X4X>X>X2X2X<X<X2X>X3X:X1.K.1.1.a.+X=X=Xg.+X1.",
"1.$X$X$X1.f.$X*X1X1X2X2X,.:.:.:.:.:.:.:.:.$X1X1X1X1X1XL.h.j g g d f f f x.k.x.x.x.b.b.v.H.2X1X1X6X6X6X6X1X1X2X2X2X2X>X1.g.+Xf.K.a.=X$XK.a.1.",
"1.1.g.5XK.$X$X%X1X1X1X1X1.:.:.:.:.:.:.:.:.+X1X1X1X1X3XJ.k k z.k.z.h.k g x.k.k.b.b.b.x.b.H.2X2X1X6X2X6X2X1X1X2X6X2X6X:X1.g.$X5X5Xg.5X1.1.K.g.",
"K.1.f.K.a.$X$X&X1X1X1X1X,.:.:.:.:.:.:.:.:.g.1X1X1X1X1XL.k l.k.j.j.h.k k b.b.m.b.x.b.b.b.H.2X1X1X2X6X2X6X1X1X6X2X6X2X>X1.+XK.a.$Xf.K.g.1.1.+X",
",.>.>.f.$X1.1.$X<X>X3X,X1.a.a.,.,.:.:.:.:.$X-X-X-X>X>XL.k.x.k.k.h.k k k x.x.x.b.b.b.b.x.H.:X:X:X<X-X-X,X,X,X,X:X>X>X>X$X*X*X&X$X*X&X=X*X>.<.",
"&.%.*.5X1.$X$X1.1.1.=XK.1.f.$XK.$X,.:.:.:.,.a.$XK.$Xa.K.x.k.k.j.h.h.k j z.l.l.l.h.j.k.h.O.$X$X1.K.g.a.+XK.a.g.+X1.1.*X2X2X2X2X6X1X1X1X,X%.&.",
"%.%.%.$Xa.K.f.g.$Xg.f.a.1.$X$X1.a.,.:.:.:.,.=X+X5X5X+XK.k.k.k.l.h.h.k j k k k k k k j k O.$X1.$Xa.+X+Xa.K.+X5X5X1.$X*X2X1X1X6X1X1X1X6X,X%.%.",
"&.&.&.$X$X5X5XK.1.K.5X5X1.1.1.$Xf.:.:.:.:.,.K.a.$Xf.g.K.x.z.k.z.h.h.k j k k k k k k k k G.$X$X$XK.a.+XK.a.$X$Xf.1.1.&X2X1X1X1X1X1X1X1X,X%.%.",
"%.%.&.K.g.+Xa.+X+Xg.K.$X$XK.g.f.,.>.:.:.:.1.K.$X$Xa.1.=Xz.k.h.l.h.h.h.k k k k k k k k k G.f.5X$Xf.5X$XK.a.+XK.g.g.K.*X2X1X2X2X2X7X1X1X3X%.%.",
">.<.,.,.>.>.<.,.>.>.>.,.,.,.,.a.>.:.:.:.:.>.>.,.,.<.>.K.x j j j g g g k k.x.l.l.h.j.h.j.G.>.a.,.,.a.,.,.,.,.,.,.>.>.<.1.1.1.,.1.K.,.1.,.,.,.",
"1.K.g.>.:.:.:.:.:.:.:.:.:.:.,.:.:.:.:.:.:.:.:.:.-.:.:.:.c j j j g g g h.b.b.b.b.b.b.b.b.J.:.:.:.:.:.:.:.:.-.,.:.;.:.:.:.:.:.:.:.:.:.:.,.K.g.",
"$X1.f.a.:.:.:.:.:.:.:.:.:.:.:.:.:.:.:.:.:.:.:.:.:.:.:.:.o.j j h h h g h.b.b.b.b.m.b.b.b.G.:.:.:.:.:.:.:.:.:.:.:.:.:.:.:.:.:.:.:.:.:.:.a.5Xf.",
"$X5Xf.:.:.:.:.:.:.:.:.:.:.:.:.:.:.:.:.:.:.:.:.:.:.:.:.:.D.k.k.k.k.h.k.k.b.b.b.b.b.b.b.b.P.;.:.:.:.:.:.:.:.:.:.:.:.:.:.:.:.:.:.:.:.:.:.,.K.$X",
"$X5Xg.>.:.:.:.,.:.:.:.:.:.:.:.:.>.:.:.:.-.:.:.:.:.:.>.>.S.x.k.x.k.k.k.b.b.b.b.b.b.b.b.b.G.:.-.:.-.:.:.:.:.:.:.>.:.:.:.:.:.:.:.,.,.:.:.,.$X$X",
"$X1.$X7X6X6X6X*X:.:.:.:.>X6X2X6X>X&.%.%.%.:.f.$X+Xa.a.K.P.b.k.k.x.k.k.b.b.m.b.b.b.b.b.b.X.%.&.%.&.:.:.:.:.,.&X$Xf.$X$XK.5Xf.$X>X6X6X6X7X2X6X",
"K.$XK.1X6X6X4X*X:.:.:.:.:X2X6X2X;X%.%.%.%.-.g.g.a.+X+X$XP.b.b.x.b.k.b.m.n.n.n.m.A.A.A.c.X.%.%.%.&.-.:.:.:.:.a.5Xg.5X$Xa.5Xg.K.>X6X6X6X4X6X2X",
"a.5Xa.7X6X6X6X*X:.:.:.:.:X2X2X2X:X&.&.&.&.:.a.+XK.+X1.a.K.c.c.c.c.c.c. .$.| | | | | | | %.%.%.&.%.-.:.:.:.,.K.f.f.1.K.a.a.f.5X7X4X6X4X6X7X7X",
"K.f.%X7X6X6X6X5X:.:.:.:.:X2X1X6X3X-.&.%.%.:.K.1.+Xa.+XK.<.W W W W W W W $. .] | | | | | %.%.%.&.&.-.:.:.,.a.a.K.g.g.+X1.K.=Xa.3X4X4X6X4X7X7X",
"$X1.%X:X3X:X,X%X<.,.,.1.+X=X&X=Xf.u.%.-.%.>.,.1.,.,.1.>.:.W W W Q W W W | | | | | | | | -.<.1.>.K.a.f.5Xf.5XK.a.5X=X1.>.K.,.,.%X%X%X%X%X3X:X",
"1.$X$X$X5Xf.g.K.a.+XK.a.,.:.:.,.:.:.>.:.:.:.:.:.:.:.:.:.;.W W W W W W W W | | | | | ] | <.2X7X7X7X7X7X7X<X8Xg.K.$X$X1.:.>.:.:.:.:.:.:.>.$X$X",
"1.$X1.$X1.1.1.$X5X$X$X$X,.-.:.:.-.:.:.:.:.:.:.:.:.:.:.:.:.$.W W $.W W $.W W W W W W $.W ,.1X1X1X1X1X1X1X1X2X$X+X$X$X,.:.:.:.:.:.:.:.:.>.$X+X",
"1.1.1.$X1.$Xa.1.g.f.$X$X,.:.:.:.:.:.:.:.:.:.:.:.:.:.:.:.:.:.:.%.%.%.%.$.W $.W W $.W $.W 1.2X1X1X1X1X1X1X1X2X+Xa.5X5X,.,.:.:.:.:.:.:.>.>.a.K.",
"$X$X$X$X5Xf.K.K.K.g.1.$X,.:.:.:.:.:.:.:.:.:.:.:.:.:.:.:.:.:.:.:.>.>.>.8 & & & & & & & & :.7X6X7X1X2X2X1X4X4X$X$Xf.g.,.:.:.:.:.:.-.:.:.a.f.K.",
":.:.:.:.a.:.>.>.,.:.:.:.:.:.:.:.:.%.%.&.%.,.>X<X>X>X-X:X>X>X:X1.g.g.f.s $ $ $ $ $ $ $ $ %.$X$X+X$X1.,.,.,.,.:.>.>.>.:.:.:.:.:.,.K.a.K.f.5Xa.",
":.:.:.:.:.:.:.:.:.:.:.:.:.:.:.:.:.&.%.&.%.<.2X6X1X1X1X1X2X2X2XK.$X$X$XT $ $ $ $ $ $ $ $ $.f.K.g.$X,.:.:.:.:.:.:.:.:.:.-.:.:.:.1.f.1.K.a.5XK.",
":.:.:.:.:.:.:.:.:.:.:.:.:.:.:.:.:.%.%.%.%.,.2X2X1X1X1X1X2X2X-Xg.5Xf.a.-.W Q Q W W W W Q u.5X=X=XK.:.:.:.:.:.:.:.:.:.:.:.:.:.:.1.g.+Xg.+X5Xa."
};
